<?xml version="1.0" encoding="UTF-8" standalone="no"?>
<!-- Created with Inkscape (http://www.inkscape.org/) -->

<svg
   version="1.1"
   id="svg1"
   width="361.56"
   height="272.41333"
   viewBox="0 0 361.56 272.41333"
   xmlns="http://www.w3.org/2000/svg"
   xmlns:svg="http://www.w3.org/2000/svg">
  <defs
     id="defs1">
    <clipPath
       clipPathUnits="userSpaceOnUse"
       id="clipPath3">
      <path
         d="M 51.36,533.71 H 321.55 V 737.04 H 51.36 Z"
         clip-rule="evenodd"
         id="path3" />
    </clipPath>
    <clipPath
       clipPathUnits="userSpaceOnUse"
       id="clipPath4">
      <path
         d="m 51.36,723.48 h 270.19 v 13.56 H 51.36 Z"
         transform="matrix(1,0,0,-1,-52.800001,726.84002)"
         clip-rule="evenodd"
         id="path4" />
    </clipPath>
    <clipPath
       clipPathUnits="userSpaceOnUse"
       id="clipPath5">
      <path
         d="m 137.18,723.48 h 49.2 v 13.56 h -49.2 z"
         transform="matrix(1,0,0,-1,-138.62001,726.84002)"
         clip-rule="evenodd"
         id="path5" />
    </clipPath>
    <clipPath
       clipPathUnits="userSpaceOnUse"
       id="clipPath6">
      <path
         d="m 51.36,723.48 h 270.19 v 13.56 H 51.36 Z"
         transform="matrix(1,0,0,-1,-188.78001,726.84002)"
         clip-rule="evenodd"
         id="path6" />
    </clipPath>
    <clipPath
       clipPathUnits="userSpaceOnUse"
       id="clipPath7">
      <path
         d="m 51.36,723.48 h 270.19 v 13.56 H 51.36 Z"
         transform="matrix(1,0,0,-1,-238.97001,726.84002)"
         clip-rule="evenodd"
         id="path7" />
    </clipPath>
    <clipPath
       clipPathUnits="userSpaceOnUse"
       id="clipPath8">
      <path
         d="m 51.36,708.94 h 270.19 v 13.584 H 51.36 Z"
         transform="matrix(1,0,0,-1,-52.800001,712.30002)"
         clip-rule="evenodd"
         id="path8" />
    </clipPath>
    <clipPath
       clipPathUnits="userSpaceOnUse"
       id="clipPath9">
      <path
         d="m 51.36,708.94 h 270.19 v 13.584 H 51.36 Z"
         transform="matrix(1,0,0,-1,-138.62001,712.30002)"
         clip-rule="evenodd"
         id="path9" />
    </clipPath>
    <clipPath
       clipPathUnits="userSpaceOnUse"
       id="clipPath10">
      <path
         d="m 51.36,708.94 h 270.19 v 13.584 H 51.36 Z"
         transform="matrix(1,0,0,-1,-188.78001,712.30002)"
         clip-rule="evenodd"
         id="path10" />
    </clipPath>
    <clipPath
       clipPathUnits="userSpaceOnUse"
       id="clipPath11">
      <path
         d="m 51.36,708.94 h 270.19 v 13.584 H 51.36 Z"
         transform="matrix(1,0,0,-1,-238.97001,712.30002)"
         clip-rule="evenodd"
         id="path11" />
    </clipPath>
    <clipPath
       clipPathUnits="userSpaceOnUse"
       id="clipPath12">
      <path
         d="m 51.36,694.42 h 270.19 v 13.56 H 51.36 Z"
         transform="matrix(1,0,0,-1,-52.800001,697.78001)"
         clip-rule="evenodd"
         id="path12" />
    </clipPath>
    <clipPath
       clipPathUnits="userSpaceOnUse"
       id="clipPath13">
      <path
         d="m 51.36,694.42 h 270.19 v 13.56 H 51.36 Z"
         transform="matrix(1,0,0,-1,-138.62001,697.78001)"
         clip-rule="evenodd"
         id="path13" />
    </clipPath>
    <clipPath
       clipPathUnits="userSpaceOnUse"
       id="clipPath14">
      <path
         d="m 51.36,694.42 h 270.19 v 13.56 H 51.36 Z"
         transform="matrix(1,0,0,-1,-188.78001,697.78001)"
         clip-rule="evenodd"
         id="path14" />
    </clipPath>
    <clipPath
       clipPathUnits="userSpaceOnUse"
       id="clipPath15">
      <path
         d="m 51.36,694.42 h 270.19 v 13.56 H 51.36 Z"
         transform="matrix(1,0,0,-1,-238.97001,697.78001)"
         clip-rule="evenodd"
         id="path15" />
    </clipPath>
    <clipPath
       clipPathUnits="userSpaceOnUse"
       id="clipPath16">
      <path
         d="m 51.36,679.9 h 270.19 v 13.56 H 51.36 Z"
         transform="matrix(1,0,0,-1,-52.800001,683.26001)"
         clip-rule="evenodd"
         id="path16" />
    </clipPath>
    <clipPath
       clipPathUnits="userSpaceOnUse"
       id="clipPath17">
      <path
         d="m 51.36,679.9 h 270.19 v 13.56 H 51.36 Z"
         transform="matrix(1,0,0,-1,-138.62001,683.26001)"
         clip-rule="evenodd"
         id="path17" />
    </clipPath>
    <clipPath
       clipPathUnits="userSpaceOnUse"
       id="clipPath18">
      <path
         d="m 51.36,679.9 h 270.19 v 13.56 H 51.36 Z"
         transform="matrix(1,0,0,-1,-188.78001,683.26001)"
         clip-rule="evenodd"
         id="path18" />
    </clipPath>
    <clipPath
       clipPathUnits="userSpaceOnUse"
       id="clipPath19">
      <path
         d="m 51.36,679.9 h 270.19 v 13.56 H 51.36 Z"
         transform="matrix(1,0,0,-1,-238.97001,683.26001)"
         clip-rule="evenodd"
         id="path19" />
    </clipPath>
    <clipPath
       clipPathUnits="userSpaceOnUse"
       id="clipPath20">
      <path
         d="m 51.36,665.38 h 270.19 v 13.56 H 51.36 Z"
         transform="matrix(1,0,0,-1,-52.800001,668.74001)"
         clip-rule="evenodd"
         id="path20" />
    </clipPath>
    <clipPath
       clipPathUnits="userSpaceOnUse"
       id="clipPath21">
      <path
         d="m 51.36,665.38 h 270.19 v 13.56 H 51.36 Z"
         transform="matrix(1,0,0,-1,-138.62001,668.74001)"
         clip-rule="evenodd"
         id="path21" />
    </clipPath>
    <clipPath
       clipPathUnits="userSpaceOnUse"
       id="clipPath22">
      <path
         d="m 51.36,665.38 h 270.19 v 13.56 H 51.36 Z"
         transform="matrix(1,0,0,-1,-188.78001,668.74001)"
         clip-rule="evenodd"
         id="path22" />
    </clipPath>
    <clipPath
       clipPathUnits="userSpaceOnUse"
       id="clipPath23">
      <path
         d="m 51.36,665.38 h 270.19 v 13.56 H 51.36 Z"
         transform="matrix(1,0,0,-1,-238.97001,668.74001)"
         clip-rule="evenodd"
         id="path23" />
    </clipPath>
    <clipPath
       clipPathUnits="userSpaceOnUse"
       id="clipPath24">
      <path
         d="m 51.36,650.86 h 270.19 v 13.56 H 51.36 Z"
         transform="matrix(1,0,0,-1,-52.800001,654.22001)"
         clip-rule="evenodd"
         id="path24" />
    </clipPath>
    <clipPath
       clipPathUnits="userSpaceOnUse"
       id="clipPath25">
      <path
         d="m 51.36,650.86 h 270.19 v 13.56 H 51.36 Z"
         transform="matrix(1,0,0,-1,-138.62001,654.22001)"
         clip-rule="evenodd"
         id="path25" />
    </clipPath>
    <clipPath
       clipPathUnits="userSpaceOnUse"
       id="clipPath26">
      <path
         d="m 51.36,650.86 h 270.19 v 13.56 H 51.36 Z"
         transform="matrix(1,0,0,-1,-188.78001,654.22001)"
         clip-rule="evenodd"
         id="path26" />
    </clipPath>
    <clipPath
       clipPathUnits="userSpaceOnUse"
       id="clipPath27">
      <path
         d="m 51.36,650.86 h 270.19 v 13.56 H 51.36 Z"
         transform="matrix(1,0,0,-1,-238.97001,654.22001)"
         clip-rule="evenodd"
         id="path27" />
    </clipPath>
    <clipPath
       clipPathUnits="userSpaceOnUse"
       id="clipPath28">
      <path
         d="M 51.36,636.34 H 321.55 V 649.9 H 51.36 Z"
         transform="matrix(1,0,0,-1,-52.800001,639.70001)"
         clip-rule="evenodd"
         id="path28" />
    </clipPath>
    <clipPath
       clipPathUnits="userSpaceOnUse"
       id="clipPath29">
      <path
         d="M 51.36,636.34 H 321.55 V 649.9 H 51.36 Z"
         transform="matrix(1,0,0,-1,-138.62001,639.70001)"
         clip-rule="evenodd"
         id="path29" />
    </clipPath>
    <clipPath
       clipPathUnits="userSpaceOnUse"
       id="clipPath30">
      <path
         d="M 51.36,636.34 H 321.55 V 649.9 H 51.36 Z"
         transform="matrix(1,0,0,-1,-188.78001,639.70001)"
         clip-rule="evenodd"
         id="path30" />
    </clipPath>
    <clipPath
       clipPathUnits="userSpaceOnUse"
       id="clipPath31">
      <path
         d="M 51.36,636.34 H 321.55 V 649.9 H 51.36 Z"
         transform="matrix(1,0,0,-1,-238.97001,639.70001)"
         clip-rule="evenodd"
         id="path31" />
    </clipPath>
    <clipPath
       clipPathUnits="userSpaceOnUse"
       id="clipPath32">
      <path
         d="m 51.36,621.82 h 270.19 v 13.56 H 51.36 Z"
         transform="matrix(1,0,0,-1,-52.800001,625.18001)"
         clip-rule="evenodd"
         id="path32" />
    </clipPath>
    <clipPath
       clipPathUnits="userSpaceOnUse"
       id="clipPath33">
      <path
         d="m 51.36,621.82 h 270.19 v 13.56 H 51.36 Z"
         transform="matrix(1,0,0,-1,-138.62001,625.18001)"
         clip-rule="evenodd"
         id="path33" />
    </clipPath>
    <clipPath
       clipPathUnits="userSpaceOnUse"
       id="clipPath34">
      <path
         d="m 51.36,621.82 h 270.19 v 13.56 H 51.36 Z"
         transform="matrix(1,0,0,-1,-188.78001,625.18001)"
         clip-rule="evenodd"
         id="path34" />
    </clipPath>
    <clipPath
       clipPathUnits="userSpaceOnUse"
       id="clipPath35">
      <path
         d="m 51.36,621.82 h 270.19 v 13.56 H 51.36 Z"
         transform="matrix(1,0,0,-1,-238.97001,625.18001)"
         clip-rule="evenodd"
         id="path35" />
    </clipPath>
    <clipPath
       clipPathUnits="userSpaceOnUse"
       id="clipPath36">
      <path
         d="m 51.36,607.3 h 270.19 v 13.56 H 51.36 Z"
         transform="matrix(1,0,0,-1,-52.800001,610.66001)"
         clip-rule="evenodd"
         id="path36" />
    </clipPath>
    <clipPath
       clipPathUnits="userSpaceOnUse"
       id="clipPath37">
      <path
         d="m 51.36,607.3 h 270.19 v 13.56 H 51.36 Z"
         transform="matrix(1,0,0,-1,-138.62001,610.66001)"
         clip-rule="evenodd"
         id="path37" />
    </clipPath>
    <clipPath
       clipPathUnits="userSpaceOnUse"
       id="clipPath38">
      <path
         d="m 51.36,607.3 h 270.19 v 13.56 H 51.36 Z"
         transform="matrix(1,0,0,-1,-188.78001,610.66001)"
         clip-rule="evenodd"
         id="path38" />
    </clipPath>
    <clipPath
       clipPathUnits="userSpaceOnUse"
       id="clipPath39">
      <path
         d="m 51.36,607.3 h 270.19 v 13.56 H 51.36 Z"
         transform="matrix(1,0,0,-1,-238.97001,610.66001)"
         clip-rule="evenodd"
         id="path39" />
    </clipPath>
    <clipPath
       clipPathUnits="userSpaceOnUse"
       id="clipPath40">
      <path
         d="m 51.36,549.22 h 270.19 v 13.56 H 51.36 Z"
         transform="matrix(1,0,0,-1,-52.800001,552.58001)"
         clip-rule="evenodd"
         id="path40" />
    </clipPath>
    <clipPath
       clipPathUnits="userSpaceOnUse"
       id="clipPath41">
      <path
         d="m 51.36,549.22 h 270.19 v 13.56 H 51.36 Z"
         transform="matrix(1,0,0,-1,-138.62001,552.58001)"
         clip-rule="evenodd"
         id="path41" />
    </clipPath>
    <clipPath
       clipPathUnits="userSpaceOnUse"
       id="clipPath42">
      <path
         d="m 51.36,549.22 h 270.19 v 13.56 H 51.36 Z"
         transform="matrix(1,0,0,-1,-188.78001,552.58001)"
         clip-rule="evenodd"
         id="path42" />
    </clipPath>
    <clipPath
       clipPathUnits="userSpaceOnUse"
       id="clipPath43">
      <path
         d="m 51.36,549.22 h 270.19 v 13.56 H 51.36 Z"
         transform="matrix(1,0,0,-1,-238.97001,552.58001)"
         clip-rule="evenodd"
         id="path43" />
    </clipPath>
    <clipPath
       clipPathUnits="userSpaceOnUse"
       id="clipPath44">
      <path
         d="m 51.36,534.67 h 270.19 v 13.584 H 51.36 Z"
         transform="matrix(1,0,0,-1,-52.800001,538.03001)"
         clip-rule="evenodd"
         id="path44" />
    </clipPath>
    <clipPath
       clipPathUnits="userSpaceOnUse"
       id="clipPath45">
      <path
         d="m 51.36,534.67 h 270.19 v 13.584 H 51.36 Z"
         transform="matrix(1,0,0,-1,-138.62001,538.03001)"
         clip-rule="evenodd"
         id="path45" />
    </clipPath>
    <clipPath
       clipPathUnits="userSpaceOnUse"
       id="clipPath46">
      <path
         d="m 51.36,534.67 h 270.19 v 13.584 H 51.36 Z"
         transform="matrix(1,0,0,-1,-188.78001,538.03001)"
         clip-rule="evenodd"
         id="path46" />
    </clipPath>
    <clipPath
       clipPathUnits="userSpaceOnUse"
       id="clipPath47">
      <path
         d="m 51.36,534.67 h 270.19 v 13.584 H 51.36 Z"
         transform="matrix(1,0,0,-1,-238.97001,538.03001)"
         clip-rule="evenodd"
         id="path47" />
    </clipPath>
  </defs>
  <g
     id="g1"
     transform="translate(-67.186668,-71.986694)">
    <g
       id="g2">
      <path
         id="path2"
         d="M 50.88,534.07 H 321.19 V 737.52 H 50.88 Z"
         style="fill:#ffffff;fill-opacity:1;fill-rule:evenodd;stroke:none"
         transform="matrix(1.3333333,0,0,-1.3333333,0,1056)"
         clip-path="url(#clipPath3)" />
    </g>
    <g
       id="g3">
      <text
         id="text3"
         xml:space="preserve"
         transform="matrix(1.3333333,0,0,1.3333333,70.4,86.88)"
         clip-path="url(#clipPath4)"><tspan
           style="font-variant:normal;font-weight:700;font-size:11.04px;font-family:Calibri;writing-mode:lr-tb;fill:#000000;fill-opacity:1;fill-rule:nonzero;stroke:none"
           x="0 9.6048002 16.670401 22.179359 29.145599 31.64064 37.52496 43.409279 48.807838 54.692162 60.576481 66.096481"
           y="0"
           id="tspan3">MGTH Channel</tspan></text>
    </g>
    <g
       id="g4">
      <text
         id="text4"
         xml:space="preserve"
         transform="matrix(1.3333333,0,0,1.3333333,184.82667,86.88)"
         clip-path="url(#clipPath5)"><tspan
           style="font-variant:normal;font-weight:700;font-size:11.04px;font-family:Calibri;writing-mode:lr-tb;fill:#000000;fill-opacity:1;fill-rule:nonzero;stroke:none"
           x="0 5.8843198 9.7152004 12.4752 15.22416 20.72208 26.17584 32.027039 37.094398 41.731201 46.99728 50.9496 53.444641 59.373119 62.088959"
           y="0"
           id="tspan4">util_adxcvr pin</tspan></text>
    </g>
    <g
       id="g5">
      <text
         id="text5"
         xml:space="preserve"
         transform="matrix(1.3333333,0,0,1.3333333,251.70667,86.88)"
         clip-path="url(#clipPath6)"><tspan
           style="font-variant:normal;font-weight:700;font-size:11.04px;font-family:Calibri;writing-mode:lr-tb;fill:#000000;fill-opacity:1;fill-rule:nonzero;stroke:none"
           x="0 5.0673599 10.94064 17.97312 24.70752 30.205441 36.07872 39.09264"
           y="0"
           id="tspan5">FPGA_PIN</tspan></text>
    </g>
    <g
       id="g6">
      <text
         id="text6"
         xml:space="preserve"
         transform="matrix(1.3333333,0,0,1.3333333,318.62667,86.88)"
         clip-path="url(#clipPath7)"><tspan
           style="font-variant:normal;font-weight:700;font-size:11.04px;font-family:Calibri;writing-mode:lr-tb;fill:#000000;fill-opacity:1;fill-rule:nonzero;stroke:none"
           x="0 5.5089598 11.39328 17.277599 19.77264 22.54368 28.063681 33.329762 38.849758 41.598721 44.093761 50.02224 55.87344 59.82576"
           y="0"
           id="tspan6">Top level port</tspan></text>
    </g>
    <g
       id="g7">
      <text
         id="text7"
         xml:space="preserve"
         transform="matrix(1.3333333,0,0,1.3333333,70.4,106.26667)"
         clip-path="url(#clipPath8)"><tspan
           style="font-variant:normal;font-weight:normal;font-size:11.04px;font-family:Calibri;writing-mode:lr-tb;fill:#000000;fill-opacity:1;fill-rule:nonzero;stroke:none"
           x="0 9.4723196 16.43856 21.815041 28.692961 34.069439 39.799198 45.58416 51.214561 56.712479 62.36496 67.995361"
           y="0"
           id="tspan7">MGTHTXP3_224</tspan></text>
    </g>
    <g
       id="g8">
      <text
         id="text8"
         xml:space="preserve"
         transform="matrix(1.3333333,0,0,1.3333333,184.82667,106.26667)"
         clip-path="url(#clipPath9)"><tspan
           style="font-variant:normal;font-weight:normal;font-size:11.04px;font-family:Calibri;writing-mode:lr-tb;fill:#000000;fill-opacity:1;fill-rule:nonzero;stroke:none"
           x="0 3.6984 8.5118399 14.00976 19.662239 25.16016"
           y="0"
           id="tspan8">tx_0_p</tspan></text>
    </g>
    <g
       id="g9">
      <text
         id="text9"
         xml:space="preserve"
         transform="matrix(1.3333333,0,0,1.3333333,251.70667,106.26667)"
         clip-path="url(#clipPath10)"><tspan
           style="font-variant:normal;font-weight:normal;font-size:11.04px;font-family:Calibri;writing-mode:lr-tb;fill:#000000;fill-opacity:1;fill-rule:nonzero;stroke:none"
           x="0 5.7600002"
           y="0"
           id="tspan9">K6</tspan></text>
    </g>
    <g
       id="g10">
      <text
         id="text10"
         xml:space="preserve"
         transform="matrix(1.3333333,0,0,1.3333333,318.62667,106.26667)"
         clip-path="url(#clipPath11)"><tspan
           style="font-variant:normal;font-weight:normal;font-size:11.04px;font-family:Calibri;writing-mode:lr-tb;fill:#000000;fill-opacity:1;fill-rule:nonzero;stroke:none"
           x="0 3.6984 8.5118399 14.00976 19.805759 25.09392 28.79232 34.080479 39.5784 45.374401 48.708481 54.338879"
           y="0"
           id="tspan10">tx_data_p[0]</tspan></text>
    </g>
    <g
       id="g11">
      <text
         id="text11"
         xml:space="preserve"
         transform="matrix(1.3333333,0,0,1.3333333,70.4,125.62667)"
         clip-path="url(#clipPath12)"><tspan
           style="font-variant:normal;font-weight:normal;font-size:11.04px;font-family:Calibri;writing-mode:lr-tb;fill:#000000;fill-opacity:1;fill-rule:nonzero;stroke:none"
           x="0 9.4723196 16.43856 21.815041 28.692961 34.069439 39.799198 45.58416 51.214561 56.712479 62.36496 67.995361"
           y="0"
           id="tspan11">MGTHTXP2_224</tspan></text>
    </g>
    <g
       id="g12">
      <text
         id="text12"
         xml:space="preserve"
         transform="matrix(1.3333333,0,0,1.3333333,184.82667,125.62667)"
         clip-path="url(#clipPath13)"><tspan
           style="font-variant:normal;font-weight:normal;font-size:11.04px;font-family:Calibri;writing-mode:lr-tb;fill:#000000;fill-opacity:1;fill-rule:nonzero;stroke:none"
           x="0 3.6984 8.5118399 14.00976 19.662239 25.16016"
           y="0"
           id="tspan12">tx_1_p</tspan></text>
    </g>
    <g
       id="g13">
      <text
         id="text13"
         xml:space="preserve"
         transform="matrix(1.3333333,0,0,1.3333333,251.70667,125.62667)"
         clip-path="url(#clipPath14)"><tspan
           style="font-variant:normal;font-weight:normal;font-size:11.04px;font-family:Calibri;writing-mode:lr-tb;fill:#000000;fill-opacity:1;fill-rule:nonzero;stroke:none"
           x="0 4.6799998"
           y="0"
           id="tspan13">L4</tspan></text>
    </g>
    <g
       id="g14">
      <text
         id="text14"
         xml:space="preserve"
         transform="matrix(1.3333333,0,0,1.3333333,318.62667,125.62667)"
         clip-path="url(#clipPath15)"><tspan
           style="font-variant:normal;font-weight:normal;font-size:11.04px;font-family:Calibri;writing-mode:lr-tb;fill:#000000;fill-opacity:1;fill-rule:nonzero;stroke:none"
           x="0 3.6984 8.5118399 14.00976 19.805759 25.09392 28.79232 34.080479 39.5784 45.374401 48.708481 54.338879"
           y="0"
           id="tspan14">tx_data_p[1]</tspan></text>
    </g>
    <g
       id="g15">
      <text
         id="text15"
         xml:space="preserve"
         transform="matrix(1.3333333,0,0,1.3333333,70.4,144.98667)"
         clip-path="url(#clipPath16)"><tspan
           style="font-variant:normal;font-weight:normal;font-size:11.04px;font-family:Calibri;writing-mode:lr-tb;fill:#000000;fill-opacity:1;fill-rule:nonzero;stroke:none"
           x="0 9.4723196 16.43856 21.815041 28.692961 34.069439 39.799198 45.58416 51.214561 56.712479 62.36496 67.995361"
           y="0"
           id="tspan15">MGTHTXP1_224</tspan></text>
    </g>
    <g
       id="g16">
      <text
         id="text16"
         xml:space="preserve"
         transform="matrix(1.3333333,0,0,1.3333333,184.82667,144.98667)"
         clip-path="url(#clipPath17)"><tspan
           style="font-variant:normal;font-weight:normal;font-size:11.04px;font-family:Calibri;writing-mode:lr-tb;fill:#000000;fill-opacity:1;fill-rule:nonzero;stroke:none"
           x="0 3.6984 8.5118399 14.00976 19.662239 25.16016"
           y="0"
           id="tspan16">tx_2_p</tspan></text>
    </g>
    <g
       id="g17">
      <text
         id="text17"
         xml:space="preserve"
         transform="matrix(1.3333333,0,0,1.3333333,251.70667,144.98667)"
         clip-path="url(#clipPath18)"><tspan
           style="font-variant:normal;font-weight:normal;font-size:11.04px;font-family:Calibri;writing-mode:lr-tb;fill:#000000;fill-opacity:1;fill-rule:nonzero;stroke:none"
           x="0 9.4799995"
           y="0"
           id="tspan17">M6</tspan></text>
    </g>
    <g
       id="g18">
      <text
         id="text18"
         xml:space="preserve"
         transform="matrix(1.3333333,0,0,1.3333333,318.62667,144.98667)"
         clip-path="url(#clipPath19)"><tspan
           style="font-variant:normal;font-weight:normal;font-size:11.04px;font-family:Calibri;writing-mode:lr-tb;fill:#000000;fill-opacity:1;fill-rule:nonzero;stroke:none"
           x="0 3.6984 8.5118399 14.00976 19.805759 25.09392 28.79232 34.080479 39.5784 45.374401 48.708481 54.338879"
           y="0"
           id="tspan18">tx_data_p[2]</tspan></text>
    </g>
    <g
       id="g19">
      <text
         id="text19"
         xml:space="preserve"
         transform="matrix(1.3333333,0,0,1.3333333,70.4,164.34667)"
         clip-path="url(#clipPath20)"><tspan
           style="font-variant:normal;font-weight:normal;font-size:11.04px;font-family:Calibri;writing-mode:lr-tb;fill:#000000;fill-opacity:1;fill-rule:nonzero;stroke:none"
           x="0 9.4723196 16.43856 21.815041 28.692961 34.069439 39.799198 45.58416 51.214561 56.712479 62.36496 67.995361"
           y="0"
           id="tspan19">MGTHTXP0_224</tspan></text>
    </g>
    <g
       id="g20">
      <text
         id="text20"
         xml:space="preserve"
         transform="matrix(1.3333333,0,0,1.3333333,184.82667,164.34667)"
         clip-path="url(#clipPath21)"><tspan
           style="font-variant:normal;font-weight:normal;font-size:11.04px;font-family:Calibri;writing-mode:lr-tb;fill:#000000;fill-opacity:1;fill-rule:nonzero;stroke:none"
           x="0 3.6984 8.5118399 14.00976 19.662239 25.16016"
           y="0"
           id="tspan20">tx_3_p</tspan></text>
    </g>
    <g
       id="g21">
      <text
         id="text21"
         xml:space="preserve"
         transform="matrix(1.3333333,0,0,1.3333333,251.70667,164.34667)"
         clip-path="url(#clipPath22)"><tspan
           style="font-variant:normal;font-weight:normal;font-size:11.04px;font-family:Calibri;writing-mode:lr-tb;fill:#000000;fill-opacity:1;fill-rule:nonzero;stroke:none"
           x="0 5.7599802"
           y="0"
           id="tspan21">P6</tspan></text>
    </g>
    <g
       id="g22">
      <text
         id="text22"
         xml:space="preserve"
         transform="matrix(1.3333333,0,0,1.3333333,318.62667,164.34667)"
         clip-path="url(#clipPath23)"><tspan
           style="font-variant:normal;font-weight:normal;font-size:11.04px;font-family:Calibri;writing-mode:lr-tb;fill:#000000;fill-opacity:1;fill-rule:nonzero;stroke:none"
           x="0 3.6984 8.5118399 14.00976 19.805759 25.09392 28.79232 34.080479 39.5784 45.374401 48.708481 54.338879"
           y="0"
           id="tspan22">tx_data_p[3]</tspan></text>
    </g>
    <g
       id="g23">
      <text
         id="text23"
         xml:space="preserve"
         transform="matrix(1.3333333,0,0,1.3333333,70.4,183.70667)"
         clip-path="url(#clipPath24)"><tspan
           style="font-variant:normal;font-weight:normal;font-size:11.04px;font-family:Calibri;writing-mode:lr-tb;fill:#000000;fill-opacity:1;fill-rule:nonzero;stroke:none"
           x="0 9.4723196 16.43856 21.815041 28.692961 34.069439 39.799198 45.58416 51.214561 56.712479 62.36496 67.995361"
           y="0"
           id="tspan23">MGTHTXP3_225</tspan></text>
    </g>
    <g
       id="g24">
      <text
         id="text24"
         xml:space="preserve"
         transform="matrix(1.3333333,0,0,1.3333333,184.82667,183.70667)"
         clip-path="url(#clipPath25)"><tspan
           style="font-variant:normal;font-weight:normal;font-size:11.04px;font-family:Calibri;writing-mode:lr-tb;fill:#000000;fill-opacity:1;fill-rule:nonzero;stroke:none"
           x="0 3.6984 8.5118399 14.00976 19.662239 25.16016"
           y="0"
           id="tspan24">tx_4_p</tspan></text>
    </g>
    <g
       id="g25">
      <text
         id="text25"
         xml:space="preserve"
         transform="matrix(1.3333333,0,0,1.3333333,251.70667,183.70667)"
         clip-path="url(#clipPath26)"><tspan
           style="font-variant:normal;font-weight:normal;font-size:11.04px;font-family:Calibri;writing-mode:lr-tb;fill:#000000;fill-opacity:1;fill-rule:nonzero;stroke:none"
           x="0 5.4000201"
           y="0"
           id="tspan25">E8</tspan></text>
    </g>
    <g
       id="g26">
      <text
         id="text26"
         xml:space="preserve"
         transform="matrix(1.3333333,0,0,1.3333333,318.62667,183.70667)"
         clip-path="url(#clipPath27)"><tspan
           style="font-variant:normal;font-weight:normal;font-size:11.04px;font-family:Calibri;writing-mode:lr-tb;fill:#000000;fill-opacity:1;fill-rule:nonzero;stroke:none"
           x="0 3.6984 8.5118399 14.00976 19.805759 25.09392 28.79232 34.080479 39.5784 45.374401 48.708481 54.338879"
           y="0"
           id="tspan26">tx_data_p[4]</tspan></text>
    </g>
    <g
       id="g27">
      <text
         id="text27"
         xml:space="preserve"
         transform="matrix(1.3333333,0,0,1.3333333,70.4,203.06667)"
         clip-path="url(#clipPath28)"><tspan
           style="font-variant:normal;font-weight:normal;font-size:11.04px;font-family:Calibri;writing-mode:lr-tb;fill:#000000;fill-opacity:1;fill-rule:nonzero;stroke:none"
           x="0 9.4723196 16.43856 21.815041 28.692961 34.069439 39.799198 45.58416 51.214561 56.712479 62.36496 67.995361"
           y="0"
           id="tspan27">MGTHTXP2_225</tspan></text>
    </g>
    <g
       id="g28">
      <text
         id="text28"
         xml:space="preserve"
         transform="matrix(1.3333333,0,0,1.3333333,184.82667,203.06667)"
         clip-path="url(#clipPath29)"><tspan
           style="font-variant:normal;font-weight:normal;font-size:11.04px;font-family:Calibri;writing-mode:lr-tb;fill:#000000;fill-opacity:1;fill-rule:nonzero;stroke:none"
           x="0 3.6984 8.5118399 14.00976 19.662239 25.16016"
           y="0"
           id="tspan28">tx_5_p</tspan></text>
    </g>
    <g
       id="g29">
      <text
         id="text29"
         xml:space="preserve"
         transform="matrix(1.3333333,0,0,1.3333333,251.70667,203.06667)"
         clip-path="url(#clipPath30)"><tspan
           style="font-variant:normal;font-weight:normal;font-size:11.04px;font-family:Calibri;writing-mode:lr-tb;fill:#000000;fill-opacity:1;fill-rule:nonzero;stroke:none"
           x="0 5.0399599"
           y="0"
           id="tspan29">F6</tspan></text>
    </g>
    <g
       id="g30">
      <text
         id="text30"
         xml:space="preserve"
         transform="matrix(1.3333333,0,0,1.3333333,318.62667,203.06667)"
         clip-path="url(#clipPath31)"><tspan
           style="font-variant:normal;font-weight:normal;font-size:11.04px;font-family:Calibri;writing-mode:lr-tb;fill:#000000;fill-opacity:1;fill-rule:nonzero;stroke:none"
           x="0 3.6984 8.5118399 14.00976 19.805759 25.09392 28.79232 34.080479 39.5784 45.374401 48.708481 54.338879"
           y="0"
           id="tspan30">tx_data_p[5]</tspan></text>
    </g>
    <g
       id="g31">
      <text
         id="text31"
         xml:space="preserve"
         transform="matrix(1.3333333,0,0,1.3333333,70.4,222.42667)"
         clip-path="url(#clipPath32)"><tspan
           style="font-variant:normal;font-weight:normal;font-size:11.04px;font-family:Calibri;writing-mode:lr-tb;fill:#000000;fill-opacity:1;fill-rule:nonzero;stroke:none"
           x="0 9.4723196 16.43856 21.815041 28.692961 34.069439 39.799198 45.58416 51.214561 56.712479 62.36496 67.995361"
           y="0"
           id="tspan31">MGTHTXP1_225</tspan></text>
    </g>
    <g
       id="g32">
      <text
         id="text32"
         xml:space="preserve"
         transform="matrix(1.3333333,0,0,1.3333333,184.82667,222.42667)"
         clip-path="url(#clipPath33)"><tspan
           style="font-variant:normal;font-weight:normal;font-size:11.04px;font-family:Calibri;writing-mode:lr-tb;fill:#000000;fill-opacity:1;fill-rule:nonzero;stroke:none"
           x="0 3.6984 8.5118399 14.00976 19.662239 25.16016"
           y="0"
           id="tspan32">tx_6_p</tspan></text>
    </g>
    <g
       id="g33">
      <text
         id="text33"
         xml:space="preserve"
         transform="matrix(1.3333333,0,0,1.3333333,251.70667,222.42667)"
         clip-path="url(#clipPath34)"><tspan
           style="font-variant:normal;font-weight:normal;font-size:11.04px;font-family:Calibri;writing-mode:lr-tb;fill:#000000;fill-opacity:1;fill-rule:nonzero;stroke:none"
           x="0 6.96"
           y="0"
           id="tspan33">G8</tspan></text>
    </g>
    <g
       id="g34">
      <text
         id="text34"
         xml:space="preserve"
         transform="matrix(1.3333333,0,0,1.3333333,318.62667,222.42667)"
         clip-path="url(#clipPath35)"><tspan
           style="font-variant:normal;font-weight:normal;font-size:11.04px;font-family:Calibri;writing-mode:lr-tb;fill:#000000;fill-opacity:1;fill-rule:nonzero;stroke:none"
           x="0 3.6984 8.5118399 14.00976 19.805759 25.09392 28.79232 34.080479 39.5784 45.374401 48.708481 54.338879"
           y="0"
           id="tspan34">tx_data_p[6]</tspan></text>
    </g>
    <g
       id="g35">
      <text
         id="text35"
         xml:space="preserve"
         transform="matrix(1.3333333,0,0,1.3333333,70.4,241.78667)"
         clip-path="url(#clipPath36)"><tspan
           style="font-variant:normal;font-weight:normal;font-size:11.04px;font-family:Calibri;writing-mode:lr-tb;fill:#000000;fill-opacity:1;fill-rule:nonzero;stroke:none"
           x="0 9.4723196 16.43856 21.815041 28.692961 34.069439 39.799198 45.58416 51.214561 56.712479 62.36496 67.995361"
           y="0"
           id="tspan35">MGTHTXP0_225</tspan></text>
    </g>
    <g
       id="g36">
      <text
         id="text36"
         xml:space="preserve"
         transform="matrix(1.3333333,0,0,1.3333333,184.82667,241.78667)"
         clip-path="url(#clipPath37)"><tspan
           style="font-variant:normal;font-weight:normal;font-size:11.04px;font-family:Calibri;writing-mode:lr-tb;fill:#000000;fill-opacity:1;fill-rule:nonzero;stroke:none"
           x="0 3.6984 8.5118399 14.00976 19.662239 25.16016"
           y="0"
           id="tspan36">tx_7_p</tspan></text>
    </g>
    <g
       id="g37">
      <text
         id="text37"
         xml:space="preserve"
         transform="matrix(1.3333333,0,0,1.3333333,251.70667,241.78667)"
         clip-path="url(#clipPath38)"><tspan
           style="font-variant:normal;font-weight:normal;font-size:11.04px;font-family:Calibri;writing-mode:lr-tb;fill:#000000;fill-opacity:1;fill-rule:nonzero;stroke:none"
           x="0 6.8400202"
           y="0"
           id="tspan37">H6</tspan></text>
    </g>
    <g
       id="g38">
      <text
         id="text38"
         xml:space="preserve"
         transform="matrix(1.3333333,0,0,1.3333333,318.62667,241.78667)"
         clip-path="url(#clipPath39)"><tspan
           style="font-variant:normal;font-weight:normal;font-size:11.04px;font-family:Calibri;writing-mode:lr-tb;fill:#000000;fill-opacity:1;fill-rule:nonzero;stroke:none"
           x="0 3.6984 8.5118399 14.00976 19.805759 25.09392 28.79232 34.080479 39.5784 45.374401 48.708481 54.338879"
           y="0"
           id="tspan38">tx_data_p[7]</tspan></text>
    </g>
    <g
       id="g39">
      <text
         id="text39"
         xml:space="preserve"
         transform="matrix(1.3333333,0,0,1.3333333,70.4,319.22667)"
         clip-path="url(#clipPath40)"><tspan
           style="font-variant:normal;font-weight:normal;font-size:11.04px;font-family:Calibri;writing-mode:lr-tb;fill:#000000;fill-opacity:1;fill-rule:nonzero;stroke:none"
           x="0 9.4723196 16.43856 21.815041 28.692961 34.687679 40.417439 46.180321 51.810719 57.30864 62.961121 68.591522"
           y="0"
           id="tspan39">MGTHRXP0_225</tspan></text>
    </g>
    <g
       id="g40">
      <text
         id="text40"
         xml:space="preserve"
         transform="matrix(1.3333333,0,0,1.3333333,184.82667,319.22667)"
         clip-path="url(#clipPath41)"><tspan
           style="font-variant:normal;font-weight:normal;font-size:11.04px;font-family:Calibri;writing-mode:lr-tb;fill:#000000;fill-opacity:1;fill-rule:nonzero;stroke:none"
           x="0 3.8529601 8.6332798 14.1312 19.78368 25.281601"
           y="0"
           id="tspan40">rx_0_p</tspan></text>
    </g>
    <g
       id="g41">
      <text
         id="text41"
         xml:space="preserve"
         transform="matrix(1.3333333,0,0,1.3333333,251.70667,319.22667)"
         clip-path="url(#clipPath42)"><tspan
           style="font-variant:normal;font-weight:normal;font-size:11.04px;font-family:Calibri;writing-mode:lr-tb;fill:#000000;fill-opacity:1;fill-rule:nonzero;stroke:none"
           x="0 6.8400202"
           y="0"
           id="tspan41">H2</tspan></text>
    </g>
    <g
       id="g42">
      <text
         id="text42"
         xml:space="preserve"
         transform="matrix(1.3333333,0,0,1.3333333,318.62667,319.22667)"
         clip-path="url(#clipPath43)"><tspan
           style="font-variant:normal;font-weight:normal;font-size:11.04px;font-family:Calibri;writing-mode:lr-tb;fill:#000000;fill-opacity:1;fill-rule:nonzero;stroke:none"
           x="0 3.8529601 8.6332798 14.1312 19.9272 25.215361 28.913759 34.20192 39.699841 45.495838 48.840961 54.471359"
           y="0"
           id="tspan42">rx_data_p[0]</tspan></text>
    </g>
    <g
       id="g43">
      <text
         id="text43"
         xml:space="preserve"
         transform="matrix(1.3333333,0,0,1.3333333,70.4,338.62667)"
         clip-path="url(#clipPath44)"><tspan
           style="font-variant:normal;font-weight:normal;font-size:11.04px;font-family:Calibri;writing-mode:lr-tb;fill:#000000;fill-opacity:1;fill-rule:nonzero;stroke:none"
           x="0 9.4723196 16.43856 21.815041 28.692961 34.687679 40.417439 46.180321 51.810719 57.30864 62.961121 68.591522"
           y="0"
           id="tspan43">MGTHRXP1_225</tspan></text>
    </g>
    <g
       id="g44">
      <text
         id="text44"
         xml:space="preserve"
         transform="matrix(1.3333333,0,0,1.3333333,184.82667,338.62667)"
         clip-path="url(#clipPath45)"><tspan
           style="font-variant:normal;font-weight:normal;font-size:11.04px;font-family:Calibri;writing-mode:lr-tb;fill:#000000;fill-opacity:1;fill-rule:nonzero;stroke:none"
           x="0 3.8529601 8.6332798 14.1312 19.78368 25.281601"
           y="0"
           id="tspan44">rx_1_p</tspan></text>
    </g>
    <g
       id="g45">
      <text
         id="text45"
         xml:space="preserve"
         transform="matrix(1.3333333,0,0,1.3333333,251.70667,338.62667)"
         clip-path="url(#clipPath46)"><tspan
           style="font-variant:normal;font-weight:normal;font-size:11.04px;font-family:Calibri;writing-mode:lr-tb;fill:#000000;fill-opacity:1;fill-rule:nonzero;stroke:none"
           x="0 6.96"
           y="0"
           id="tspan45">G4</tspan></text>
    </g>
    <g
       id="g46">
      <text
         id="text46"
         xml:space="preserve"
         transform="matrix(1.3333333,0,0,1.3333333,318.62667,338.62667)"
         clip-path="url(#clipPath47)"><tspan
           style="font-variant:normal;font-weight:normal;font-size:11.04px;font-family:Calibri;writing-mode:lr-tb;fill:#000000;fill-opacity:1;fill-rule:nonzero;stroke:none"
           x="0 3.8529601 8.6332798 14.1312 19.9272 25.215361 28.913759 34.20192 39.699841 45.495838 48.840961 54.471359"
           y="0"
           id="tspan46">rx_data_p[1]</tspan></text>
    </g>
    <g
       id="g47">
      <path
         id="path48"
         d="M 50.46,737.94 V 533.77"
         style="fill:none;stroke:#e7e6e6;stroke-width:0.14;stroke-linecap:square;stroke-linejoin:round;stroke-miterlimit:10;stroke-dasharray:none;stroke-opacity:1"
         transform="matrix(1.3333333,0,0,-1.3333333,0,1056)" />
      <path
         id="path49"
         d="m 50.4,533.71 h 0.96 V 738 H 50.4 Z"
         style="fill:#e7e6e6;fill-opacity:1;fill-rule:evenodd;stroke:none"
         transform="matrix(1.3333333,0,0,-1.3333333,0,1056)" />
      <path
         id="path50"
         d="M 136.28,736.98 V 533.77"
         style="fill:none;stroke:#e7e6e6;stroke-width:0.14;stroke-linecap:square;stroke-linejoin:round;stroke-miterlimit:10;stroke-dasharray:none;stroke-opacity:1"
         transform="matrix(1.3333333,0,0,-1.3333333,0,1056)" />
      <path
         id="path51"
         d="m 136.22,533.71 h 0.96001 V 737.04 H 136.22 Z"
         style="fill:#e7e6e6;fill-opacity:1;fill-rule:evenodd;stroke:none"
         transform="matrix(1.3333333,0,0,-1.3333333,0,1056)" />
      <path
         id="path52"
         d="M 186.44,736.98 V 533.77"
         style="fill:none;stroke:#e7e6e6;stroke-width:0.14;stroke-linecap:square;stroke-linejoin:round;stroke-miterlimit:10;stroke-dasharray:none;stroke-opacity:1"
         transform="matrix(1.3333333,0,0,-1.3333333,0,1056)" />
      <path
         id="path53"
         d="m 186.38,533.71 h 0.95999 V 737.04 H 186.38 Z"
         style="fill:#e7e6e6;fill-opacity:1;fill-rule:evenodd;stroke:none"
         transform="matrix(1.3333333,0,0,-1.3333333,0,1056)" />
      <path
         id="path54"
         d="M 236.63,736.98 V 533.77"
         style="fill:none;stroke:#e7e6e6;stroke-width:0.14;stroke-linecap:square;stroke-linejoin:round;stroke-miterlimit:10;stroke-dasharray:none;stroke-opacity:1"
         transform="matrix(1.3333333,0,0,-1.3333333,0,1056)" />
      <path
         id="path55"
         d="m 236.57,533.71 h 0.95999 V 737.04 H 236.57 Z"
         style="fill:#e7e6e6;fill-opacity:1;fill-rule:evenodd;stroke:none"
         transform="matrix(1.3333333,0,0,-1.3333333,0,1056)" />
      <path
         id="path56"
         d="M 320.65,736.98 V 533.77"
         style="fill:none;stroke:#e7e6e6;stroke-width:0.14;stroke-linecap:square;stroke-linejoin:round;stroke-miterlimit:10;stroke-dasharray:none;stroke-opacity:1"
         transform="matrix(1.3333333,0,0,-1.3333333,0,1056)" />
      <path
         id="path57"
         d="m 320.59,533.71 h 0.95999 V 737.04 H 320.59 Z"
         style="fill:#e7e6e6;fill-opacity:1;fill-rule:evenodd;stroke:none"
         transform="matrix(1.3333333,0,0,-1.3333333,0,1056)" />
      <path
         id="path58"
         d="M 51.42,737.94 H 321.49"
         style="fill:none;stroke:#e7e6e6;stroke-width:0.14;stroke-linecap:square;stroke-linejoin:round;stroke-miterlimit:10;stroke-dasharray:none;stroke-opacity:1"
         transform="matrix(1.3333333,0,0,-1.3333333,0,1056)" />
      <path
         id="path59"
         d="M 51.36,737.04 H 321.55 V 738 H 51.36 Z"
         style="fill:#e7e6e6;fill-opacity:1;fill-rule:evenodd;stroke:none"
         transform="matrix(1.3333333,0,0,-1.3333333,0,1056)" />
      <path
         id="path60"
         d="M 51.42,723.42 H 321.49"
         style="fill:none;stroke:#e7e6e6;stroke-width:0.14;stroke-linecap:square;stroke-linejoin:round;stroke-miterlimit:10;stroke-dasharray:none;stroke-opacity:1"
         transform="matrix(1.3333333,0,0,-1.3333333,0,1056)" />
      <path
         id="path61"
         d="m 51.36,722.52 h 270.19 v 0.96 H 51.36 Z"
         style="fill:#e7e6e6;fill-opacity:1;fill-rule:evenodd;stroke:none"
         transform="matrix(1.3333333,0,0,-1.3333333,0,1056)" />
      <path
         id="path62"
         d="M 51.42,708.88 H 321.49"
         style="fill:none;stroke:#e7e6e6;stroke-width:0.14;stroke-linecap:square;stroke-linejoin:round;stroke-miterlimit:10;stroke-dasharray:none;stroke-opacity:1"
         transform="matrix(1.3333333,0,0,-1.3333333,0,1056)" />
      <path
         id="path63"
         d="m 51.36,707.98 h 270.19 v 0.96 H 51.36 Z"
         style="fill:#e7e6e6;fill-opacity:1;fill-rule:evenodd;stroke:none"
         transform="matrix(1.3333333,0,0,-1.3333333,0,1056)" />
      <path
         id="path64"
         d="M 51.42,694.36 H 321.49"
         style="fill:none;stroke:#e7e6e6;stroke-width:0.14;stroke-linecap:square;stroke-linejoin:round;stroke-miterlimit:10;stroke-dasharray:none;stroke-opacity:1"
         transform="matrix(1.3333333,0,0,-1.3333333,0,1056)" />
      <path
         id="path65"
         d="m 51.36,693.46 h 270.19 v 0.96 H 51.36 Z"
         style="fill:#e7e6e6;fill-opacity:1;fill-rule:evenodd;stroke:none"
         transform="matrix(1.3333333,0,0,-1.3333333,0,1056)" />
      <path
         id="path66"
         d="M 51.42,679.84 H 321.49"
         style="fill:none;stroke:#e7e6e6;stroke-width:0.14;stroke-linecap:square;stroke-linejoin:round;stroke-miterlimit:10;stroke-dasharray:none;stroke-opacity:1"
         transform="matrix(1.3333333,0,0,-1.3333333,0,1056)" />
      <path
         id="path67"
         d="m 51.36,678.94 h 270.19 v 0.96 H 51.36 Z"
         style="fill:#e7e6e6;fill-opacity:1;fill-rule:evenodd;stroke:none"
         transform="matrix(1.3333333,0,0,-1.3333333,0,1056)" />
      <path
         id="path68"
         d="M 51.42,665.32 H 321.49"
         style="fill:none;stroke:#e7e6e6;stroke-width:0.14;stroke-linecap:square;stroke-linejoin:round;stroke-miterlimit:10;stroke-dasharray:none;stroke-opacity:1"
         transform="matrix(1.3333333,0,0,-1.3333333,0,1056)" />
      <path
         id="path69"
         d="m 51.36,664.42 h 270.19 v 0.96 H 51.36 Z"
         style="fill:#e7e6e6;fill-opacity:1;fill-rule:evenodd;stroke:none"
         transform="matrix(1.3333333,0,0,-1.3333333,0,1056)" />
      <path
         id="path70"
         d="M 51.42,650.8 H 321.49"
         style="fill:none;stroke:#e7e6e6;stroke-width:0.14;stroke-linecap:square;stroke-linejoin:round;stroke-miterlimit:10;stroke-dasharray:none;stroke-opacity:1"
         transform="matrix(1.3333333,0,0,-1.3333333,0,1056)" />
      <path
         id="path71"
         d="m 51.36,649.9 h 270.19 v 0.96001 H 51.36 Z"
         style="fill:#e7e6e6;fill-opacity:1;fill-rule:evenodd;stroke:none"
         transform="matrix(1.3333333,0,0,-1.3333333,0,1056)" />
      <path
         id="path72"
         d="M 51.42,636.28 H 321.49"
         style="fill:none;stroke:#e7e6e6;stroke-width:0.14;stroke-linecap:square;stroke-linejoin:round;stroke-miterlimit:10;stroke-dasharray:none;stroke-opacity:1"
         transform="matrix(1.3333333,0,0,-1.3333333,0,1056)" />
      <path
         id="path73"
         d="m 51.36,635.38 h 270.19 v 0.96001 H 51.36 Z"
         style="fill:#e7e6e6;fill-opacity:1;fill-rule:evenodd;stroke:none"
         transform="matrix(1.3333333,0,0,-1.3333333,0,1056)" />
      <path
         id="path74"
         d="M 51.42,621.76 H 321.49"
         style="fill:none;stroke:#e7e6e6;stroke-width:0.14;stroke-linecap:square;stroke-linejoin:round;stroke-miterlimit:10;stroke-dasharray:none;stroke-opacity:1"
         transform="matrix(1.3333333,0,0,-1.3333333,0,1056)" />
      <path
         id="path75"
         d="m 51.36,620.86 h 270.19 v 0.95999 H 51.36 Z"
         style="fill:#e7e6e6;fill-opacity:1;fill-rule:evenodd;stroke:none"
         transform="matrix(1.3333333,0,0,-1.3333333,0,1056)" />
      <path
         id="path76"
         d="M 51.42,607.24 H 321.49"
         style="fill:none;stroke:#e7e6e6;stroke-width:0.14;stroke-linecap:square;stroke-linejoin:round;stroke-miterlimit:10;stroke-dasharray:none;stroke-opacity:1"
         transform="matrix(1.3333333,0,0,-1.3333333,0,1056)" />
      <path
         id="path77"
         d="m 51.36,606.34 h 270.19 v 0.96001 H 51.36 Z"
         style="fill:#e7e6e6;fill-opacity:1;fill-rule:evenodd;stroke:none"
         transform="matrix(1.3333333,0,0,-1.3333333,0,1056)" />
      <path
         id="path78"
         d="M 51.42,592.72 H 321.49"
         style="fill:none;stroke:#e7e6e6;stroke-width:0.14;stroke-linecap:square;stroke-linejoin:round;stroke-miterlimit:10;stroke-dasharray:none;stroke-opacity:1"
         transform="matrix(1.3333333,0,0,-1.3333333,0,1056)" />
      <path
         id="path79"
         d="m 51.36,591.82 h 270.19 v 0.96001 H 51.36 Z"
         style="fill:#e7e6e6;fill-opacity:1;fill-rule:evenodd;stroke:none"
         transform="matrix(1.3333333,0,0,-1.3333333,0,1056)" />
      <path
         id="path80"
         d="M 51.42,578.2 H 321.49"
         style="fill:none;stroke:#e7e6e6;stroke-width:0.14;stroke-linecap:square;stroke-linejoin:round;stroke-miterlimit:10;stroke-dasharray:none;stroke-opacity:1"
         transform="matrix(1.3333333,0,0,-1.3333333,0,1056)" />
      <path
         id="path81"
         d="m 51.36,577.3 h 270.19 v 0.95999 H 51.36 Z"
         style="fill:#e7e6e6;fill-opacity:1;fill-rule:evenodd;stroke:none"
         transform="matrix(1.3333333,0,0,-1.3333333,0,1056)" />
      <path
         id="path82"
         d="M 51.42,563.68 H 321.49"
         style="fill:none;stroke:#e7e6e6;stroke-width:0.14;stroke-linecap:square;stroke-linejoin:round;stroke-miterlimit:10;stroke-dasharray:none;stroke-opacity:1"
         transform="matrix(1.3333333,0,0,-1.3333333,0,1056)" />
      <path
         id="path83"
         d="m 51.36,562.78 h 270.19 v 0.95999 H 51.36 Z"
         style="fill:#e7e6e6;fill-opacity:1;fill-rule:evenodd;stroke:none"
         transform="matrix(1.3333333,0,0,-1.3333333,0,1056)" />
      <path
         id="path84"
         d="M 51.42,549.16 H 321.49"
         style="fill:none;stroke:#e7e6e6;stroke-width:0.14;stroke-linecap:square;stroke-linejoin:round;stroke-miterlimit:10;stroke-dasharray:none;stroke-opacity:1"
         transform="matrix(1.3333333,0,0,-1.3333333,0,1056)" />
      <path
         id="path85"
         d="m 51.36,548.26 h 270.19 v 0.96001 H 51.36 Z"
         style="fill:#e7e6e6;fill-opacity:1;fill-rule:evenodd;stroke:none"
         transform="matrix(1.3333333,0,0,-1.3333333,0,1056)" />
      <path
         id="path86"
         d="M 51.42,534.61 H 321.49"
         style="fill:none;stroke:#e7e6e6;stroke-width:0.14;stroke-linecap:square;stroke-linejoin:round;stroke-miterlimit:10;stroke-dasharray:none;stroke-opacity:1"
         transform="matrix(1.3333333,0,0,-1.3333333,0,1056)" />
      <path
         id="path87"
         d="m 51.36,533.71 h 270.19 v 0.95999 H 51.36 Z"
         style="fill:#e7e6e6;fill-opacity:1;fill-rule:evenodd;stroke:none"
         transform="matrix(1.3333333,0,0,-1.3333333,0,1056)" />
    </g>
  </g>
</svg>
