<?xml version="1.0" encoding="UTF-8"?>
<!-- Created with Inkscape (http://www.inkscape.org/) -->
<svg width="150" height="150" version="1.0" xmlns="http://www.w3.org/2000/svg" xmlns:cc="http://creativecommons.org/ns#" xmlns:dc="http://purl.org/dc/elements/1.1/" xmlns:rdf="http://www.w3.org/1999/02/22-rdf-syntax-ns#">
 <metadata>
  <rdf:RDF>
   <cc:Work rdf:about="">
    <dc:format>image/svg+xml</dc:format>
    <dc:type rdf:resource="http://purl.org/dc/dcmitype/StillImage"/>
   </cc:Work>
  </rdf:RDF>
 </metadata>
 <path d="m361.97 202.73s2.102-0.43832 2.6111 0.15433c0.50909 0.59265 0.0352 1.8263 0.0352 1.8263" fill="none" stroke="#000" stroke-linecap="round" stroke-width=".2"/>
 <g transform="translate(-87.5 -284.7)">
  <g font-family="sans-serif" text-anchor="middle">
   <text x="163.42709" y="365.07608" font-size="21.333px" text-align="center" style="line-height:1.25" xml:space="preserve"><tspan x="163.42709" y="365.07608" font-size="21.333px" font-weight="bold">ATTENTION</tspan></text>
   <text x="162.62502" y="381.61426" font-size="10.667px" font-weight="bold" text-align="center" style="line-height:1.25" xml:space="preserve"><tspan x="162.62502" y="381.61426">OBSERVE PRECAUTIONS</tspan><tspan x="162.62502" y="394.94763">FOR HANDLING</tspan></text>
   <text x="162.44531" y="411.09079" font-size="10.667px" text-align="center" style="line-height:1.25" xml:space="preserve"><tspan x="162.44531" y="411.09079">ELECTROSTATIC</tspan><tspan x="162.44531" y="424.42416">SENSITIVE DEVICES</tspan></text>
  </g>
  <g transform="translate(-337.5 129.7)">
   <path d="m500 160-13.889 15.432 7.4141 6.5918c0.73078-0.50761 0.9953-0.99749 1.5879-1.3672 1.7072-1.0651 3.6232-1.793 5.5488-2.377 2.3994-0.7276 4.9428-0.85316 7.3947-1.3772 1.9708-0.42125 4.085-0.41509 5.8768-1.4196zm-18.611 20.68-26.389 29.32h59.375l-10.07-8.9512c-1.653 1.5132-3.2983 2.9125-3.834 2.9746-1.0789 0.12523-2.7078-0.0334-3.2331 0.1268-0.52539 0.16016-1.5413 1.0551-2.1809 0.9689s-1.8852-1.2534-1.2148-2.9727c0.42241-1.0832 1.2663-1.7491 2.1504-2.1894-0.20247-1.1875-0.57197-3.0816-0.96289-3.6348-0.38595-0.54613-0.43621-2.5692-0.42969-3.9004l-0.0703-0.0625c-1.2956 1.2137-2.3319 2.219-2.3945 2.3848-0.18178 0.48147-0.28473 7.8228-0.29493 8.5566-0.0102 0.73387-1.0808 2.999-2.5684 3.1387s-1.3802-2.1275-1.3633-2.7617c0.0169-0.63426 0.52083-4.0581 0.13672-4.5879-0.38407-0.52981-0.45143-6.5066 0.075-7.0555 1.1942-1.2451 2.2314-1.832 3.2648-2.4699l-0.31641-0.28125c-2.3798 1.2266-4.5013 2.4087-4.8144 2.6406-0.6453 0.47803-0.47736 4.5172-0.53516 5.4199s-0.0319 1.6861-1.2051 3.168c-1.1732 1.4819-2.1251 0.2073-2.2891-0.0449-0.164-0.25221 0.0985-1.4502-0.0703-2.0879-0.16884-0.63771 0.035-7.4952 0.7832-8.7891 0.74819-1.2939 2.8815-2.1836 4.3223-3.0137 0.13783-0.0827 0.28483-0.18556 0.43359-0.29297zm40.678 3.8379c-0.87675 0.62504-1.8488 1.3532-2.334 1.8476-1.0051 1.0244-3.1543 6.3242-5.1894 7.4395-1.4284 0.78275-3.4185 1.7361-4.8633 2.5762l15.32 13.619h20zm-22.587 12.242-0.82468-0.45898s0.48921 0.92059 0.88086 1.6035c0.19546-0.1724 0.40325-0.37063 0.60546-0.55664z"/>
   <path d="m493.53 182.02c-1.0712 0.74404-2.2715 1.4492-2.2715 1.4492-0.75538 0.27614-2.3147 1.911-3.5606 2.8105l3.6914 3.2812 3.1445 2.7949c0.0271-0.0254 0.043-0.0409 0.0703-0.0664-2.9e-4 0.0385 1.9e-4 0.0891 0 0.12891l4.2969 3.8203 1.2441 1.1055 4.1641 3.7012c1.676-1.5342 3.3599-3.1856 3.9102-3.6797 0.32587-0.2926 0.85113-0.63146 1.4648-0.98828z"/>
   <g fill="none" stroke="#000" stroke-linecap="round" stroke-width=".2">
    <path d="m494.43 203.17s2.102-0.43832 2.6111 0.15433c0.50909 0.59265 0.0352 1.8263 0.0352 1.8263"/>
    <path d="m486.99 192.07s-1.2737 0.0561-1.754-0.67975"/>
    <path d="m492.77 194.78s-0.97405 0.1668-1.8738-0.85531"/>
   </g>
   <path d="m503.85 191.71 2.9923-0.92551s-0.17597 1.4467-1.8973 3.083c0 0 0.031-1.7799 0.27069-1.9768 0.0493-0.21954-1.3657-0.18075-1.3657-0.18075z"/>
  </g>
 </g>
</svg>
