<?xml version="1.0" encoding="UTF-8"?>
<!-- Created with Inkscape (http://www.inkscape.org/) -->
<svg width="169mm" height="45.108mm" version="1.1" viewBox="0 0 169 45.108" xmlns="http://www.w3.org/2000/svg" xmlns:cc="http://creativecommons.org/ns#" xmlns:dc="http://purl.org/dc/elements/1.1/" xmlns:rdf="http://www.w3.org/1999/02/22-rdf-syntax-ns#">
 <metadata>
  <rdf:RDF>
   <cc:Work rdf:about="">
    <dc:format>image/svg+xml</dc:format>
    <dc:type rdf:resource="http://purl.org/dc/dcmitype/StillImage"/>
   </cc:Work>
  </rdf:RDF>
 </metadata>
 <g transform="translate(139.68 -126.28)">
  <text x="-18.197515" y="161.04341" fill="#000000" font-family="sans-serif" font-size="4.4431px" letter-spacing="0px" stroke-width=".11108" text-align="center" text-anchor="middle" word-spacing="0px" style="line-height:1.25" xml:space="preserve"><tspan x="-18.01363" y="161.04341" font-family="Barlow" font-size="4.4431px" font-weight="bold" letter-spacing=".36777px" stroke-width=".11108" text-align="center" text-anchor="middle" style="font-feature-settings:normal;font-variant-caps:normal;font-variant-ligatures:normal;font-variant-numeric:normal">IP CORES &amp; REFERENCE DESIGNS</tspan></text>
  <g>
   <g transform="matrix(.20143 0 0 .20143 -112.78 170.13)" fill="#646464" stroke="#fff" stroke-width="3.9716">
    <rect x="295.42" y="-162.3" width="41.057" height="41.057"/>
    <g>
     <path d="m298.67-166.73v4.3944"/>
     <path d="m304.41-166.73v4.3944"/>
     <path d="m310.14-166.73v4.3944"/>
     <path d="m315.88-166.73v4.3944"/>
     <path d="m321.62-166.73v4.3944"/>
     <path d="m327.36-166.73v4.3944"/>
     <path d="m333.09-166.73v4.3944"/>
     <path d="m340.88-159.12h-4.3944"/>
     <path d="m340.88-153.42h-4.3944"/>
     <path d="m340.88-147.71h-4.3944"/>
     <path d="m340.88-142.01h-4.3944"/>
     <path d="m340.88-136.31h-4.3944"/>
     <path d="m340.88-130.6h-4.3944"/>
     <path d="m340.88-124.9h-4.3944"/>
     <path d="m291.13-159.19h4.3944"/>
     <path d="m291.13-153.48h4.3944"/>
     <path d="m291.13-147.78h4.3944"/>
     <path d="m291.13-142.08h4.3944"/>
     <path d="m291.13-136.37h4.3944"/>
     <path d="m291.13-130.67h4.3944"/>
     <path d="m291.13-124.97h4.3944"/>
     <path d="m298.75-116.8v-4.3944"/>
     <path d="m304.49-116.8v-4.3944"/>
     <path d="m310.22-116.8v-4.3944"/>
     <path d="m315.96-116.8v-4.3944"/>
     <path d="m321.7-116.8v-4.3944"/>
     <path d="m327.43-116.8v-4.3944"/>
     <path d="m333.17-116.8v-4.3944"/>
    </g>
   </g>
   <path d="m-55.531 153.05 0.02328-8.3344 0.02328-8.3344 14.412 8.3747-7.2294 4.147z" fill="#ff8d34"/>
   <path transform="matrix(.26458 0 0 .26458 -139.68 126.28)" d="m390.37 55.422-15.436 45.555h7.5l3.498-10.936h0.08594l1.9414-5.9688h-0.02735l6.2812-19.371 5.748 19.371h-4.7695l-1.9414 5.9688h8.4297l3.2812 10.936h7.5918l-14.529-45.555h-7.6543zm26.527 0v45.555h18.121c1.2706 0 2.4272-0.08336 3.4688-0.25 1.0623-0.18747 2.021-0.43755 2.875-0.75 0.87486-0.33328 1.6648-0.72924 2.373-1.1875 0.70822-0.47909 1.3647-1.0105 1.9688-1.5938 0.74988-0.70822 1.3751-1.6043 1.875-2.6875 0.52075-1.0832 0.92713-2.3837 1.2188-3.9043 0.31245-1.5414 0.53127-3.3337 0.65625-5.375 0.14581-2.0413 0.21875-4.3839 0.21875-7.0293s-0.07294-4.9899-0.21875-7.0312c-0.12498-2.0413-0.3438-3.8212-0.65625-5.3418-0.29162-1.5414-0.698-2.8439-1.2188-3.9062-0.49992-1.0832-1.1251-1.9897-1.875-2.7188-0.60407-0.58324-1.2605-1.1023-1.9688-1.5605s-1.4982-0.85422-2.373-1.1875c-0.85403-0.33328-1.8127-0.58336-2.875-0.75-1.0415-0.18747-2.1981-0.28125-3.4688-0.28125h-18.121zm40.742 0v45.555h7.0625v-45.555h-7.0625zm39.4 0v45.555h3.4375v-21.246h23.871v21.246h3.4668v-45.555h-3.4668v21.246h-23.871v-21.246h-3.4375zm40.244 0v45.555h16.871c1.2706 0 2.4273-0.08336 3.4688-0.25 1.0623-0.18747 2.021-0.43755 2.875-0.75 0.87485-0.33328 1.6648-0.72924 2.373-1.1875 0.70821-0.47909 1.3647-1.0105 1.9688-1.5938 0.74987-0.70822 1.3751-1.6043 1.875-2.6875 0.52074-1.0832 0.92713-2.3837 1.2188-3.9043 0.31244-1.5414 0.53127-3.3337 0.65625-5.375 0.14581-2.0413 0.21875-4.3839 0.21875-7.0293 0-2.6454-0.07294-4.9899-0.21875-7.0312-0.12498-2.0413-0.34381-3.8212-0.65625-5.3418-0.29162-1.5414-0.69801-2.8439-1.2188-3.9062-0.49992-1.0832-1.1251-1.9897-1.875-2.7188-0.60407-0.58324-1.2605-1.1023-1.9688-1.5605-0.70822-0.45826-1.4982-0.85422-2.373-1.1875-0.85402-0.33328-1.8127-0.58336-2.875-0.75-1.0415-0.18747-2.1981-0.28125-3.4688-0.28125h-16.871zm40.617 0v45.555h23.027v-3.0625h-19.59v-42.492h-3.4375zm-37.182 3.0625h13.623c0.81236 0 1.6147 0.062521 2.4062 0.1875s1.5209 0.30017 2.1875 0.5293c0.68739 0.22913 1.3022 0.51047 1.8438 0.84375 0.56241 0.33328 1.0189 0.7084 1.373 1.125 0.29161 0.35411 0.57296 0.73965 0.84375 1.1562 0.29161 0.4166 0.55212 0.91676 0.78125 1.5 0.24996 0.58324 0.46878 1.2814 0.65625 2.0938 0.2083 0.79154 0.37502 1.7606 0.5 2.9062 0.14581 1.1456 0.25001 2.4879 0.3125 4.0293 0.08332 1.5206 0.125 3.3024 0.125 5.3438 0 3.062-0.08336 5.5713-0.25 7.5293-0.16664 1.9372-0.39589 3.5315-0.6875 4.7812-0.29162 1.229-0.63549 2.198-1.0312 2.9062-0.37494 0.68738-0.79175 1.2898-1.25 1.8105-0.35411 0.4166-0.81064 0.79172-1.373 1.125-0.54158 0.33328-1.1564 0.61462-1.8438 0.84375-0.66656 0.22913-1.396 0.40627-2.1875 0.53125-0.79153 0.12498-1.5939 0.1875-2.4062 0.1875h-13.623v-39.43zm-116.79 2.873h11.217c1.4164 0 2.5626 0.19798 3.4375 0.59375 0.87486 0.37494 1.5834 0.94804 2.125 1.7188 0.31245 0.4166 0.57295 0.91676 0.78125 1.5s0.38544 1.4064 0.53125 2.4688 0.25001 2.4358 0.3125 4.123 0.09375 3.8338 0.09375 6.4375c0 2.6037-0.03126 4.7483-0.09375 6.4355s-0.16669 3.0627-0.3125 4.125-0.32295 1.8855-0.53125 2.4688-0.4688 1.0834-0.78125 1.5c-0.54158 0.77071-1.2501 1.3523-2.125 1.748-0.87486 0.37494-2.0211 0.5625-3.4375 0.5625h-11.217v-33.682zm48.367 21.496v3.1562h16.779v-3.1562h-16.779z"/>
   <g transform="matrix(.20143 0 0 .20143 -112.78 170.13)" fill="#646464" stroke="#000">
    <rect x="295.42" y="-162.3" width="41.057" height="41.057" stroke-width="1.895"/>
    <g stroke-width="1.6049">
     <path d="m298.67-166.73v4.3944"/>
     <path d="m304.41-166.73v4.3944"/>
     <path d="m310.14-166.73v4.3944"/>
     <path d="m315.88-166.73v4.3944"/>
     <path d="m321.62-166.73v4.3944"/>
     <path d="m327.36-166.73v4.3944"/>
     <path d="m333.09-166.73v4.3944"/>
     <path d="m340.88-159.12h-4.3944"/>
     <path d="m340.88-153.42h-4.3944"/>
     <path d="m340.88-147.71h-4.3944"/>
     <path d="m340.88-142.01h-4.3944"/>
     <path d="m340.88-136.31h-4.3944"/>
     <path d="m340.88-130.6h-4.3944"/>
     <path d="m340.88-124.9h-4.3944"/>
     <path d="m291.13-159.19h4.3944"/>
     <path d="m291.13-153.48h4.3944"/>
     <path d="m291.13-147.78h4.3944"/>
     <path d="m291.13-142.08h4.3944"/>
     <path d="m291.13-136.37h4.3944"/>
     <path d="m291.13-130.67h4.3944"/>
     <path d="m291.13-124.97h4.3944"/>
     <path d="m298.75-116.8v-4.3944"/>
     <path d="m304.49-116.8v-4.3944"/>
     <path d="m310.22-116.8v-4.3944"/>
     <path d="m315.96-116.8v-4.3944"/>
     <path d="m321.7-116.8v-4.3944"/>
     <path d="m327.43-116.8v-4.3944"/>
     <path d="m333.17-116.8v-4.3944"/>
    </g>
   </g>
   <text x="-51.989231" y="142.06863" fill="#ffffff" font-family="sans-serif" font-size="2.4206px" letter-spacing="0px" stroke-width=".060516" word-spacing="0px" style="line-height:1.25" xml:space="preserve"><tspan x="-51.989231" y="142.06863" fill="#ffffff" font-family="AzbukaW01-Medium" font-size="2.4206px" font-weight="500" letter-spacing="-.051893px" stroke-width=".060516" style="font-feature-settings:normal;font-variant-caps:normal;font-variant-ligatures:normal;font-variant-numeric:normal">FPGA</tspan></text>
  </g>
  <g transform="matrix(.035278 0 0 -.035278 -129.68 161.39)" fill="#231f20">
   <path d="m40.215 76.387-13.102-40.41h25.094zm22.422-75.605-6.8476 22.813h-32.844l-7.3008-22.813h-15.644l32.199 95.027h15.965l30.309-95.027h-15.836"/>
   <path d="m141.82 0.78125v41.258h-38.715v-41.258h-14.66v95.027h14.66v-41.387h38.715v41.387h14.664v-95.027h-14.664"/>
   <path d="m175.06 0.78125v95.027h57.679v-12.383h-43.015v-29.004h31.675v-12.383h-31.675v-28.875h43.015v-12.383h-57.679"/>
   <path d="m278.24 76.387-13.101-40.41h25.093zm22.422-75.605-6.847 22.813h-32.844l-7.301-22.813h-15.645l32.196 95.027h15.969l30.304-95.027h-15.832"/>
   <path d="m364.53 13.164c2.953 0 5.344 0.4023 7.168 1.207 1.825 0.8047 3.305 2.0078 4.434 3.6172 0.652 0.8672 1.195 1.9101 1.629 3.1289 0.433 1.2148 0.801 2.9336 1.109 5.1484 0.305 2.2149 0.52 5.086 0.649 8.6016 0.132 3.5195 0.195 7.9961 0.195 13.426 0 5.4336-0.063 9.9062-0.195 13.43-0.129 3.5156-0.344 6.3867-0.649 8.6015-0.308 2.2149-0.676 3.9336-1.109 5.1485-0.434 1.2148-0.977 2.2578-1.629 3.1289-1.129 1.6054-2.609 2.8125-4.434 3.6172-1.824 0.8046-4.215 1.207-7.168 1.207h-23.398v-70.262zm-38.062-12.383v95.027h37.805c2.644 0 5.07-0.1875 7.261-0.5547 2.196-0.3711 4.196-0.9023 5.996-1.5976 1.805-0.6954 3.446-1.5196 4.922-2.4766 1.477-0.957 2.848-2.043 4.11-3.2578 1.562-1.5235 2.875-3.4024 3.937-5.6367 1.067-2.2383 1.914-4.9571 2.547-8.1485 0.629-3.1953 1.082-6.9179 1.367-11.176 0.281-4.2617 0.426-9.1484 0.426-14.668 0-5.5157-0.145-10.406-0.426-14.664-0.285-4.2578-0.738-7.9805-1.367-11.176-0.633-3.1914-1.48-5.9218-2.547-8.1797-1.062-2.2578-2.375-4.1289-3.937-5.6054-1.262-1.2188-2.633-2.3125-4.11-3.2891-1.476-0.98047-3.117-1.8047-4.922-2.4805-1.8-0.67188-3.8-1.1953-5.996-1.5625-2.191-0.3711-4.617-0.55469-7.261-0.55469h-37.805"/>
   <path d="m497.94 18.512c0.656 0.8672 1.226 1.9219 1.73 3.1602 0.5 1.2383 0.898 2.9531 1.207 5.1484 0.301 2.1914 0.531 5.0078 0.684 8.4414 0.152 3.4297 0.226 7.7735 0.226 13.031s-0.074 9.6172-0.226 13.07c-0.153 3.4531-0.383 6.2656-0.684 8.4414-0.309 2.1719-0.707 3.875-1.207 5.1133-0.504 1.2383-1.074 2.2929-1.73 3.1601-1.52 2-3.625 3.5235-6.321 4.5625-2.695 1.043-6.363 1.5664-11.015 1.5664-4.696 0-8.375-0.5234-11.047-1.5664-2.668-1.039-4.77-2.5625-6.289-4.5625-0.653-0.8672-1.231-1.9218-1.727-3.1601-0.5-1.2383-0.914-2.9414-1.234-5.1133-0.328-2.1758-0.571-4.9883-0.719-8.4414-0.152-3.4531-0.231-7.8125-0.231-13.07s0.079-9.6016 0.231-13.031c0.148-3.4336 0.391-6.25 0.719-8.4414 0.32-2.1953 0.734-3.9101 1.234-5.1484 0.496-1.2383 1.074-2.293 1.727-3.1602 1.519-2 3.621-3.5234 6.289-4.5664 2.672-1.039 6.351-1.5625 11.047-1.5625 4.652 0 8.32 0.5235 11.015 1.5625 2.696 1.043 4.801 2.5664 6.321 4.5664zm10.824-9.8437c-1.305-1.3477-2.793-2.5547-4.469-3.6172-1.672-1.0664-3.629-1.9766-5.863-2.7383-2.239-0.75781-4.825-1.3359-7.754-1.7266-2.938-0.39062-6.289-0.58594-10.074-0.58594-3.825 0-7.188 0.19531-10.098 0.58594-2.914 0.39062-5.488 0.96875-7.727 1.7266-2.242 0.76172-4.191 1.6719-5.863 2.7383-1.676 1.0625-3.164 2.2695-4.469 3.6172-1.515 1.5195-2.793 3.4101-3.812 5.6718-1.02 2.2579-1.856 4.9844-2.512 8.1797-0.648 3.1914-1.117 6.9063-1.398 11.145-0.285 4.2343-0.422 9.1132-0.422 14.629 0 5.5195 0.137 10.398 0.422 14.633 0.281 4.2383 0.75 7.9531 1.398 11.144 0.656 3.1953 1.492 5.9219 2.512 8.1836 1.019 2.2578 2.297 4.1445 3.812 5.668 1.305 1.3437 2.793 2.5508 4.469 3.6172 1.672 1.0625 3.621 1.9648 5.863 2.7031 2.239 0.7383 4.813 1.3164 7.727 1.7266 2.91 0.414 6.273 0.621 10.098 0.621 3.785 0 7.136-0.207 10.074-0.621 2.929-0.4102 5.515-0.9883 7.754-1.7266 2.234-0.7383 4.191-1.6406 5.863-2.7031 1.676-1.0664 3.164-2.2735 4.469-3.6172 1.472-1.5235 2.73-3.4102 3.777-5.668 1.047-2.2617 1.891-4.9883 2.543-8.1836 0.648-3.1914 1.117-6.9062 1.402-11.144 0.278-4.2344 0.418-9.1133 0.418-14.633 0-5.5157-0.14-10.395-0.418-14.629-0.285-4.2383-0.754-7.9532-1.402-11.145-0.652-3.1953-1.496-5.9218-2.543-8.1797-1.047-2.2617-2.305-4.1523-3.777-5.6718"/>
   <path d="m534.24 0.78125v95.027h57.684v-12.383h-43.02v-29.004h31.676v-12.383h-31.676v-41.258h-14.664"/>
   <path d="m703.77 0.78125-16.164 56.051-16.942-56.051h-15.902l-24.57 95.027h15.503l17.207-74.887 17.926 57.289h14.274l16.55-56.441 18.122 74.039h15.511l-25.941-95.027h-15.574"/>
   <path d="m809.41 0.78125v41.258h-38.715v-41.258h-14.664v95.027h14.664v-41.387h38.715v41.387h14.664v-95.027h-14.664"/>
   <path d="m874.32 76.387-13.097-40.41h25.089zm22.422-75.605-6.844 22.813h-32.847l-7.297-22.813h-15.649l32.2 95.027h15.964l30.309-95.027h-15.836"/>
   <path d="m931.23 0.78125v82.645h-24.18v12.383h63.019v-12.383h-24.175v-82.645h-14.664"/>
   <path d="m978.55 70.848c1.433 0.0859 2.598 0.2812 3.484 0.582 0.891 0.3047 1.586 0.7734 2.086 1.4023 0.496 0.6328 0.832 1.4688 1.012 2.5118 0.176 1.0429 0.258 2.3437 0.258 3.9101v2.8008h-6.125v13.754h13.035v-15.055c0-2.6953-0.207-4.9453-0.617-6.7461-0.414-1.8047-1.09-3.293-2.024-4.4648-0.933-1.1758-2.152-2.1094-3.648-2.8047-1.5-0.6914-3.356-1.2383-5.574-1.6289l-1.887 5.7383"/>
   <path d="m1053.8 72.477c-0.08 1.2578-0.31 2.582-0.68 3.9726-0.36 1.3906-1.14 2.6641-2.31 3.8125-1.18 1.1524-2.89 2.0977-5.15 2.836-2.26 0.7382-5.37 1.1093-9.32 1.1093-6.17 0-10.89-1.0664-14.18-3.1953-3.28-2.1289-4.92-5.5195-4.92-10.164 0-2.3907 0.58-4.293 1.73-5.7071 1.15-1.4101 2.71-2.5195 4.66-3.3242 1.96-0.8008 4.21-1.3984 6.78-1.7891 2.56-0.3906 5.26-0.7421 8.08-1.0429 2.21-0.2617 4.54-0.586 6.98-0.9766 2.43-0.3945 4.8-0.957 7.13-1.6953 2.32-0.7422 4.54-1.7187 6.65-2.9336 2.1-1.2187 3.95-2.8047 5.54-4.7578 1.58-1.9531 2.84-4.3438 3.78-7.1719 0.93-2.8242 1.4-6.1875 1.4-10.098 0-5.1289-0.79-9.6485-2.38-13.559-1.58-3.9102-3.85-7.1797-6.81-9.8086-2.96-2.6289-6.55-4.6172-10.78-5.9648-4.24-1.3437-9.01-2.0195-14.31-2.0195-5.39 0-9.95 0.66016-13.69 1.9883-3.74 1.3242-6.83 2.9961-9.28 5.0195-2.46 2.0195-4.38 4.2344-5.78 6.6445-1.39 2.4141-2.41 4.7383-3.06 6.9766s-1.05 4.2149-1.2 5.9297-0.23 2.8789-0.23 3.4883h14.53c0-2.086 0.31-4.1719 0.92-6.2578 0.6-2.086 1.62-3.9766 3.06-5.6719 1.43-1.6914 3.34-3.0703 5.74-4.1367 2.38-1.0664 5.38-1.5977 8.99-1.5977 2.95 0 5.61 0.3711 7.98 1.1094s4.39 1.8476 6.06 3.3242c1.68 1.4766 2.96 3.3242 3.85 5.5391 0.89 2.2148 1.33 4.7812 1.33 7.6914 0 3.039-0.51 5.4531-1.56 7.2344-1.04 1.7812-2.59 3.1679-4.63 4.1679s-4.59 1.7617-7.65 2.2813c-3.07 0.5234-6.64 1.0664-10.73 1.6328-3.52 0.5195-6.94 1.1914-10.26 2.0195-3.33 0.8242-6.28 2.086-8.86 3.7813-2.59 1.6914-4.68 3.9648-6.26 6.8086-1.59 2.8476-2.38 6.5312-2.38 11.047 0 0.9141 0.1 2.2383 0.29 3.9766 0.2 1.7383 0.65 3.6289 1.37 5.6719 0.72 2.0429 1.77 4.125 3.16 6.2578 1.39 2.125 3.3 4.0469 5.74 5.7656 2.43 1.7149 5.46 3.1289 9.09 4.2383 3.63 1.1055 8.03 1.6601 13.2 1.6601 4.47 0 8.21-0.2382 11.21-0.7187 2.99-0.4766 5.49-1.1172 7.49-1.9219s3.61-1.707 4.83-2.7031c1.21-1 2.3-2.0234 3.25-3.0625 2.09-2.2188 3.58-4.6836 4.47-7.3984 0.89-2.7188 1.33-5.4844 1.33-8.3086h-14.21"/>
   <path d="m1150.3 47.055c1.91 0 3.91 0.3047 6 0.9141 2.08 0.6093 3.99 1.6132 5.73 3.0039 1.74 1.3945 3.18 3.2539 4.3 5.5859 1.14 2.3281 1.7 5.2109 1.7 8.6484 0 2.4805-0.34 4.8203-1.01 7.0196-0.68 2.1992-1.65 4.1328-2.93 5.8086-1.29 1.6796-2.86 2.9961-4.73 3.9531s-4 1.4375-6.39 1.4375h-19.81v-36.371zm-31.8-46.273v95.027h36.3c4.43 0 8.39-0.7188 11.89-2.1523 3.5-1.4336 6.46-3.4844 8.9-6.1563 2.43-2.6758 4.29-5.8906 5.57-9.6484s1.93-7.961 1.93-12.613c0-4.6485-0.72-8.8516-2.16-12.609-1.43-3.7578-3.41-6.9648-5.92-9.6133-2.53-2.6523-5.51-4.7031-8.97-6.1601-3.45-1.4571-7.2-2.1797-11.24-2.1797h-21.64v-33.895h-14.66"/>
   <path d="m1249 18.512c0.66 0.8672 1.23 1.9219 1.73 3.1602s0.9 2.9531 1.21 5.1484c0.3 2.1914 0.53 5.0078 0.68 8.4414 0.15 3.4297 0.23 7.7735 0.23 13.031s-0.08 9.6172-0.23 13.07-0.38 6.2656-0.68 8.4414c-0.31 2.1719-0.71 3.875-1.21 5.1133s-1.07 2.2929-1.73 3.1601c-1.52 2-3.62 3.5235-6.32 4.5625-2.7 1.043-6.36 1.5664-11.02 1.5664-4.69 0-8.37-0.5234-11.04-1.5664-2.67-1.039-4.77-2.5625-6.29-4.5625-0.65-0.8672-1.23-1.9218-1.73-3.1601s-0.91-2.9414-1.23-5.1133c-0.33-2.1758-0.57-4.9883-0.72-8.4414s-0.23-7.8125-0.23-13.07 0.08-9.6016 0.23-13.031c0.15-3.4336 0.39-6.25 0.72-8.4414 0.32-2.1953 0.73-3.9101 1.23-5.1484s1.08-2.293 1.73-3.1602c1.52-2 3.62-3.5234 6.29-4.5664 2.67-1.039 6.35-1.5625 11.04-1.5625 4.66 0 8.32 0.5235 11.02 1.5625 2.7 1.043 4.8 2.5664 6.32 4.5664zm10.82-9.8437c-1.3-1.3477-2.79-2.5547-4.46-3.6172-1.67-1.0664-3.63-1.9766-5.87-2.7383-2.23-0.75781-4.82-1.3359-7.75-1.7266-2.94-0.39062-6.29-0.58594-10.08-0.58594-3.82 0-7.18 0.19531-10.09 0.58594-2.92 0.39062-5.49 0.96875-7.73 1.7266-2.24 0.76172-4.19 1.6719-5.86 2.7383-1.68 1.0625-3.17 2.2695-4.47 3.6172-1.52 1.5195-2.79 3.4101-3.81 5.6718-1.02 2.2579-1.86 4.9844-2.51 8.1797-0.65 3.1914-1.12 6.9063-1.4 11.145-0.29 4.2343-0.42 9.1132-0.42 14.629 0 5.5195 0.13 10.398 0.42 14.633 0.28 4.2383 0.75 7.9531 1.4 11.144 0.65 3.1953 1.49 5.9219 2.51 8.1836 1.02 2.2578 2.29 4.1445 3.81 5.668 1.3 1.3437 2.79 2.5508 4.47 3.6172 1.67 1.0625 3.62 1.9648 5.86 2.7031s4.81 1.3164 7.73 1.7266c2.91 0.414 6.27 0.621 10.09 0.621 3.79 0 7.14-0.207 10.08-0.621 2.93-0.4102 5.52-0.9883 7.75-1.7266 2.24-0.7383 4.2-1.6406 5.87-2.7031 1.67-1.0664 3.16-2.2735 4.46-3.6172 1.48-1.5235 2.74-3.4102 3.78-5.668 1.05-2.2617 1.89-4.9883 2.55-8.1836 0.65-3.1914 1.12-6.9062 1.4-11.144 0.28-4.2344 0.42-9.1133 0.42-14.633 0-5.5157-0.14-10.395-0.42-14.629-0.28-4.2383-0.75-7.9532-1.4-11.145-0.66-3.1953-1.5-5.9218-2.55-8.1797-1.04-2.2617-2.3-4.1523-3.78-5.6718"/>
   <path d="m1333.4 72.477c-0.08 1.2578-0.31 2.582-0.68 3.9726s-1.14 2.6641-2.31 3.8125c-1.18 1.1524-2.89 2.0977-5.15 2.836-2.26 0.7382-5.37 1.1093-9.32 1.1093-6.17 0-10.89-1.0664-14.18-3.1953-3.28-2.1289-4.92-5.5195-4.92-10.164 0-2.3907 0.58-4.293 1.73-5.7071 1.15-1.4101 2.71-2.5195 4.66-3.3242 1.96-0.8008 4.21-1.3984 6.78-1.7891 2.56-0.3906 5.25-0.7421 8.08-1.0429 2.21-0.2617 4.54-0.586 6.97-0.9766 2.44-0.3945 4.81-0.957 7.14-1.6953 2.32-0.7422 4.54-1.7187 6.65-2.9336 2.1-1.2187 3.95-2.8047 5.54-4.7578 1.58-1.9531 2.84-4.3438 3.78-7.1719 0.93-2.8242 1.4-6.1875 1.4-10.098 0-5.1289-0.79-9.6485-2.38-13.559-1.58-3.9102-3.85-7.1797-6.81-9.8086-2.96-2.6289-6.55-4.6172-10.78-5.9648-4.24-1.3437-9.01-2.0195-14.31-2.0195-5.39 0-9.95 0.66016-13.69 1.9883-3.74 1.3242-6.83 2.9961-9.28 5.0195-2.46 2.0195-4.38 4.2344-5.78 6.6445-1.39 2.4141-2.41 4.7383-3.06 6.9766s-1.05 4.2149-1.2 5.9297-0.23 2.8789-0.23 3.4883h14.53c0-2.086 0.31-4.1719 0.92-6.2578 0.6-2.086 1.62-3.9766 3.06-5.6719 1.43-1.6914 3.34-3.0703 5.74-4.1367 2.38-1.0664 5.38-1.5977 8.99-1.5977 2.95 0 5.61 0.3711 7.98 1.1094s4.39 1.8476 6.06 3.3242c1.68 1.4766 2.96 3.3242 3.85 5.5391 0.89 2.2148 1.33 4.7812 1.33 7.6914 0 3.039-0.51 5.4531-1.56 7.2344-1.04 1.7812-2.59 3.1679-4.63 4.1679s-4.59 1.7617-7.65 2.2813c-3.07 0.5234-6.65 1.0664-10.73 1.6328-3.52 0.5195-6.94 1.1914-10.26 2.0195-3.33 0.8242-6.28 2.086-8.86 3.7813-2.59 1.6914-4.68 3.9648-6.26 6.8086-1.59 2.8476-2.38 6.5312-2.38 11.047 0 0.9141 0.1 2.2383 0.29 3.9766 0.2 1.7383 0.65 3.6289 1.37 5.6719 0.72 2.0429 1.77 4.125 3.16 6.2578 1.39 2.125 3.3 4.0469 5.74 5.7656 2.43 1.7149 5.46 3.1289 9.09 4.2383 3.63 1.1055 8.02 1.6601 13.2 1.6601 4.47 0 8.21-0.2382 11.21-0.7187 2.99-0.4766 5.49-1.1172 7.49-1.9219s3.61-1.707 4.83-2.7031c1.21-1 2.3-2.0234 3.25-3.0625 2.09-2.2188 3.58-4.6836 4.47-7.3984 0.89-2.7188 1.33-5.4844 1.33-8.3086h-14.21"/>
   <path d="m1412.7 72.477c-0.09 1.2578-0.31 2.582-0.68 3.9726s-1.14 2.6641-2.32 3.8125c-1.17 1.1524-2.89 2.0977-5.15 2.836-2.26 0.7382-5.36 1.1093-9.32 1.1093-6.17 0-10.89-1.0664-14.17-3.1953s-4.92-5.5195-4.92-10.164c0-2.3907 0.57-4.293 1.73-5.7071 1.15-1.4101 2.7-2.5195 4.65-3.3242 1.96-0.8008 4.22-1.3984 6.78-1.7891 2.56-0.3906 5.26-0.7421 8.09-1.0429 2.21-0.2617 4.53-0.586 6.97-0.9766 2.43-0.3945 4.81-0.957 7.13-1.6953 2.33-0.7422 4.54-1.7187 6.65-2.9336 2.11-1.2187 3.96-2.8047 5.54-4.7578 1.59-1.9531 2.85-4.3438 3.78-7.1719 0.94-2.8242 1.41-6.1875 1.41-10.098 0-5.1289-0.8-9.6485-2.39-13.559-1.58-3.9102-3.85-7.1797-6.8-9.8086-2.96-2.6289-6.56-4.6172-10.79-5.9648-4.24-1.3437-9.01-2.0195-14.31-2.0195-5.39 0-9.95 0.66016-13.68 1.9883-3.74 1.3242-6.84 2.9961-9.29 5.0195-2.46 2.0195-4.38 4.2344-5.77 6.6445-1.39 2.4141-2.41 4.7383-3.06 6.9766-0.66 2.2383-1.06 4.2149-1.21 5.9297s-0.23 2.8789-0.23 3.4883h14.54c0-2.086 0.3-4.1719 0.91-6.2578 0.61-2.086 1.63-3.9766 3.06-5.6719 1.44-1.6914 3.35-3.0703 5.74-4.1367s5.39-1.5977 8.99-1.5977c2.96 0 5.62 0.3711 7.99 1.1094s4.38 1.8476 6.06 3.3242c1.67 1.4766 2.95 3.3242 3.84 5.5391 0.89 2.2148 1.34 4.7812 1.34 7.6914 0 3.039-0.52 5.4531-1.56 7.2344-1.05 1.7812-2.59 3.1679-4.63 4.1679s-4.6 1.7617-7.66 2.2813c-3.06 0.5234-6.64 1.0664-10.72 1.6328-3.52 0.5195-6.94 1.1914-10.27 2.0195-3.32 0.8242-6.28 2.086-8.86 3.7813-2.59 1.6914-4.67 3.9648-6.26 6.8086-1.59 2.8476-2.38 6.5312-2.38 11.047 0 0.9141 0.1 2.2383 0.3 3.9766 0.19 1.7383 0.65 3.6289 1.36 5.6719 0.72 2.0429 1.78 4.125 3.17 6.2578 1.38 2.125 3.3 4.0469 5.73 5.7656 2.44 1.7149 5.46 3.1289 9.09 4.2383 3.63 1.1055 8.03 1.6601 13.2 1.6601 4.48 0 8.21-0.2382 11.21-0.7187 3-0.4766 5.5-1.1172 7.5-1.9219 1.99-0.8047 3.6-1.707 4.82-2.7031 1.22-1 2.3-2.0234 3.26-3.0625 2.08-2.2188 3.57-4.6836 4.47-7.3984 0.88-2.7188 1.33-5.4844 1.33-8.3086h-14.21"/>
   <path d="m1444.4 0.78125h14.668v95.027h-14.668z"/>
   <path d="m1516.2 13.164c2.25 0 4.25 0.457 5.99 1.3711 1.74 0.9101 3.2 2.082 4.37 3.5195 1.17 1.4336 2.05 3.0195 2.63 4.7578 0.6 1.7383 0.89 3.4297 0.89 5.082 0 2.2149-0.32 4.1914-0.95 5.9297s-1.52 3.2188-2.67 4.4336c-1.15 1.2149-2.53 2.1524-4.14 2.8008-1.61 0.6523-3.39 0.9805-5.34 0.9805h-24.45v-28.875zm-3.2 41.258c2.87 0 5.3 0.4765 7.3 1.4336 2 0.9531 3.62 2.1523 4.86 3.582 1.23 1.4375 2.14 2.9883 2.7 4.6641 0.56 1.6718 0.85 3.2031 0.85 4.5937 0 5.1719-1.47 8.918-4.4 11.242s-7.16 3.4883-12.68 3.4883h-19.1v-29.004zm-35.13-53.641v95.027h38.59c4.17 0 7.73-0.5234 10.68-1.5664 2.96-1.043 5.46-2.3672 7.5-3.9727 2.04-1.6093 3.66-3.4023 4.85-5.3789 1.2-1.9765 2.12-3.8984 2.78-5.7656 0.65-1.8711 1.07-3.5664 1.27-5.0859 0.19-1.5196 0.29-2.6289 0.29-3.3243 0-1.6523-0.16-3.4335-0.49-5.3437-0.33-1.9141-0.94-3.8242-1.83-5.7344-0.88-1.914-2.09-3.75-3.61-5.5078-1.52-1.7617-3.46-3.293-5.8-4.5976 4.3-2.043 7.54-4.875 9.74-8.504 2.19-3.6289 3.29-7.789 3.29-12.48 0-1.043-0.09-2.4571-0.26-4.2383-0.17-1.7813-0.59-3.6914-1.24-5.7344-0.65-2.0429-1.59-4.1289-2.83-6.2578s-2.92-4.0391-5.05-5.7344c-2.13-1.6914-4.77-3.0859-7.92-4.1719-3.15-1.0859-6.94-1.6289-11.37-1.6289h-38.59"/>
   <path d="m1560.3 0.78125v95.027h14.66v-82.644h37.02v-12.383h-51.68"/>
   <path d="m1623.5 0.78125v95.027h57.68v-12.383h-43.02v-29.004h31.68v-12.383h-31.68v-28.875h43.02v-12.383h-57.68"/>
   <path d="m1706.5 50.258v39.703h-11.61v5.9493h30.28v-5.9493h-11.62v-39.703h-7.05"/>
   <path d="m1764.9 50.258v33.41l-11.21-23.141h-5.67l-10.89 22.828v-33.098h-6.67v45.652h7.83l12.77-26.805 12.81 26.805h7.7v-45.652h-6.67"/>
   <path d="m5.1484 706.73h467.36v-469.88h-467.36zm96.188-73.144v-337.12l293.04 172.31zm528.48-391.75h-80.649v209.41h81.137c60.121 0 96.183-47.586 96.183-108.2 0-60.629-32.046-101.22-96.671-101.22m71.621 256.98-16 46.594h-77.164l-14.036-46.594h-42.07l70.629 209.9h42.578l79.149-209.9zm-75.129-83.14h-33.067v-141.26h35.582c47.078 0 54.098 40.082 53.59 70.629 0 24.055-11.523 70.629-56.105 70.629m44.582 171.82-26.551 77.141-23.527-76.657-1.524-13h52.11c0 6.996 0.507 8.5-0.508 12.516m70.648-345.66v209.41h154.28v-35.074h-112.23v-44.582h99.187v-38.075h-98.679v-56.105h115.23v-35.578zm145.25 256.98-92.168 141.79v-141.79h-42.07v209.9h43.086l88.636-139.75v139.75h42.09v-209.9zm131.74-256.47h-40.077l-69.105 197.87v11.035h42.047l47.097-153.28 46.088 152.78h41.07v-11.016zm66.64 256.47-16.05 46.594h-77.136l-14.015-46.594h-42.09l70.631 209.9h42.59l79.13-209.9zm-30.08 87.692-26.54 79.125-26.57-79.125v-11.524h54.12c0 6.996 0 8.012-1.01 11.524m43.59-135.76h44.58v-208.4h-44.58zm38.56 48.07v209.9h41.6v-174.32h93.65v-35.579zm116.73-261.96c-114.7-2.516-134.77 218.9 0.49 217.4 75.15 0 88.17-62.617 91.17-72.129h-41.58c-6.51 13-23.55 38.051-44.56 39.574-74.14 4.989-74.14-151.78 0-151.78 35.56 0 44.08 35.559 46.06 39.555h40.59c0-0.489-5.03-71.625-92.17-72.617m115.21 258.48c-134.76 0-129.73 217.41 1.5 216.39 126.74-0.992 130.25-216.39-1.5-216.39m-1.5 35.051c77.63-0.484 77.63 144.79 1.5 145.78-75.63 0.508-78.15-145.27-1.5-145.78m-14.03-288.54v209.41h148.76v-38.098h-108.68v-43.058h96.16v-37.567h-95.68v-55.113h113.23v-35.578zm282.53 262.01v20.019c-4.5-3.992-24.56-29.551-62.13-28.539-128.21 3.004-128.74 213.39 6.03 215.9 32.53 0 59.59-20.546 70.12-35.07 12.53-16.531 13.53-30.566 14.03-34.078h-35.57c-8.02 13.047-20.55 35.074-50.08 35.074-78.16 0.992-83.15-146.78-0.51-148.26 36.57-0.992 55.09 37.059 55.09 37.547v11.035h-50.08v32.555h86.14v-106.19zm-39.09-267.5c-88.66 0-87.66 68.133-87.66 68.133h40.08s-3.02-33.063 41.6-36.067c11.02-0.504 47.08 3.996 47.08 29.051 0 29.043-36.59 27.566-59.61 34.055-23.07 6.027-66.64 16.047-66.64 56.613 0 35.559 29.05 66.125 85.15 66.125 75.16-0.508 74.65-58.621 75.16-62.129h-38.56c-2.54 8.539-5.03 29.066-38.58 30.059-16.53 0-41.59-5.516-41.59-25.028 0-24.566 28.04-28.054 57.61-32.554 44.59-8.543 70.14-22.075 68.62-63.125-0.99-36.067-33.06-65.133-82.66-65.133"/>
  </g>
  <path d="m-63.268 136.33v24.983" fill="none" stroke="#000" stroke-width=".26458"/>
 </g>
</svg>
