<svg width="2450" height="1722" xmlns="http://www.w3.org/2000/svg" xmlns:xlink="http://www.w3.org/1999/xlink" xml:space="preserve" overflow="hidden"><defs><clipPath id="clip0"><rect x="915" y="332" width="2450" height="1722"/></clipPath><clipPath id="clip1"><rect x="2316" y="332" width="172" height="227"/></clipPath><clipPath id="clip2"><rect x="2316" y="332" width="172" height="227"/></clipPath><clipPath id="clip3"><rect x="2316" y="331" width="902" height="1276"/></clipPath><clipPath id="clip4"><rect x="2431" y="383" width="160" height="138"/></clipPath><clipPath id="clip5"><rect x="2431" y="383" width="160" height="138"/></clipPath><clipPath id="clip6"><rect x="2431" y="383" width="653" height="929"/></clipPath><clipPath id="clip7"><rect x="2574" y="383" width="103" height="154"/></clipPath><clipPath id="clip8"><rect x="2574" y="384" width="103" height="153"/></clipPath><clipPath id="clip9"><rect x="2574" y="384" width="594" height="840"/></clipPath></defs><g clip-path="url(#clip0)" transform="translate(-915 -332)"><text font-family="Arial,Arial_MSFontService,sans-serif" font-weight="700" font-size="73" transform="matrix(1 0 0 1 2940.41 846)">C5SOC</text><path d="M3.43757 22.9167 3.43779 91.4858-3.43721 91.4859-3.43743 22.9167ZM-13.7499 27.5 0 0 13.7501 27.5ZM13.7503 86.9025 0.000360892 114.403-13.7497 86.9026Z" transform="matrix(1 0 0 -1 2408.5 659.903)"/><path d="M3.43757 22.9167 3.43779 91.4858-3.43721 91.4859-3.43743 22.9167ZM-13.7499 27.5 0 0 13.7501 27.5ZM13.7503 86.9025 0.000360892 114.403-13.7497 86.9026Z" transform="matrix(1 0 0 -1 2512.5 662.903)"/><path d="M3.43757 22.9167 3.43779 91.4858-3.43721 91.4859-3.43743 22.9167ZM-13.7499 27.5 0 0 13.7501 27.5ZM13.7503 86.9025 0.000360892 114.403-13.7497 86.9026Z" transform="matrix(1 0 0 -1 2615.5 661.903)"/><rect x="2667.5" y="662.5" width="101" height="299" stroke="#000000" stroke-width="6.875" stroke-miterlimit="8" fill="#E7E6E6"/><text font-family="Arial,Arial_MSFontService,sans-serif" font-weight="700" font-size="41" transform="matrix(-1.83697e-16 -1 1 -1.83697e-16 2732.58 839)">I</text><text fill="#111111" font-family="Arial,Arial_MSFontService,sans-serif" font-weight="700" font-size="28" transform="matrix(-1.83697e-16 -1 1 -1.83697e-16 2720.57 828)">2</text><text font-family="Arial,Arial_MSFontService,sans-serif" font-weight="700" font-size="41" transform="matrix(-1.83697e-16 -1 1 -1.83697e-16 2732.58 813)">C</text><rect x="2564.5" y="662.5" width="101" height="299" stroke="#000000" stroke-width="6.875" stroke-miterlimit="8" fill="#E7E6E6"/><text font-family="Arial,Arial_MSFontService,sans-serif" font-weight="700" font-size="41" transform="matrix(-1.83697e-16 -1 1 -1.83697e-16 2629.44 868)">UART</text><rect x="2460.5" y="662.5" width="101" height="299" stroke="#000000" stroke-width="6.875" stroke-miterlimit="8" fill="#E7E6E6"/><text font-family="Arial,Arial_MSFontService,sans-serif" font-weight="700" font-size="41" transform="matrix(-1.83697e-16 -1 1 -1.83697e-16 2526.07 895)">Ethernet</text><rect x="2772.5" y="662.5" width="100" height="299" stroke="#000000" stroke-width="6.875" stroke-miterlimit="8" fill="#E7E6E6"/><text font-family="Arial,Arial_MSFontService,sans-serif" font-weight="700" font-size="41" transform="matrix(-1.83697e-16 -1 1 -1.83697e-16 2837.17 845)">SPI</text><rect x="2360.5" y="662.5" width="100" height="299" stroke="#000000" stroke-width="6.875" stroke-miterlimit="8" fill="#E7E6E6"/><text font-family="Arial,Arial_MSFontService,sans-serif" font-weight="700" font-size="41" transform="matrix(-1.83697e-16 -1 1 -1.83697e-16 2425.3 868)">DDRx</text><rect x="2257.5" y="662.5" width="101" height="299" stroke="#000000" stroke-width="6.875" stroke-miterlimit="8" fill="#E7E6E6"/><text font-family="Arial,Arial_MSFontService,sans-serif" font-weight="700" font-size="41" transform="matrix(-1.83697e-16 -1 1 -1.83697e-16 2322.6 908)">Interrupts</text><rect x="1010.5" y="662.5" width="1144" height="299" stroke="#000000" stroke-width="6.875" stroke-miterlimit="8" fill="#E7E6E6"/><text font-family="Arial,Arial_MSFontService,sans-serif" font-weight="700" font-size="64" transform="matrix(1 0 0 1 1436.07 835)">ARM SoC</text><rect x="2154.5" y="662.5" width="101" height="299" stroke="#000000" stroke-width="6.875" stroke-miterlimit="8" fill="#E7E6E6"/><text font-family="Arial,Arial_MSFontService,sans-serif" font-weight="700" font-size="41" transform="matrix(-1.83697e-16 -1 1 -1.83697e-16 2219.98 868)">Timer</text><rect x="920" y="602" width="2350" height="1447" stroke="#000000" stroke-width="10.3125" stroke-miterlimit="8" fill="none"/><rect x="3221.5" y="1025.5" width="111" height="957" stroke="#000000" stroke-width="6.875" stroke-miterlimit="8" fill="#FFFFFF"/><text font-family="Arial,Arial_MSFontService,sans-serif" font-weight="700" font-size="73" transform="matrix(-1.83697e-16 -1 1 -1.83697e-16 3303.12 1857)">HSMC CONNECTOR</text><rect x="952.5" y="993.5" width="100" height="1003" stroke="#000000" stroke-width="6.875" stroke-miterlimit="8" fill="#FFFFFF"/><text font-family="Arial,Arial_MSFontService,sans-serif" font-weight="700" font-size="73" transform="matrix(-1.83697e-16 -1 1 -1.83697e-16 1029.3 1958)">MEMORY INTERCONNECT</text><rect x="1153.5" y="1075.5" width="137" height="736" stroke="#C00000" stroke-width="6.875" stroke-miterlimit="8" fill="#FFD1D1"/><text font-family="Arial,Arial_MSFontService,sans-serif" font-weight="700" font-size="73" transform="matrix(-1.83697e-16 -1 1 -1.83697e-16 1248.72 1634)">AXI  DMAC</text><rect x="1387.5" y="1075.5" width="111" height="736" stroke="#C00000" stroke-width="6.875" stroke-miterlimit="8" fill="#FFD1D1"/><text font-family="Arial,Arial_MSFontService,sans-serif" font-weight="700" font-size="73" transform="matrix(-1.83697e-16 -1 1 -1.83697e-16 1469.78 1633)">ADC PACK</text><rect x="942" y="511" width="60.0002" height="57.9997" fill="#FFB9B9"/><text font-family="Calibri,Calibri_MSFontService,sans-serif" font-weight="400" font-size="55" transform="matrix(1 0 0 1 1038.32 556)">Receive path</text><g clip-path="url(#clip1)"><g clip-path="url(#clip2)"><g clip-path="url(#clip3)"><path d="M-2655.89 2294.3-2483.98 2294.3-2483.98 2360.17-2655.89 2360.17Z" stroke="#000000" stroke-width="4.6846" stroke-linecap="round" stroke-linejoin="round" fill="#FFFFFF" transform="matrix(0 -1.00147 1 0 64.0739 -2118.33)"/><path d="M-2643.76 2307.2-2616.74 2307.2-2616.74 2347.26-2643.76 2347.26Z" stroke="#000000" stroke-width="3.95269" stroke-linecap="round" stroke-linejoin="round" stroke-opacity="0.673913" transform="matrix(0 -1.00147 1 0 64.0739 -2118.33)"/><path d="M-2604.04 2307.2-2577.02 2307.2-2577.02 2347.26-2604.04 2347.26Z" stroke="#000000" stroke-width="3.95269" stroke-linecap="round" stroke-linejoin="round" stroke-opacity="0.673913" transform="matrix(0 -1.00147 1 0 64.0739 -2118.33)"/><path d="M-2524.61 2307.2-2497.59 2307.2-2497.59 2347.26-2524.61 2347.26Z" stroke="#000000" stroke-width="3.95269" stroke-linecap="round" stroke-linejoin="round" stroke-opacity="0.673913" transform="matrix(0 -1.00147 1 0 64.0739 -2118.33)"/><path d="M-2564.32 2307.2-2537.3 2307.2-2537.3 2347.26-2564.32 2347.26Z" stroke="#000000" stroke-width="3.95269" stroke-linecap="round" stroke-linejoin="round" stroke-opacity="0.673913" transform="matrix(0 -1.00147 1 0 64.0739 -2118.33)"/><path d="M2359.57 2642.98 2379.88 2642.98 2379.88 2498.12 2358.61 2498.12" stroke="#000000" stroke-width="3.22418" fill="none" fill-rule="evenodd" transform="matrix(1 0 0 1.00147 64.0739 -2118.33)"/><path d="M2377.73 2629.26 2369.29 2629.26" stroke="#000000" stroke-width="6.24809" stroke-linecap="round" fill="none" fill-rule="evenodd" transform="matrix(1 0 0 1.00147 64.0739 -2118.33)"/><path d="M2377.73 2523.41 2369.29 2523.41" stroke="#000000" stroke-width="6.24809" stroke-linecap="round" fill="none" fill-rule="evenodd" transform="matrix(1 0 0 1.00147 64.0739 -2118.33)"/><path d="M2377.73 2537.47 2369.29 2537.47" stroke="#000000" stroke-width="6.24809" stroke-linecap="round" fill="none" fill-rule="evenodd" transform="matrix(1 0 0 1.00147 64.0739 -2118.33)"/><path d="M2377.73 2549.94 2369.29 2549.94" stroke="#000000" stroke-width="6.24809" stroke-linecap="round" fill="none" fill-rule="evenodd" transform="matrix(1 0 0 1.00147 64.0739 -2118.33)"/><path d="M2377.73 2564 2369.29 2564" stroke="#000000" stroke-width="6.24809" stroke-linecap="round" fill="none" fill-rule="evenodd" transform="matrix(1 0 0 1.00147 64.0739 -2118.33)"/><path d="M2377.73 2576.47 2369.29 2576.47" stroke="#000000" stroke-width="6.24809" stroke-linecap="round" fill="none" fill-rule="evenodd" transform="matrix(1 0 0 1.00147 64.0739 -2118.33)"/><path d="M2377.73 2590.26 2369.29 2590.26" stroke="#000000" stroke-width="6.24809" stroke-linecap="round" fill="none" fill-rule="evenodd" transform="matrix(1 0 0 1.00147 64.0739 -2118.33)"/><path d="M2377.73 2602.99 2369.29 2602.99" stroke="#000000" stroke-width="6.24809" stroke-linecap="round" fill="none" fill-rule="evenodd" transform="matrix(1 0 0 1.00147 64.0739 -2118.33)"/><path d="M2377.73 2616.52 2369.29 2616.52" stroke="#000000" stroke-width="6.24809" stroke-linecap="round" fill="none" fill-rule="evenodd" transform="matrix(1 0 0 1.00147 64.0739 -2118.33)"/><path d="M2377.73 2523.41 2369.29 2523.41" stroke="#000000" stroke-width="6.24809" stroke-linecap="round" fill="none" fill-rule="evenodd" transform="matrix(1 0 0 1.00147 64.0739 -2118.33)"/><path d="M2377.73 2510.95 2369.29 2510.95" stroke="#000000" stroke-width="6.24809" stroke-linecap="round" fill="none" fill-rule="evenodd" transform="matrix(1 0 0 1.00147 64.0739 -2118.33)"/><path d="M-2794.4 2302.72-2532.26 2302.72-2532.26 2371.32-2794.4 2371.32Z" stroke="#000000" stroke-width="4.15762" stroke-linecap="round" stroke-linejoin="round" fill="#FFFFFF" transform="matrix(0 -1.00147 1 0 207.921 -2178.98)"/><path d="M-2781.98 2315.95-2753.56 2315.95-2753.56 2358.09-2781.98 2358.09Z" stroke="#000000" stroke-width="4.15762" stroke-linecap="round" stroke-linejoin="round" stroke-opacity="0.673913" transform="matrix(0 -1.00147 1 0 207.921 -2178.98)"/><path d="M-2740.2 2315.95-2711.78 2315.95-2711.78 2358.09-2740.2 2358.09Z" stroke="#000000" stroke-width="4.15762" stroke-linecap="round" stroke-linejoin="round" stroke-opacity="0.673913" transform="matrix(0 -1.00147 1 0 207.921 -2178.98)"/><path d="M-2614.88 2315.95-2586.46 2315.95-2586.46 2358.09-2614.88 2358.09Z" stroke="#000000" stroke-width="4.15762" stroke-linecap="round" stroke-linejoin="round" stroke-opacity="0.673913" transform="matrix(0 -1.00147 1 0 207.921 -2178.98)"/><path d="M-2656.65 2315.95-2628.23 2315.95-2628.23 2358.09-2656.65 2358.09Z" stroke="#000000" stroke-width="4.15762" stroke-linecap="round" stroke-linejoin="round" stroke-opacity="0.673913" transform="matrix(0 -1.00147 1 0 207.921 -2178.98)"/><path d="M-2698.43 2315.95-2670.01 2315.95-2670.01 2358.09-2698.43 2358.09Z" stroke="#000000" stroke-width="4.15762" stroke-linecap="round" stroke-linejoin="round" stroke-opacity="0.673913" transform="matrix(0 -1.00147 1 0 207.921 -2178.98)"/><path d="M-2573.1 2315.95-2544.68 2315.95-2544.68 2358.09-2573.1 2358.09Z" stroke="#000000" stroke-width="4.15762" stroke-linecap="round" stroke-linejoin="round" stroke-opacity="0.673913" transform="matrix(0 -1.00147 1 0 207.921 -2178.98)"/><path d="M2371.33 2780.68 2392.14 2780.68 2392.14 2545.73 2370.34 2545.73" stroke="#000000" stroke-width="4.15762" fill="none" fill-rule="evenodd" transform="matrix(1 0 0 1.00147 207.921 -2178.98)"/><path d="M2390.14 2766.73 2381.26 2766.73" stroke="#000000" stroke-width="4.72228" stroke-linecap="round" fill="none" fill-rule="evenodd" transform="matrix(1 0 0 1.00147 207.921 -2178.98)"/><path d="M2390.14 2655.4 2381.26 2655.4" stroke="#000000" stroke-width="4.72228" stroke-linecap="round" fill="none" fill-rule="evenodd" transform="matrix(1 0 0 1.00147 207.921 -2178.98)"/><path d="M2390.14 2670.19 2381.26 2670.19" stroke="#000000" stroke-width="4.72228" stroke-linecap="round" fill="none" fill-rule="evenodd" transform="matrix(1 0 0 1.00147 207.921 -2178.98)"/><path d="M2390.14 2683.3 2381.26 2683.3" stroke="#000000" stroke-width="4.72228" stroke-linecap="round" fill="none" fill-rule="evenodd" transform="matrix(1 0 0 1.00147 207.921 -2178.98)"/><path d="M2390.14 2698.09 2381.26 2698.09" stroke="#000000" stroke-width="4.72228" stroke-linecap="round" fill="none" fill-rule="evenodd" transform="matrix(1 0 0 1.00147 207.921 -2178.98)"/><path d="M2390.14 2711.2 2381.26 2711.2" stroke="#000000" stroke-width="4.72228" stroke-linecap="round" fill="none" fill-rule="evenodd" transform="matrix(1 0 0 1.00147 207.921 -2178.98)"/><path d="M2390.14 2725.71 2381.26 2725.71" stroke="#000000" stroke-width="4.72228" stroke-linecap="round" fill="none" fill-rule="evenodd" transform="matrix(1 0 0 1.00147 207.921 -2178.98)"/><path d="M2390.14 2739.11 2381.26 2739.11" stroke="#000000" stroke-width="4.72228" stroke-linecap="round" fill="none" fill-rule="evenodd" transform="matrix(1 0 0 1.00147 207.921 -2178.98)"/><path d="M2390.14 2753.33 2381.26 2753.33" stroke="#000000" stroke-width="4.72228" stroke-linecap="round" fill="none" fill-rule="evenodd" transform="matrix(1 0 0 1.00147 207.921 -2178.98)"/><path d="M2390.14 2655.4 2381.26 2655.4" stroke="#000000" stroke-width="4.72228" stroke-linecap="round" fill="none" fill-rule="evenodd" transform="matrix(1 0 0 1.00147 207.921 -2178.98)"/><path d="M2390.14 2586.48 2381.26 2586.48" stroke="#000000" stroke-width="4.72228" stroke-linecap="round" fill="none" fill-rule="evenodd" transform="matrix(1 0 0 1.00147 207.921 -2178.98)"/><path d="M2390.14 2599.6 2381.26 2599.6" stroke="#000000" stroke-width="4.72228" stroke-linecap="round" fill="none" fill-rule="evenodd" transform="matrix(1 0 0 1.00147 207.921 -2178.98)"/><path d="M2390.14 2614.39 2381.26 2614.39" stroke="#000000" stroke-width="4.72228" stroke-linecap="round" fill="none" fill-rule="evenodd" transform="matrix(1 0 0 1.00147 207.921 -2178.98)"/><path d="M2390.14 2627.5 2381.26 2627.5" stroke="#000000" stroke-width="4.72228" stroke-linecap="round" fill="none" fill-rule="evenodd" transform="matrix(1 0 0 1.00147 207.921 -2178.98)"/><path d="M2390.14 2642.29 2381.26 2642.29" stroke="#000000" stroke-width="4.72228" stroke-linecap="round" fill="none" fill-rule="evenodd" transform="matrix(1 0 0 1.00147 207.921 -2178.98)"/><path d="M2390.14 2558.58 2381.26 2558.58" stroke="#000000" stroke-width="4.72228" stroke-linecap="round" fill="none" fill-rule="evenodd" transform="matrix(1 0 0 1.00147 207.921 -2178.98)"/><path d="M2390.14 2571.7 2381.26 2571.7" stroke="#000000" stroke-width="4.72228" stroke-linecap="round" fill="none" fill-rule="evenodd" transform="matrix(1 0 0 1.00147 207.921 -2178.98)"/></g></g></g><g clip-path="url(#clip4)"><g clip-path="url(#clip5)"><g clip-path="url(#clip6)"><path d="M1471.38 1729.86 1579.05 1729.86 1579.05 1822.41 1471.38 1822.41Z" stroke="#000000" stroke-width="5.37105" stroke-linecap="round" stroke-linejoin="round" fill="none" transform="matrix(1 0 0 1.00461 990.044 -1327.72)"/><path d="M1492.09 1739.42 1557.57 1739.42C1562.71 1739.42 1566.86 1743.56 1566.86 1748.71L1566.86 1801.8C1566.86 1806.94 1562.71 1811.09 1557.57 1811.09L1492.09 1811.09C1486.95 1811.09 1482.81 1806.94 1482.81 1801.8L1482.81 1748.71C1482.81 1743.56 1486.95 1739.42 1492.09 1739.42Z" stroke="#000000" stroke-width="4.81525" stroke-linecap="round" stroke-linejoin="round" fill="none" transform="matrix(1 0 0 1.00461 990.044 -1327.72)"/><path d="M1857.66 1971.29 1891.59 1971.29 1891.59 1997.56 1857.66 1997.56Z" stroke="#FFFFFF" stroke-width="2.39864" fill="#FFFFFF" transform="matrix(1 0 0 1.00461 609.841 -1511.81)"/><path d="M1918.49 1971.29 1952.41 1971.29 1952.41 1997.56 1918.49 1997.56Z" stroke="#FFFFFF" stroke-width="2.39864" fill="#FFFFFF" transform="matrix(1 0 0 1.00461 609.841 -1511.81)"/><path d="M1482.81 1786.7 1506.21 1786.7 1506.21 1798.04 1512.42 1798.04 1512.42 1811.07" stroke="#000000" stroke-width="4.81525" stroke-linecap="round" fill="none" fill-rule="evenodd" transform="matrix(1 0 0 1.00461 990.044 -1327.72)"/><path d="M1566.86 1786.82 1543.21 1786.82 1543.21 1798.09 1536.94 1798.09 1536.94 1811.03" stroke="#000000" stroke-width="4.81525" stroke-linecap="round" fill="none" fill-rule="evenodd" transform="matrix(1 0 0 1.00461 990.044 -1327.72)"/><path d="M1481.25 1794.12 1499.38 1794.12 1499.38 1809.74 1481.25 1809.74Z" stroke="#000000" stroke-width="3.90437" stroke-linecap="round" fill="#FFFFFF" transform="matrix(1 0 0 1.00461 990.044 -1327.72)"/><path d="M1550.01 1794.12 1568.14 1794.12 1568.14 1809.74 1550.01 1809.74Z" stroke="#000000" stroke-width="3.90437" stroke-linecap="round" fill="#FFFFFF" transform="matrix(1 0 0 1.00461 990.044 -1327.72)"/><path d="M1492.13 1739.91 1497.12 1739.91 1497.12 1760.63 1492.13 1760.63Z" stroke="#000000" stroke-width="1.23831" stroke-linecap="round" fill="#FFFFFF" transform="matrix(1 0 0 1.00461 990.044 -1327.72)"/><path d="M1542.47 1739.91 1547.46 1739.91 1547.46 1760.63 1542.47 1760.63Z" stroke="#000000" stroke-width="1.23831" stroke-linecap="round" fill="#FFFFFF" transform="matrix(1 0 0 1.00461 990.044 -1327.72)"/><path d="M1532.4 1739.91 1537.39 1739.91 1537.39 1760.63 1532.4 1760.63Z" stroke="#000000" stroke-width="1.23831" stroke-linecap="round" fill="#FFFFFF" transform="matrix(1 0 0 1.00461 990.044 -1327.72)"/><path d="M1522.33 1739.91 1527.33 1739.91 1527.33 1760.63 1522.33 1760.63Z" stroke="#000000" stroke-width="1.23831" stroke-linecap="round" fill="#FFFFFF" transform="matrix(1 0 0 1.00461 990.044 -1327.72)"/><path d="M1512.27 1739.91 1517.26 1739.91 1517.26 1760.63 1512.27 1760.63Z" stroke="#000000" stroke-width="1.23831" stroke-linecap="round" fill="#FFFFFF" transform="matrix(1 0 0 1.00461 990.044 -1327.72)"/><path d="M1502.2 1739.91 1507.19 1739.91 1507.19 1760.63 1502.2 1760.63Z" stroke="#000000" stroke-width="1.23831" stroke-linecap="round" fill="#FFFFFF" transform="matrix(1 0 0 1.00461 990.044 -1327.72)"/><path d="M1552.54 1739.91 1557.53 1739.91 1557.53 1760.63 1552.54 1760.63Z" stroke="#000000" stroke-width="1.23831" stroke-linecap="round" fill="#FFFFFF" transform="matrix(1 0 0 1.00461 990.044 -1327.72)"/></g></g></g><g clip-path="url(#clip7)"><g clip-path="url(#clip8)"><g clip-path="url(#clip9)"><path d="M906.684 632.62C910.734 632.62 914.018 635.904 914.018 639.955L914.018 672.147C914.018 676.198 910.734 679.482 906.684 679.482L807.254 679.482C803.203 679.482 799.919 676.198 799.919 672.147L799.919 639.955C799.919 635.904 803.203 632.62 807.254 632.62Z" stroke="#000000" stroke-width="3.92996" stroke-linecap="round" fill="#FFFFFF" transform="matrix(0 -1 1.00012 0 1959.61 1312.72)"/><path d="M826.814 642.4 887.124 642.4C891.187 642.4 896.051 645.995 894.459 649.735L889.08 662.367C887.487 666.106 883.363 669.702 879.3 669.702L833.986 669.702C829.922 669.702 826.856 666.07 825.184 662.367L819.479 649.735C817.807 646.031 822.75 642.4 826.814 642.4Z" stroke="#000000" stroke-width="3.92996" stroke-linecap="round" fill="#FFFFFF" transform="matrix(0 -1 1.00012 0 1959.61 1312.72)"/><path d="M816.138 656.051C816.138 658.92 813.812 661.247 810.943 661.247 808.073 661.247 805.747 658.92 805.747 656.051 805.747 653.181 808.073 650.855 810.943 650.855 813.812 650.855 816.138 653.181 816.138 656.051Z" stroke="#000000" stroke-width="3.92996" stroke-linecap="round" fill="#FFFFFF" transform="matrix(0 -1 1.00012 0 1959.61 1312.72)"/><path d="M908.437 656.051C908.437 658.92 906.11 661.247 903.241 661.247 900.371 661.247 898.045 658.92 898.045 656.051 898.045 653.181 900.371 650.855 903.241 650.855 906.11 650.855 908.437 653.181 908.437 656.051Z" stroke="#000000" stroke-width="3.92996" stroke-linecap="round" fill="#FFFFFF" transform="matrix(0 -1 1.00012 0 1959.61 1312.72)"/><path d="M839.023 651.671C839.023 652.628 838.293 653.403 837.393 653.403 836.492 653.403 835.763 652.628 835.763 651.671 835.763 650.715 836.492 649.939 837.393 649.939 838.293 649.939 839.023 650.715 839.023 651.671Z" stroke="#000000" stroke-width="3.92996" stroke-linecap="round" fill="#FFFFFF" transform="matrix(0 -1 1.00012 0 1959.61 1312.72)"/><path d="M878.142 651.671C878.142 652.628 877.413 653.403 876.512 653.403 875.612 653.403 874.882 652.628 874.882 651.671 874.882 650.715 875.612 649.939 876.512 649.939 877.413 649.939 878.142 650.715 878.142 651.671Z" stroke="#000000" stroke-width="3.92996" stroke-linecap="round" fill="#FFFFFF" transform="matrix(0 -1 1.00012 0 1959.61 1312.72)"/><path d="M868.362 651.671C868.362 652.628 867.633 653.403 866.732 653.403 865.832 653.403 865.102 652.628 865.102 651.671 865.102 650.715 865.832 649.939 866.732 649.939 867.633 649.939 868.362 650.715 868.362 651.671Z" stroke="#000000" stroke-width="3.92996" stroke-linecap="round" fill="#FFFFFF" transform="matrix(0 -1 1.00012 0 1959.61 1312.72)"/><path d="M858.582 651.671C858.582 652.628 857.853 653.403 856.952 653.403 856.052 653.403 855.322 652.628 855.322 651.671 855.322 650.715 856.052 649.939 856.952 649.939 857.853 649.939 858.582 650.715 858.582 651.671Z" stroke="#000000" stroke-width="3.92996" stroke-linecap="round" fill="#FFFFFF" transform="matrix(0 -1 1.00012 0 1959.61 1312.72)"/><path d="M848.802 651.671C848.802 652.628 848.073 653.403 847.172 653.403 846.272 653.403 845.542 652.628 845.542 651.671 845.542 650.715 846.272 649.939 847.172 649.939 848.073 649.939 848.802 650.715 848.802 651.671Z" stroke="#000000" stroke-width="3.92996" stroke-linecap="round" fill="#FFFFFF" transform="matrix(0 -1 1.00012 0 1959.61 1312.72)"/><path d="M843.912 661.451C843.912 662.408 843.183 663.183 842.282 663.183 841.382 663.183 840.652 662.408 840.652 661.451 840.652 660.495 841.382 659.719 842.282 659.719 843.183 659.719 843.912 660.495 843.912 661.451Z" stroke="#000000" stroke-width="3.92996" stroke-linecap="round" fill="#FFFFFF" transform="matrix(0 -1 1.00012 0 1959.61 1312.72)"/><path d="M873.252 661.451C873.252 662.408 872.523 663.183 871.622 663.183 870.722 663.183 869.992 662.408 869.992 661.451 869.992 660.495 870.722 659.719 871.622 659.719 872.523 659.719 873.252 660.495 873.252 661.451Z" stroke="#000000" stroke-width="3.92996" stroke-linecap="round" fill="#FFFFFF" transform="matrix(0 -1 1.00012 0 1959.61 1312.72)"/><path d="M863.472 661.451C863.472 662.408 862.743 663.183 861.842 663.183 860.942 663.183 860.212 662.408 860.212 661.451 860.212 660.495 860.942 659.719 861.842 659.719 862.743 659.719 863.472 660.495 863.472 661.451Z" stroke="#000000" stroke-width="3.92996" stroke-linecap="round" fill="#FFFFFF" transform="matrix(0 -1 1.00012 0 1959.61 1312.72)"/><path d="M853.692 661.451C853.692 662.408 852.963 663.183 852.062 663.183 851.162 663.183 850.432 662.408 850.432 661.451 850.432 660.495 851.162 659.719 852.062 659.719 852.963 659.719 853.692 660.495 853.692 661.451Z" stroke="#000000" stroke-width="3.92996" stroke-linecap="round" fill="#FFFFFF" transform="matrix(0 -1 1.00012 0 1959.61 1312.72)"/></g></g></g><rect x="1595.5" y="1075.5" width="1109" height="725" stroke="#C00000" stroke-width="6.875" stroke-miterlimit="8" fill="#FFD1D1"/><text font-family="Arial,Arial_MSFontService,sans-serif" font-weight="700" font-size="73" transform="matrix(1 0 0 1 1798.68 1465)">AXI_LTC235X </text><text font-family="Arial,Arial_MSFontService,sans-serif" font-weight="700" font-size="73" transform="matrix(1 0 0 1 2289.37 1465)">COR</text><text font-family="Arial,Arial_MSFontService,sans-serif" font-weight="700" font-size="73" transform="matrix(1 0 0 1 2452.08 1465)">E</text><path d="M1505.5 1640 1520.84 1623.5 1520.84 1631.75 1598.5 1631.75 1598.5 1648.25 1520.84 1648.25 1520.84 1656.5Z" stroke="#C00000" stroke-width="4.58333" stroke-miterlimit="8" fill="#C00000" fill-rule="evenodd"/><path d="M1502.5 1704 1517.84 1687.5 1517.84 1695.75 1595.5 1695.75 1595.5 1712.25 1517.84 1712.25 1517.84 1720.5Z" stroke="#C00000" stroke-width="4.58333" stroke-miterlimit="8" fill="#C00000" fill-rule="evenodd"/><text font-family="Arial,Arial_MSFontService,sans-serif" font-weight="400" font-size="55" transform="matrix(1 0 0 1 2859.6 1116)">SDO[7:0]</text><text font-family="Arial,Arial_MSFontService,sans-serif" font-weight="400" font-size="55" transform="matrix(1 0 0 1 2894.84 1215)">SCKO</text><text font-family="Arial,Arial_MSFontService,sans-serif" font-weight="400" font-size="55" transform="matrix(1 0 0 1 2908.59 1314)">SCKI</text><text font-family="Arial,Arial_MSFontService,sans-serif" font-weight="400" font-size="55" transform="matrix(1 0 0 1 2926.93 1413)">SDI</text><text font-family="Arial,Arial_MSFontService,sans-serif" font-weight="400" font-size="55" transform="matrix(1 0 0 1 2810.9 1611)">LVDS</text><text font-family="Arial,Arial_MSFontService,sans-serif" font-weight="400" font-size="55" transform="matrix(1 0 0 1 2954.13 1611)">/CMOS</text><text font-family="Arial,Arial_MSFontService,sans-serif" font-weight="400" font-size="55" transform="matrix(1 0 0 1 2897.98 1710)">BUSY</text><path d="M3201.99 1735.16 2723.78 1735.16 2723.78 1724.84 3201.99 1724.84ZM2728.94 1745.47 2698 1730 2728.94 1714.53Z"/><path d="M3211.99 1139.16 2733.78 1139.16 2733.78 1128.84 3211.99 1128.84ZM2738.94 1149.47 2708 1134 2738.94 1118.53Z"/><path d="M2708 1323.84 3187.32 1323.84 3187.32 1334.16 2708 1334.16ZM3182.17 1313.53 3213.1 1329 3182.17 1344.47Z"/><path d="M3211.99 1241.16 2733.78 1241.16 2733.78 1230.84 3211.99 1230.84ZM2738.94 1251.47 2708 1236 2738.94 1220.53Z"/><path d="M2708 1423.84 3187.32 1423.84 3187.32 1434.16 2708 1434.16ZM3182.17 1413.53 3213.1 1429 3182.17 1444.47Z"/><path d="M2702 1622.84 3181.32 1622.84 3181.32 1633.16 2702 1633.16ZM3176.17 1612.53 3207.1 1628 3176.17 1643.47Z"/><path d="M1500.5 1500 1515.84 1483.5 1515.84 1491.75 1593.5 1491.75 1593.5 1508.25 1515.84 1508.25 1515.84 1516.5Z" stroke="#C00000" stroke-width="4.58333" stroke-miterlimit="8" fill="#C00000" fill-rule="evenodd"/><path d="M1499.5 1574 1514.84 1557.5 1514.84 1565.75 1592.5 1565.75 1592.5 1582.25 1514.84 1582.25 1514.84 1590.5Z" stroke="#C00000" stroke-width="4.58333" stroke-miterlimit="8" fill="#C00000" fill-rule="evenodd"/><path d="M1502.5 1283 1517.84 1266.5 1517.84 1274.75 1595.5 1274.75 1595.5 1291.25 1517.84 1291.25 1517.84 1299.5Z" stroke="#C00000" stroke-width="4.58333" stroke-miterlimit="8" fill="#C00000" fill-rule="evenodd"/><path d="M1498.5 1432 1513.84 1415.5 1513.84 1423.75 1591.5 1423.75 1591.5 1440.25 1513.84 1440.25 1513.84 1448.5Z" stroke="#C00000" stroke-width="4.58333" stroke-miterlimit="8" fill="#C00000" fill-rule="evenodd"/><path d="M1500.5 1360 1515.84 1343.5 1515.84 1351.75 1593.5 1351.75 1593.5 1368.25 1515.84 1368.25 1515.84 1376.5Z" stroke="#C00000" stroke-width="4.58333" stroke-miterlimit="8" fill="#C00000" fill-rule="evenodd"/><path d="M1499.5 1210 1514.84 1193.5 1514.84 1201.75 1592.5 1201.75 1592.5 1218.25 1514.84 1218.25 1514.84 1226.5Z" stroke="#C00000" stroke-width="4.58333" stroke-miterlimit="8" fill="#C00000" fill-rule="evenodd"/><path d="M1060.5 1492 1103.73 1429.5 1103.73 1460.75 1153.5 1460.75 1153.5 1523.25 1103.73 1523.25 1103.73 1554.5Z" stroke="#C00000" stroke-width="4.58333" stroke-miterlimit="8" fill="#C00000" fill-rule="evenodd"/><path d="M1292.5 1489 1335.73 1426.5 1335.73 1457.75 1385.5 1457.75 1385.5 1520.25 1335.73 1520.25 1335.73 1551.5Z" stroke="#C00000" stroke-width="4.58333" stroke-miterlimit="8" fill="#C00000" fill-rule="evenodd"/><rect x="2052.5" y="1849.5" width="656" height="133" stroke="#000000" stroke-width="6.875" stroke-miterlimit="8" fill="#E7E6E6"/><text font-family="Arial,Arial_MSFontService,sans-serif" font-weight="700" font-size="73" transform="matrix(1 0 0 1 2129.29 1942)">AXI</text><text font-family="Arial,Arial_MSFontService,sans-serif" font-weight="700" font-size="73" transform="matrix(1 0 0 1 2271.94 1942)">PWM </text><text font-family="Arial,Arial_MSFontService,sans-serif" font-weight="700" font-size="73" transform="matrix(1 0 0 1 2471.89 1942)">GEN</text><text font-family="Arial,Arial_MSFontService,sans-serif" font-weight="400" font-size="55" transform="matrix(1 0 0 1 2905.2 1898)">CNV</text><path d="M2708 1910.84 3205.09 1910.84 3205.09 1921.16 2708 1921.16ZM3199.94 1900.53 3230.88 1916 3199.94 1931.47Z"/></g></svg>