<svg width="768" height="624" xmlns="http://www.w3.org/2000/svg" xmlns:xlink="http://www.w3.org/1999/xlink" overflow="hidden"><g><rect x="0" y="0" width="768" height="624" fill="#FFFFFF"/><path d="M571.531 170.499 736.531 170.499 736.531 371.5 571.531 371.5Z" stroke="#000000" stroke-width="0.851968" stroke-linecap="square" stroke-linejoin="round" stroke-miterlimit="10" fill="#000000" fill-rule="evenodd" fill-opacity="0"/><text font-family="Arial,Arial_MSFontService,sans-serif" font-weight="400" font-size="17.5067" transform="translate(647.691 185)">MAX96724</text><path d="M709.045 212.635 662.712 212.635 662.712 210.969 709.045 210.969ZM664.045 215.802 656.045 211.802 664.045 207.802Z"/><path d="M709.603 198.466 733.603 198.466 733.603 226.466 709.603 226.466Z" stroke="#000000" stroke-width="1.24483" stroke-miterlimit="8" fill="#FFFFFF" fill-rule="evenodd"/><text font-family="Arial,Arial_MSFontService,sans-serif" font-weight="400" font-size="8.74667" transform="translate(711.359 215)">SIOA</text><path d="M709.603 234.466 733.603 234.466 733.603 262.466 709.603 262.466Z" stroke="#000000" stroke-width="1.24483" stroke-miterlimit="8" fill="#FFFFFF" fill-rule="evenodd"/><text font-family="Arial,Arial_MSFontService,sans-serif" font-weight="400" font-size="8.74667" transform="translate(710.402 251)">SIOB</text><text font-family="Arial,Arial_MSFontService,sans-serif" font-weight="400" font-size="8.74667" transform="translate(504.542 237)">MIPI D</text><text font-family="Arial,Arial_MSFontService,sans-serif" font-weight="400" font-size="8.74667" transform="translate(531.542 237)">-</text><text font-family="Arial,Arial_MSFontService,sans-serif" font-weight="400" font-size="8.74667" transform="translate(534.376 237)">PHY</text><text font-family="Arial,Arial_MSFontService,sans-serif" font-weight="400" font-size="8.74667" transform="translate(510.342 260)">4 Lanes</text><path d="M258.194 74.3649 258.194 58.6982 260.031 58.6982 260.031 74.3649ZM263.112 73.0316 259.112 81.0316 255.112 73.0316ZM255.112 60.0316 259.112 52.0316 263.112 60.0316Z"/><path d="M0.0550512 0.0227283 410.055 0.0227283 410.055 73.0227 0.0550512 73.0227Z" stroke="#000000" stroke-width="2.61659" stroke-linecap="square" stroke-linejoin="round" stroke-miterlimit="10" fill="#EBEBEB" fill-rule="evenodd" transform="matrix(-1 1.22465e-16 1.22465e-16 1 470.5 84.5001)"/><path d="M370.033 84.0229 370.033 157.023" stroke="#000000" stroke-width="2.44945" stroke-miterlimit="8" fill="none" fill-rule="evenodd"/><path d="M343.031 84.0229 343.031 157.023" stroke="#000000" stroke-width="2.44945" stroke-miterlimit="8" fill="none" fill-rule="evenodd"/><path d="M317.029 84.0229 317.029 157.023" stroke="#000000" stroke-width="2.44945" stroke-miterlimit="8" fill="none" fill-rule="evenodd"/><path d="M195.018 84.0229 195.018 157.023" stroke="#000000" stroke-width="2.44945" stroke-miterlimit="8" fill="none" fill-rule="evenodd"/><text font-family="Arial,Arial_MSFontService,sans-serif" font-weight="700" font-size="9.22667" transform="matrix(-1.83697e-16 -1 1 -1.83697e-16 386.514 133)">UART</text><text font-family="Arial,Arial_MSFontService,sans-serif" font-weight="700" font-size="9.22667" transform="matrix(-1.83697e-16 -1 1 -1.83697e-16 263.461 133)">DDRx</text><text font-family="Arial,Arial_MSFontService,sans-serif" font-weight="700" font-size="9.22667" transform="matrix(-1.83697e-16 -1 1 -1.83697e-16 449.052 128)">SPI</text><text font-family="Arial,Arial_MSFontService,sans-serif" font-weight="700" font-size="9.22667" transform="matrix(-1.83697e-16 -1 1 -1.83697e-16 411.399 128)">I</text><text font-family="Arial,Arial_MSFontService,sans-serif" font-weight="700" font-size="9.22667" transform="matrix(-1.83697e-16 -1 1 -1.83697e-16 406.399 125)">2</text><text font-family="Arial,Arial_MSFontService,sans-serif" font-weight="700" font-size="9.22667" transform="matrix(-1.83697e-16 -1 1 -1.83697e-16 411.399 120)">C</text><text font-family="Arial,Arial_MSFontService,sans-serif" font-weight="700" font-size="9.22667" transform="matrix(-1.83697e-16 -1 1 -1.83697e-16 359.783 142)">Interrupts</text><text font-family="Arial,Arial_MSFontService,sans-serif" font-weight="700" font-size="12.3067" transform="translate(85.694 122)">ZynqMPSoC</text><text font-family="Arial,Arial_MSFontService,sans-serif" font-weight="700" font-size="9.22667" transform="matrix(-1.83697e-16 -1 1 -1.83697e-16 332.21 133)">Timer</text><path d="M396.035 84.0226 396.035 156.023" stroke="#000000" stroke-width="2.44945" stroke-miterlimit="8" fill="none" fill-rule="evenodd"/><path d="M423.038 84.0229 423.038 157.023" stroke="#000000" stroke-width="2.44945" stroke-miterlimit="8" fill="none" fill-rule="evenodd"/><path d="M251.47 50.4298 251.47 9.42967 267.47 9.42967 267.47 50.4298Z" stroke="#000000" stroke-width="1.39202" stroke-linecap="round" stroke-linejoin="round" stroke-miterlimit="10" fill="#FFFFFF" fill-rule="evenodd"/><path d="M254.471 47.4338 254.471 41.4338 264.471 41.4338 264.471 47.4338Z" stroke="#000000" stroke-width="1.1747" stroke-linecap="round" stroke-linejoin="round" stroke-miterlimit="10" stroke-opacity="0.670588" fill-rule="evenodd"/><path d="M254.47 38.4235 254.47 31.4234 264.47 31.4234 264.47 38.4235Z" stroke="#000000" stroke-width="1.1747" stroke-linecap="round" stroke-linejoin="round" stroke-miterlimit="10" stroke-opacity="0.670588" fill-rule="evenodd"/><path d="M254.468 19.4354 254.468 13.4354 264.468 13.4354 264.468 19.4354Z" stroke="#000000" stroke-width="1.1747" stroke-linecap="round" stroke-linejoin="round" stroke-miterlimit="10" stroke-opacity="0.670588" fill-rule="evenodd"/><path d="M254.469 28.4349 254.469 22.4349 264.469 22.4349 264.469 28.4349Z" stroke="#000000" stroke-width="1.1747" stroke-linecap="round" stroke-linejoin="round" stroke-miterlimit="10" stroke-opacity="0.670588" fill-rule="evenodd"/><path d="M267.723 47.466 272.499 47.466 272.499 13.466 267.499 13.466" stroke="#000000" stroke-width="0.95811" stroke-miterlimit="8" fill="none" fill-rule="evenodd"/><path d="M270.999 43.9471 268.999 43.9471" stroke="#000000" stroke-width="1.85669" stroke-linecap="round" stroke-miterlimit="8" fill="none" fill-rule="evenodd"/><path d="M270.999 18.9441 268.999 18.9441" stroke="#000000" stroke-width="1.85669" stroke-linecap="round" stroke-miterlimit="8" fill="none" fill-rule="evenodd"/><path d="M270.999 21.9445 268.999 21.9445" stroke="#000000" stroke-width="1.85669" stroke-linecap="round" stroke-miterlimit="8" fill="none" fill-rule="evenodd"/><path d="M270.999 24.9449 268.999 24.9449" stroke="#000000" stroke-width="1.85669" stroke-linecap="round" stroke-miterlimit="8" fill="none" fill-rule="evenodd"/><path d="M270.999 27.9452 268.999 27.9452" stroke="#000000" stroke-width="1.85669" stroke-linecap="round" stroke-miterlimit="8" fill="none" fill-rule="evenodd"/><path d="M270.999 30.9456 268.999 30.9456" stroke="#000000" stroke-width="1.85669" stroke-linecap="round" stroke-miterlimit="8" fill="none" fill-rule="evenodd"/><path d="M270.999 33.946 268.999 33.946" stroke="#000000" stroke-width="1.85669" stroke-linecap="round" stroke-miterlimit="8" fill="none" fill-rule="evenodd"/><path d="M270.999 37.9463 268.999 37.9463" stroke="#000000" stroke-width="1.85669" stroke-linecap="round" stroke-miterlimit="8" fill="none" fill-rule="evenodd"/><path d="M270.999 40.9467 268.999 40.9467" stroke="#000000" stroke-width="1.85669" stroke-linecap="round" stroke-miterlimit="8" fill="none" fill-rule="evenodd"/><path d="M270.999 18.9441 268.999 18.9441" stroke="#000000" stroke-width="1.85669" stroke-linecap="round" stroke-miterlimit="8" fill="none" fill-rule="evenodd"/><path d="M270.999 15.9438 268.999 15.9438" stroke="#000000" stroke-width="1.85669" stroke-linecap="round" stroke-miterlimit="8" fill="none" fill-rule="evenodd"/><path d="M378.467 20.494C378.467 20.494 379.378 20.494 380.502 20.494L389.433 20.494C390.556 20.494 391.467 20.494 391.467 20.494L391.467 48.494C391.467 48.494 390.556 48.494 389.433 48.494L380.502 48.494C379.378 48.494 378.467 48.494 378.467 48.494Z" stroke="#000000" stroke-width="1.22467" stroke-linecap="round" stroke-miterlimit="8" fill="#FFFFFF" fill-rule="evenodd"/><path d="M381.47 41.5671 381.47 26.4146C381.47 25.3937 382.392 24.1717 383.351 24.5717L386.589 25.9232C387.548 26.3232 388.47 27.3594 388.47 28.3803L388.47 39.7652C388.47 40.7861 387.539 41.5564 386.589 41.9767L383.351 43.41C382.401 43.8302 381.47 42.5881 381.47 41.5671Z" stroke="#000000" stroke-width="1.22467" stroke-linecap="round" stroke-miterlimit="8" fill="#FFFFFF" fill-rule="evenodd"/><path d="M384.968 44.4936C385.796 44.4936 386.468 44.9412 386.468 45.4936 386.468 46.0458 385.796 46.4936 384.968 46.4936 384.139 46.4936 383.468 46.0458 383.468 45.4936 383.468 44.9412 384.139 44.4936 384.968 44.4936Z" stroke="#000000" stroke-width="1.22467" stroke-linecap="round" stroke-miterlimit="8" fill="#FFFFFF" fill-rule="evenodd"/><path d="M384.964 21.4958C385.793 21.4958 386.464 22.1675 386.464 22.9958 386.464 23.8243 385.793 24.4958 384.964 24.4958 384.136 24.4958 383.464 23.8243 383.464 22.9958 383.464 22.1675 384.136 21.4958 384.964 21.4958Z" stroke="#000000" stroke-width="1.22467" stroke-linecap="round" stroke-miterlimit="8" fill="#FFFFFF" fill-rule="evenodd"/><path d="M383.967 38.4915C384.243 38.4915 384.467 38.7153 384.467 38.9915 384.467 39.2677 384.243 39.4915 383.967 39.4915 383.691 39.4915 383.467 39.2677 383.467 38.9915 383.467 38.7153 383.691 38.4915 383.967 38.4915Z" stroke="#000000" stroke-width="1.22467" stroke-linecap="round" stroke-miterlimit="8" fill="#FFFFFF" fill-rule="evenodd"/><path d="M383.966 29.4941C384.242 29.4941 384.466 29.7179 384.466 29.994 384.466 30.2702 384.242 30.4941 383.966 30.4941 383.689 30.4941 383.466 30.2702 383.466 29.994 383.466 29.7179 383.689 29.4941 383.966 29.4941Z" stroke="#000000" stroke-width="1.22467" stroke-linecap="round" stroke-miterlimit="8" fill="#FFFFFF" fill-rule="evenodd"/><path d="M383.966 31.4935C384.242 31.4935 384.466 31.7172 384.466 31.9934 384.466 32.2696 384.242 32.4935 383.966 32.4935 383.69 32.4935 383.466 32.2696 383.466 31.9934 383.466 31.7172 383.69 31.4935 383.966 31.4935Z" stroke="#000000" stroke-width="1.22467" stroke-linecap="round" stroke-miterlimit="8" fill="#FFFFFF" fill-rule="evenodd"/><path d="M383.966 33.4928C384.243 33.4928 384.466 33.7166 384.466 33.9928 384.466 34.2689 384.243 34.4928 383.966 34.4928 383.69 34.4928 383.466 34.2689 383.466 33.9928 383.466 33.7166 383.69 33.4928 383.966 33.4928Z" stroke="#000000" stroke-width="1.22467" stroke-linecap="round" stroke-miterlimit="8" fill="#FFFFFF" fill-rule="evenodd"/><path d="M383.967 36.4922C384.243 36.4922 384.467 36.7159 384.467 36.9921 384.467 37.2683 384.243 37.4922 383.967 37.4922 383.691 37.4922 383.467 37.2683 383.467 36.9921 383.467 36.7159 383.691 36.4922 383.967 36.4922Z" stroke="#000000" stroke-width="1.22467" stroke-linecap="round" stroke-miterlimit="8" fill="#FFFFFF" fill-rule="evenodd"/><path d="M385.966 37.4914C386.243 37.4914 386.466 37.7152 386.466 37.9914 386.466 38.2675 386.243 38.4914 385.966 38.4914 385.69 38.4914 385.466 38.2675 385.466 37.9914 385.466 37.7152 385.69 37.4914 385.966 37.4914Z" stroke="#000000" stroke-width="1.22467" stroke-linecap="round" stroke-miterlimit="8" fill="#FFFFFF" fill-rule="evenodd"/><path d="M385.965 30.4933C386.241 30.4933 386.465 30.7171 386.465 30.9933 386.465 31.2695 386.241 31.4933 385.965 31.4933 385.689 31.4933 385.465 31.2695 385.465 30.9933 385.465 30.7171 385.689 30.4933 385.965 30.4933Z" stroke="#000000" stroke-width="1.22467" stroke-linecap="round" stroke-miterlimit="8" fill="#FFFFFF" fill-rule="evenodd"/><path d="M385.966 32.4927C386.242 32.4927 386.466 32.7165 386.466 32.9927 386.466 33.2688 386.242 33.4927 385.966 33.4927 385.689 33.4927 385.466 33.2688 385.466 32.9927 385.466 32.7165 385.689 32.4927 385.966 32.4927Z" stroke="#000000" stroke-width="1.22467" stroke-linecap="round" stroke-miterlimit="8" fill="#FFFFFF" fill-rule="evenodd"/><path d="M385.966 35.4921C386.242 35.4921 386.466 35.7158 386.466 35.992 386.466 36.2682 386.242 36.4921 385.966 36.4921 385.69 36.4921 385.466 36.2682 385.466 35.992 385.466 35.7158 385.69 35.4921 385.966 35.4921Z" stroke="#000000" stroke-width="1.22467" stroke-linecap="round" stroke-miterlimit="8" fill="#FFFFFF" fill-rule="evenodd"/><path d="M0.0178353 0.006586 525.018 0.006586 525.018 512.007 0.0178353 512.007Z" stroke="#000000" stroke-width="2.3663" stroke-linecap="square" stroke-linejoin="round" stroke-miterlimit="10" fill="#000000" fill-rule="evenodd" fill-opacity="0" transform="matrix(-1 0 0 1 565 68)"/><text fill="#000000" fill-opacity="0.858824" font-family="Arial,Arial_MSFontService,sans-serif" font-weight="700" font-size="16.4133" transform="translate(48.3453 568)">K26 Industrial SOM</text><path d="M558.531 171.501 576.531 171.501 576.531 334.501 558.531 334.501Z" stroke="#000000" stroke-width="1.25533" stroke-linecap="square" stroke-linejoin="round" stroke-miterlimit="10" fill="#FFFFFF" fill-rule="evenodd"/><text font-family="Arial,Arial_MSFontService,sans-serif" font-weight="700" font-size="14.36" transform="matrix(-1.83697e-16 -1 1 -1.83697e-16 572.659 311)">CSI</text><text font-family="Arial,Arial_MSFontService,sans-serif" font-weight="700" font-size="14.36" transform="matrix(-1.83697e-16 -1 1 -1.83697e-16 572.659 288)">-</text><text font-family="Arial,Arial_MSFontService,sans-serif" font-weight="700" font-size="14.36" transform="matrix(-1.83697e-16 -1 1 -1.83697e-16 572.659 283)">2 INTERFACE</text><rect x="421.5" y="28.5001" width="49" height="19" stroke="#000000" stroke-linejoin="round" stroke-miterlimit="10" fill="none"/><text font-family="Arial,Arial_MSFontService,sans-serif" font-weight="700" font-size="8.74667" transform="translate(429.681 41)">AD9545</text><path d="M709.603 275.466 733.603 275.466 733.603 303.466 709.603 303.466Z" stroke="#000000" stroke-width="1.24483" stroke-miterlimit="8" fill="#FFFFFF" fill-rule="evenodd"/><text font-family="Arial,Arial_MSFontService,sans-serif" font-weight="400" font-size="8.74667" transform="translate(710.402 293)">SIOC</text><path d="M709.603 316.466 733.603 316.466 733.603 344.466 709.603 344.466Z" stroke="#000000" stroke-width="1.24483" stroke-miterlimit="8" fill="#FFFFFF" fill-rule="evenodd"/><text font-family="Arial,Arial_MSFontService,sans-serif" font-weight="400" font-size="8.74667" transform="translate(710.402 334)">SIOD</text><path d="M660.5 344.5C658.291 344.5 656.5 344.202 656.5 343.833L656.5 271.667C656.5 271.299 654.709 271 652.5 271 654.709 271 656.5 270.702 656.5 270.333L656.5 198.167C656.5 197.799 658.291 197.5 660.5 197.5" stroke="#000000" stroke-miterlimit="8" fill="none" fill-rule="evenodd"/><path d="M709.045 248.685 662.712 248.685 662.712 247.018 709.045 247.018ZM664.045 251.852 656.045 247.852 664.045 243.852Z"/><path d="M53.0452 0.635384 6.71181 0.635384 6.71181-1.03128 53.0452-1.03128ZM8.04515 3.80205 0.0451523-0.197949 8.04515-4.19795Z" transform="matrix(1 0 0 -1 656 289)"/><path d="M709.045 330.635 662.712 330.635 662.712 328.969 709.045 328.969ZM664.045 333.802 656.045 329.802 664.045 325.802Z"/><path d="M655.003 270.157 628.001 270.157 628.001 220 629.001 221 609.667 221 609.667 219 630.001 219 630.001 269.157 629.001 268.157 655.003 268.157ZM611 224 603 220 611 216Z"/><path d="M579.603 206.466 603.603 206.466 603.603 234.466 579.603 234.466Z" stroke="#000000" stroke-width="1.24483" stroke-miterlimit="8" fill="#FFFFFF" fill-rule="evenodd"/><text font-family="Arial,Arial_MSFontService,sans-serif" font-weight="400" font-size="8.74667" transform="translate(581.014 224)">C</text><text font-family="Arial,Arial_MSFontService,sans-serif" font-weight="400" font-size="8.74667" transform="translate(587.348 224)">SI1</text><path d="M579.603 277.467 603.603 277.467 603.603 304.467 579.603 304.467Z" stroke="#000000" stroke-width="1.24483" stroke-miterlimit="8" fill="#FFFFFF" fill-rule="evenodd"/><text font-family="Arial,Arial_MSFontService,sans-serif" font-weight="400" font-size="8.74667" transform="translate(581.014 294)">C</text><text font-family="Arial,Arial_MSFontService,sans-serif" font-weight="400" font-size="8.74667" transform="translate(587.348 294)">SI2</text><path d="M570.531 375.499 736.531 375.499 736.531 576.5 570.531 576.5Z" stroke="#000000" stroke-width="0.851968" stroke-linecap="square" stroke-linejoin="round" stroke-miterlimit="10" fill="#000000" fill-rule="evenodd" fill-opacity="0"/><path d="M709.045 436.635 662.712 436.635 662.712 434.969 709.045 434.969ZM664.045 439.802 656.045 435.802 664.045 431.802Z"/><path d="M709.603 422.466 733.603 422.466 733.603 450.466 709.603 450.466Z" stroke="#000000" stroke-width="1.24483" stroke-miterlimit="8" fill="#FFFFFF" fill-rule="evenodd"/><text font-family="Arial,Arial_MSFontService,sans-serif" font-weight="400" font-size="8.74667" transform="translate(711.037 440)">SIOA</text><path d="M709.603 458.466 733.603 458.466 733.603 486.466 709.603 486.466Z" stroke="#000000" stroke-width="1.24483" stroke-miterlimit="8" fill="#FFFFFF" fill-rule="evenodd"/><text font-family="Arial,Arial_MSFontService,sans-serif" font-weight="400" font-size="8.74667" transform="translate(710.08 476)">SIOB</text><path d="M558.531 410.501 576.531 410.501 576.531 574.501 558.531 574.501Z" stroke="#000000" stroke-width="1.25533" stroke-linecap="square" stroke-linejoin="round" stroke-miterlimit="10" fill="#FFFFFF" fill-rule="evenodd"/><text font-family="Arial,Arial_MSFontService,sans-serif" font-weight="700" font-size="14.36" transform="matrix(-1.83697e-16 -1 1 -1.83697e-16 572.465 551)">CSI</text><text font-family="Arial,Arial_MSFontService,sans-serif" font-weight="700" font-size="14.36" transform="matrix(-1.83697e-16 -1 1 -1.83697e-16 572.465 527)">-</text><text font-family="Arial,Arial_MSFontService,sans-serif" font-weight="700" font-size="14.36" transform="matrix(-1.83697e-16 -1 1 -1.83697e-16 572.465 522)">2 INTERFACE</text><path d="M709.603 500.466 733.603 500.466 733.603 528.466 709.603 528.466Z" stroke="#000000" stroke-width="1.24483" stroke-miterlimit="8" fill="#FFFFFF" fill-rule="evenodd"/><text font-family="Arial,Arial_MSFontService,sans-serif" font-weight="400" font-size="8.74667" transform="translate(710.08 517)">SIOC</text><path d="M709.603 541.466 733.603 541.466 733.603 569.466 709.603 569.466Z" stroke="#000000" stroke-width="1.24483" stroke-miterlimit="8" fill="#FFFFFF" fill-rule="evenodd"/><text font-family="Arial,Arial_MSFontService,sans-serif" font-weight="400" font-size="8.74667" transform="translate(710.08 559)">SIOD</text><path d="M659.5 568.5C657.567 568.5 656 568.239 656 567.917L656 495.583C656 495.261 654.433 495 652.5 495 654.433 495 656 494.739 656 494.417L656 422.083C656 421.761 657.567 421.5 659.5 421.5" stroke="#000000" stroke-miterlimit="8" fill="none" fill-rule="evenodd"/><path d="M709.045 472.635 662.712 472.635 662.712 470.969 709.045 470.969ZM664.045 475.802 656.045 471.802 664.045 467.802Z"/><path d="M53.0452 0.635384 6.71181 0.635384 6.71181-1.03128 53.0452-1.03128ZM8.04515 3.80205 0.0451523-0.197949 8.04515-4.19795Z" transform="matrix(1 0 0 -1 656 513)"/><path d="M709.045 554.635 662.712 554.635 662.712 552.969 709.045 552.969ZM664.045 557.802 656.045 553.802 664.045 549.802Z"/><path d="M654.003 496.157 627.001 496.157 627.001 446 628.001 447 608.667 447 608.667 445 629.001 445 629.001 495.157 628.001 494.157 654.003 494.157ZM610 450 602 446 610 442Z"/><path d="M578.603 430.466 602.603 430.466 602.603 458.466 578.603 458.466Z" stroke="#000000" stroke-width="1.24483" stroke-miterlimit="8" fill="#FFFFFF" fill-rule="evenodd"/><text font-family="Arial,Arial_MSFontService,sans-serif" font-weight="400" font-size="8.74667" transform="translate(580.576 448)">C</text><text font-family="Arial,Arial_MSFontService,sans-serif" font-weight="400" font-size="8.74667" transform="translate(586.909 448)">SI1</text><path d="M579.603 511.466 603.603 511.466 603.603 539.466 579.603 539.466Z" stroke="#000000" stroke-width="1.24483" stroke-miterlimit="8" fill="#FFFFFF" fill-rule="evenodd"/><text font-family="Arial,Arial_MSFontService,sans-serif" font-weight="400" font-size="8.74667" transform="translate(580.761 528)">C</text><text font-family="Arial,Arial_MSFontService,sans-serif" font-weight="400" font-size="8.74667" transform="translate(587.094 528)">SI2</text><path d="M292.852 331.461 374.852 331.461 374.852 363.461 292.852 363.461Z" stroke="#000000" stroke-width="1.24483" stroke-miterlimit="8" fill="#FFFFFF" fill-rule="evenodd"/><text font-family="Arial,Arial_MSFontService,sans-serif" font-weight="400" font-size="8.74667" transform="translate(306.735 345)">I2C controller</text><text font-family="Arial,Arial_MSFontService,sans-serif" font-weight="400" font-size="8.74667" transform="translate(328.568 355)">IP</text><path d="M482.5 482 497.986 470.5 497.986 478.617 557.5 478.617 557.5 485.383 497.986 485.383 497.986 493.5Z" stroke="#000000" stroke-width="1.33333" stroke-miterlimit="8" fill="#FFFFFF" fill-rule="evenodd"/><text font-family="Arial,Arial_MSFontService,sans-serif" font-weight="400" font-size="8.74667" transform="translate(503.953 472)">MIPI D</text><text font-family="Arial,Arial_MSFontService,sans-serif" font-weight="400" font-size="8.74667" transform="translate(530.953 472)">-</text><text font-family="Arial,Arial_MSFontService,sans-serif" font-weight="400" font-size="8.74667" transform="translate(533.786 472)">PHY</text><text font-family="Arial,Arial_MSFontService,sans-serif" font-weight="400" font-size="8.74667" transform="translate(511.244 496)">4 Lanes</text><path d="M482.5 246 497.986 234.5 497.986 242.617 557.5 242.617 557.5 249.383 497.986 249.383 497.986 257.5Z" stroke="#000000" stroke-width="1.33333" stroke-miterlimit="8" fill="#FFFFFF" fill-rule="evenodd"/><path d="M393.878 460.449 481.878 460.449 481.878 502.449 393.878 502.449Z" stroke="#000000" stroke-width="1.24483" stroke-miterlimit="8" fill="#FFFFFF" fill-rule="evenodd"/><text font-family="Arial,Arial_MSFontService,sans-serif" font-weight="400" font-size="8.74667" transform="translate(403.543 474)">Xilinx MIPI CSI</text><text font-family="Arial,Arial_MSFontService,sans-serif" font-weight="400" font-size="8.74667" transform="translate(462.376 474)">-</text><text font-family="Arial,Arial_MSFontService,sans-serif" font-weight="400" font-size="8.74667" transform="translate(465.209 474)">2</text><text font-family="Arial,Arial_MSFontService,sans-serif" font-weight="400" font-size="8.74667" transform="translate(419.623 484)">Receiver</text><text font-family="Arial,Arial_MSFontService,sans-serif" font-weight="400" font-size="8.74667" transform="translate(415.209 494)">Subsystem</text><path d="M392.878 225.451 480.878 225.451 480.878 266.451 392.878 266.451Z" stroke="#000000" stroke-width="1.24483" stroke-miterlimit="8" fill="#FFFFFF" fill-rule="evenodd"/><text font-family="Arial,Arial_MSFontService,sans-serif" font-weight="400" font-size="8.74667" transform="translate(402.64 238)">Xilinx MIPI CSI</text><text font-family="Arial,Arial_MSFontService,sans-serif" font-weight="400" font-size="8.74667" transform="translate(461.474 238)">-</text><text font-family="Arial,Arial_MSFontService,sans-serif" font-weight="400" font-size="8.74667" transform="translate(464.307 238)">2</text><text font-family="Arial,Arial_MSFontService,sans-serif" font-weight="400" font-size="8.74667" transform="translate(418.72 248)">Receiver</text><text font-family="Arial,Arial_MSFontService,sans-serif" font-weight="400" font-size="8.74667" transform="translate(414.307 258)">Subsystem</text><path d="M306.5 245 321.986 233.5 321.986 241.617 392.5 241.617 392.5 248.383 321.986 248.383 321.986 256.5Z" stroke="#000000" stroke-width="1.33333" stroke-miterlimit="8" fill="#FFFFFF" fill-rule="evenodd"/><text font-family="Arial,Arial_MSFontService,sans-serif" font-weight="400" font-size="8.74667" transform="translate(344.441 235)">AXIS</text><text font-family="Arial,Arial_MSFontService,sans-serif" font-weight="400" font-size="8.74667" transform="translate(326.708 259)">YUV422</text><text font-family="Arial,Arial_MSFontService,sans-serif" font-weight="400" font-size="8.74667" transform="translate(361.708 259)">-</text><text font-family="Arial,Arial_MSFontService,sans-serif" font-weight="400" font-size="8.74667" transform="translate(367.042 259)">4</text><text font-family="Arial,Arial_MSFontService,sans-serif" font-weight="400" font-size="8.74667" transform="translate(374.375 259)">ppc</text><path d="M307.5 483 322.986 471.5 322.986 479.617 393.5 479.617 393.5 486.383 322.986 486.383 322.986 494.5Z" stroke="#000000" stroke-width="1.33333" stroke-miterlimit="8" fill="#FFFFFF" fill-rule="evenodd"/><text font-family="Arial,Arial_MSFontService,sans-serif" font-weight="400" font-size="8.74667" transform="translate(347.888 472)">AXIS</text><text font-family="Arial,Arial_MSFontService,sans-serif" font-weight="400" font-size="8.74667" transform="translate(326.094 497)">YUV422</text><text font-family="Arial,Arial_MSFontService,sans-serif" font-weight="400" font-size="8.74667" transform="translate(361.094 497)">-</text><text font-family="Arial,Arial_MSFontService,sans-serif" font-weight="400" font-size="8.74667" transform="translate(366.428 497)">4</text><text font-family="Arial,Arial_MSFontService,sans-serif" font-weight="400" font-size="8.74667" transform="translate(373.761 497)">ppc</text><path d="M216.882 231.466 305.882 231.466 305.882 259.466 216.882 259.466Z" stroke="#000000" stroke-width="1.24483" stroke-miterlimit="8" fill="#FFFFFF" fill-rule="evenodd"/><text font-family="Arial,Arial_MSFontService,sans-serif" font-weight="400" font-size="8.74667" transform="translate(249.874 244)">Xilinx</text><text font-family="Arial,Arial_MSFontService,sans-serif" font-weight="400" font-size="8.74667" transform="translate(236.208 254)">AXIS Switch</text><path d="M172 504C162.611 504 155 502.731 155 501.167L155 365.833C155 364.268 147.389 363 138 363 147.389 363 155 361.732 155 360.167L155 224.833C155 223.268 162.611 222 172 222" stroke="#000000" stroke-width="2" stroke-miterlimit="8" fill="none" fill-rule="evenodd"/><path d="M160.5 234 173.107 228.5 173.107 231.206 216.5 231.206 216.5 236.794 173.107 236.794 173.107 239.5Z" stroke="#000000" stroke-width="1.33333" stroke-miterlimit="8" fill="#FFFFFF" fill-rule="evenodd"/><path d="M161.5 256 174.107 250.5 174.107 253.206 216.5 253.206 216.5 258.794 174.107 258.794 174.107 261.5Z" stroke="#000000" stroke-width="1.33333" stroke-miterlimit="8" fill="#FFFFFF" fill-rule="evenodd"/><text font-family="Aptos,Aptos_MSFontService,sans-serif" font-weight="400" font-size="14.64" transform="translate(191.367 243)">.</text><text font-family="Aptos,Aptos_MSFontService,sans-serif" font-weight="400" font-size="14.64" transform="translate(191.2 248)">.</text><path d="M217.882 468.466 306.882 468.466 306.882 496.466 217.882 496.466Z" stroke="#000000" stroke-width="1.24483" stroke-miterlimit="8" fill="#FFFFFF" fill-rule="evenodd"/><text font-family="Arial,Arial_MSFontService,sans-serif" font-weight="400" font-size="8.74667" transform="translate(251.014 482)">Xilinx</text><text font-family="Arial,Arial_MSFontService,sans-serif" font-weight="400" font-size="8.74667" transform="translate(237.348 492)">AXIS Switch</text><path d="M162.5 471.5 176.253 465.5 176.253 468.452 217.5 468.452 217.5 474.548 176.253 474.548 176.253 477.5Z" stroke="#000000" stroke-width="1.33333" stroke-miterlimit="8" fill="#FFFFFF" fill-rule="evenodd"/><path d="M162.5 493 175.107 487.5 175.107 490.206 217.5 490.206 217.5 495.794 175.107 495.794 175.107 498.5Z" stroke="#000000" stroke-width="1.33333" stroke-miterlimit="8" fill="#FFFFFF" fill-rule="evenodd"/><text font-family="Aptos,Aptos_MSFontService,sans-serif" font-weight="400" font-size="14.64" transform="translate(194.375 486)">.</text><text font-family="Aptos,Aptos_MSFontService,sans-serif" font-weight="400" font-size="14.64" transform="translate(194.204 481)">.</text><path d="M46.8863 349.467 136.886 349.467 136.886 376.467 46.8863 376.467Z" stroke="#000000" stroke-width="1.24483" stroke-miterlimit="8" fill="#FFFFFF" fill-rule="evenodd"/><text font-family="Arial,Arial_MSFontService,sans-serif" font-weight="400" font-size="8.74667" transform="translate(59.5049 362)">RTP Networking</text><text font-family="Arial,Arial_MSFontService,sans-serif" font-weight="400" font-size="8.74667" transform="translate(80.4183 372)">Stack</text><path d="M230.77 177.466 293.77 177.466 293.77 205.466 230.77 205.466Z" stroke="#000000" stroke-width="1.24483" stroke-miterlimit="8" fill="#FFFFFF" fill-rule="evenodd"/><text font-family="Arial,Arial_MSFontService,sans-serif" font-weight="400" font-size="8.74667" transform="translate(240.947 190)">Corundum</text><text font-family="Arial,Arial_MSFontService,sans-serif" font-weight="400" font-size="8.74667" transform="translate(253.693 200)">NIC</text><path d="M522.477 47.4645C521.948 47.4234 520.064 47.2587 518.862 47.1487 518.519 47.1172 518.163 47.0859 518.071 47.0789 517.98 47.0716 517.39 47.0212 516.76 46.9661 516.131 46.9109 515.23 46.8326 514.759 46.792 513.371 46.6723 513.156 46.6446 513.062 46.5728 512.933 46.4737 510.487 41.7758 510.5 41.6522 510.509 41.5661 510.706 41.2149 511.242 40.3291 511.813 39.3863 512.36 38.4893 512.424 38.3907 512.458 38.3371 512.657 38.0054 512.866 37.6531 513.075 37.3009 513.293 36.9366 513.352 36.8434 513.411 36.7504 513.608 36.429 513.79 36.1293 514.833 34.4179 515.37 33.5387 516.03 32.4647 516.436 31.8054 517.15 30.6418 517.617 29.8792 518.591 28.2905 519.907 26.1511 520.575 25.0717 520.826 24.665 521.132 24.1672 521.253 23.9655 521.574 23.4327 521.393 23.4768 523.133 23.5067 524.748 23.5344 525.872 23.5518 526.227 23.5544 526.422 23.5563 526.736 23.56 526.923 23.5648 527.41 23.5759 527.641 23.5794 528.624 23.591 529.104 23.5966 529.709 23.6053 529.968 23.6101 530.227 23.6151 530.636 23.6195 530.877 23.6201 531.187 23.6207 531.333 23.6357 531.376 23.6702 531.477 23.7496 533.489 27.7012 533.499 27.8401 533.517 28.0584 533.237 28.6708 533.071 28.7775 532.972 28.8412 532.884 28.9755 532.626 29.4571 532.519 29.6566 532.407 29.861 532.376 29.9106 532.286 30.0571 531.588 31.2819 531.187 31.9976 530.808 32.6748 530.707 32.8532 530.327 33.5199 530.207 33.7323 529.924 34.2336 529.7 34.6347 529.475 35.0356 529.044 35.8053 528.741 36.3448 527.746 38.1166 525.687 41.8307 525.276 42.5967 524.91 43.2807 524.854 43.3952 524.856 43.4627 524.858 43.5003 524.835 43.5787 524.807 43.637 524.766 43.7198 523.7 45.7321 523.626 45.8665 523.616 45.8836 523.643 45.9691 523.685 46.0563 523.789 46.2713 523.779 46.3114 523.461 46.907 523.118 47.5501 523.174 47.5188 522.477 47.4648ZM521.778 44.8681C520.393 42.1598 520.509 42.3503 520.224 42.3004 520.146 42.2868 519.484 42.2375 518.754 42.191 518.023 42.1446 517.073 42.0816 516.641 42.0511 516.211 42.0206 515.619 41.9819 515.328 41.9651 515.036 41.9483 514.445 41.9097 514.014 41.8792 513.583 41.8487 513.097 41.8169 512.934 41.8083 512.408 41.7809 511.922 41.7513 511.315 41.7096 510.988 41.6873 510.718 41.6811 510.713 41.696 510.695 41.7514 513.075 46.3217 513.159 46.3929 513.25 46.4708 512.955 46.4404 517.059 46.7968 517.964 46.8753 518.552 46.9272 519.618 47.0225 520.51 47.1023 522.573 47.2806 522.795 47.2971 522.878 47.3035 522.961 47.3021 522.979 47.294 523.005 47.2828 522.757 46.7812 521.778 44.8682ZM520.996 46.9534C520.924 46.9496 520.606 46.9228 520.291 46.8937 519.976 46.8645 519.552 46.8287 519.35 46.8142 519.03 46.7912 518.657 46.7593 516.998 46.614 516.813 46.5977 516.373 46.5584 516.021 46.5267 515.669 46.4948 515.224 46.4582 515.032 46.4454 514.188 46.3889 514.124 46.3673 513.98 46.0877 513.888 45.9083 513.884 45.9052 513.682 45.8797 513.466 45.8524 513.336 45.8012 513.191 45.6877L513.068 45.59 512.261 44.031C511.414 42.3945 511.404 42.3706 511.48 42.2357 511.545 42.1194 511.62 42.0962 511.886 42.1092 512.352 42.1322 514.091 42.2393 514.802 42.289 515.196 42.3165 515.683 42.3481 515.883 42.359 516.083 42.3699 516.815 42.4155 517.509 42.4601 518.712 42.5373 519.317 42.5738 519.651 42.589 519.839 42.5976 520.041 42.6729 520.206 42.7959L520.333 42.8906 521.12 44.4085C522.011 46.1295 522.03 46.1726 521.978 46.3357 521.929 46.4908 521.812 46.5304 521.494 46.5 521.199 46.4719 521.187 46.4768 521.251 46.6017 521.36 46.8141 521.249 46.9662 520.997 46.9532ZM521.068 46.6769C520.998 46.5256 520.922 46.4531 520.864 46.4829 520.839 46.4963 520.969 46.7632 521.007 46.7757 521.067 46.795 521.098 46.7443 521.068 46.6771ZM521.677 45.941 521.524 45.6245 521.345 45.9348C521.247 46.106 521.17 46.253 521.174 46.2624 521.191 46.2972 521.737 46.3225 521.782 46.2904 521.826 46.2594 521.818 46.2342 521.677 45.9407ZM520.684 46.5623C520.601 46.4012 520.596 46.3977 520.47 46.3796 520.262 46.3507 519.349 46.2655 519.333 46.2736 519.291 46.2956 519.493 46.615 519.559 46.6308 519.644 46.6511 520.719 46.7449 520.748 46.7344 520.759 46.7313 520.73 46.6528 520.684 46.5623ZM521.192 45.8436C521.435 45.4095 521.451 45.3245 521.282 45.3483 521.214 45.358 521.175 45.4121 520.958 45.7991 520.823 46.0412 520.716 46.2478 520.722 46.2587 520.735 46.2854 520.911 46.298 520.939 46.2742 520.951 46.2644 521.065 46.0699 521.192 45.8438ZM520.771 45.7422C520.894 45.5248 520.99 45.3383 520.985 45.3283 520.98 45.3181 520.715 45.2887 520.398 45.2633 519.735 45.2102 519.837 45.1626 519.548 45.6593 519.298 46.0872 519.3 46.0722 519.497 46.0873 519.587 46.0938 519.85 46.1177 520.082 46.1394 520.314 46.161 520.514 46.1695 520.526 46.1582 520.538 46.147 520.648 45.9597 520.771 45.7423ZM519.18 46.387C519.057 46.1463 519.061 46.1112 519.248 45.7975 519.314 45.6855 519.434 45.4836 519.514 45.3482 519.697 45.0352 519.732 45.0173 520.098 45.0483 520.258 45.0617 520.584 45.0883 520.824 45.1076L521.26 45.1426 520.735 44.0974C520.147 42.9273 520.142 42.9204 519.883 42.8422 519.768 42.8074 517.045 42.6153 515.674 42.5455L515.362 42.5294 515.299 42.6273C515.264 42.6812 515.107 42.9417 514.951 43.2063 514.794 43.4709 514.545 43.8873 514.395 44.1316 514.246 44.3758 514.126 44.5873 514.128 44.6014 514.13 44.6152 514.413 44.6459 514.757 44.6689 516.187 44.7641 516.011 44.714 516.198 45.0795 516.394 45.4627 516.391 45.4892 516.124 45.9415 516.006 46.1419 515.917 46.3113 515.929 46.3181 515.952 46.3319 517.061 46.4307 518.877 46.5797 519.08 46.5964 519.255 46.6055 519.266 46.6003 519.276 46.5953 519.238 46.4991 519.181 46.3873ZM515.955 45.8479C516.195 45.4453 516.193 45.4799 515.994 45.1159L515.942 45.0213 515.702 45.4565C515.439 45.9345 515.438 45.9361 515.587 46.1665L515.669 46.2931 515.728 46.2118C515.76 46.1671 515.862 46.0033 515.955 45.848ZM515.363 46.1502 515.292 46.0112 515.032 45.9912C514.89 45.9802 514.622 45.958 514.437 45.9421L514.1 45.913 514.126 45.984C514.165 46.0899 514.236 46.16 514.328 46.1824 514.396 46.1993 515.407 46.2994 515.427 46.2915 515.43 46.2909 515.402 46.2264 515.363 46.15ZM515.529 45.3934C515.656 45.165 515.755 44.9695 515.75 44.9595 515.731 44.9216 514.62 44.8341 514.559 44.8656 514.502 44.8951 514.082 45.6657 514.108 45.6921 514.122 45.7054 514.351 45.7352 514.618 45.7574 514.884 45.7795 515.14 45.8032 515.188 45.8098 515.299 45.8256 515.267 45.8652 515.529 45.3934ZM514.111 45.2417C514.237 45.0226 514.339 44.8392 514.336 44.8344 514.334 44.8294 514.225 44.8225 514.094 44.8188 513.626 44.8052 513.671 44.8581 512.97 43.4807 512.656 42.8644 512.388 42.3527 512.374 42.3444 512.321 42.3117 511.727 42.2877 511.673 42.3155L511.617 42.3448 512.398 43.8734C512.904 44.861 513.207 45.4312 513.256 45.4847 513.38 45.6193 513.781 45.7414 513.854 45.6667 513.869 45.6524 513.984 45.4604 514.11 45.2414ZM514.048 44.3409C514.13 44.2025 514.344 43.8414 514.525 43.5388 514.707 43.2361 514.918 42.8788 514.995 42.7448L515.136 42.5012 514.83 42.483C514.661 42.4731 514.118 42.4402 513.623 42.41 513.129 42.3799 512.702 42.3577 512.674 42.3607 512.6 42.3689 513.717 44.5573 513.811 44.5878 513.891 44.6139 513.879 44.6262 514.048 44.341ZM523.375 46.6766C523.46 46.517 523.539 46.3535 523.552 46.3145 523.573 46.2463 523.521 46.1388 522.344 43.8384 521.56 42.3053 521.106 41.4383 521.09 41.4463 521.077 41.4535 520.966 41.6365 520.845 41.8534 520.632 42.2352 520.627 42.2499 520.679 42.316 520.709 42.3534 521.274 43.4422 521.935 44.7355L523.138 47.0868 523.179 47.0271C523.203 46.9945 523.291 46.8366 523.374 46.6762ZM523.844 45.0593C523.975 44.8083 524.213 44.3615 524.37 44.0659 524.529 43.7708 524.652 43.5095 524.646 43.4858 524.64 43.4623 524.523 43.2387 524.387 42.9893 524.076 42.4246 524.108 42.4246 523.782 42.9837 523.508 43.4519 523.426 43.5245 523.252 43.4531L523.153 43.4129 522.68 42.4695 522.207 41.526 522.222 41.3991C522.233 41.3139 522.326 41.1175 522.505 40.8016 522.653 40.5427 522.875 40.1522 522.999 39.9337L523.225 39.5366 522.981 39.0613C522.847 38.7998 522.727 38.5913 522.715 38.5976 522.702 38.6041 522.392 39.1306 522.026 39.7676 521.659 40.4048 521.322 40.989 521.276 41.0658L521.192 41.2056 522.315 43.4014C522.932 44.6092 523.454 45.6114 523.473 45.6293 523.52 45.671 523.536 45.6454 523.845 45.0594ZM524.861 42.9604 524.897 42.8588 524.479 42.0421C524.111 41.322 524.058 41.2297 524.031 41.2605 523.994 41.302 523.684 41.8363 523.449 42.2633 523.358 42.4312 523.236 42.639 523.179 42.7251L523.077 42.8822 523.166 43.0568C523.313 43.3445 523.357 43.3508 523.498 43.1052 523.949 42.3208 524.011 42.2586 524.224 42.3763 524.318 42.4286 524.339 42.4593 524.528 42.8281L524.73 43.2238 524.777 43.1432C524.804 43.0992 524.841 43.0166 524.861 42.9606ZM526.59 39.822C527.44 38.2855 528.275 36.779 528.446 36.4742 528.618 36.1697 528.901 35.6636 529.077 35.3502 529.252 35.0363 529.518 34.5654 529.666 34.3028 530.752 32.3834 530.985 31.9666 531.005 31.9073 531.022 31.8557 531.001 31.7794 530.912 31.5777 530.72 31.1408 530.72 31.145 530.918 30.7938 531.485 29.7921 531.452 29.908 531.268 29.5468 531.157 29.3293 531.111 29.2613 531.08 29.2648 531.057 29.2673 530.941 29.4434 530.822 29.6563 530.487 30.2563 530.424 30.3288 530.296 30.2702 530.233 30.2412 529.515 28.8542 529.468 28.6701 529.429 28.5168 529.486 28.3786 529.834 27.7912 530.152 27.2522 530.223 27.1788 530.382 27.2172 530.475 27.2397 530.497 27.2603 530.564 27.3888 530.656 27.564 530.649 27.5881 530.36 28.0657 530.219 28.3 529.846 28.9276 529.826 28.967 529.824 28.9701 529.941 29.2223 530.084 29.5289 530.32 30.0308 530.349 30.0827 530.378 30.05 530.396 30.0303 530.51 29.8358 530.632 29.6182 530.907 29.1278 530.962 29.059 531.082 29.0489 531.198 29.0392 531.227 29.0765 531.428 29.4936L531.597 29.845 531.552 29.9937C531.527 30.0755 531.435 30.2641 531.348 30.4129 530.885 31.2051 530.912 31.1193 531.041 31.4135 531.1 31.5493 531.15 31.6333 531.165 31.6259 531.178 31.6186 531.318 31.3823 531.476 31.1001 531.634 30.8178 531.878 30.3878 532.017 30.1444L532.271 29.7019 532.108 29.3531C531.877 28.8583 531.875 28.8805 532.197 28.3147 532.475 27.8275 532.503 27.7938 532.616 27.8118 532.679 27.8218 532.699 27.8524 532.857 28.1725 532.952 28.365 533.035 28.5196 533.043 28.5156 533.131 28.4703 533.325 27.9412 533.297 27.8248 533.289 27.7896 532.98 27.1785 532.611 26.4673L531.94 25.174 531.805 25.4116C531.197 26.4756 531.145 26.5466 530.989 26.5195 530.93 26.5091 530.905 26.4788 530.826 26.3202 530.668 26.0013 530.661 26.022 531.285 24.9816L531.603 24.4508 531.48 24.1937C531.307 23.8331 531.31 23.8332 531.097 24.1912 530.998 24.3569 530.731 24.8057 530.502 25.1883 529.989 26.0462 529.566 26.7648 529.221 27.3654 528.598 28.4477 527.807 29.8112 527.436 30.4428 527.294 30.684 527.112 30.9939 527.032 31.1312 526.953 31.2686 526.804 31.523 526.702 31.6968 526.407 32.2008 526.257 32.4589 526.193 32.5705 526.161 32.6281 525.98 32.9395 525.792 33.2633 525.604 33.5871 525.212 34.2629 524.921 34.765 524.63 35.2671 524.126 36.1344 523.802 36.6924 523.479 37.2503 523.129 37.8536 523.026 38.0329L522.837 38.359 523.082 38.8568C523.303 39.3044 523.331 39.3505 523.361 39.3173 523.379 39.2973 523.521 39.0573 523.676 38.7845 523.831 38.5119 524.024 38.1776 524.105 38.0421 524.186 37.9068 524.329 37.6622 524.422 37.4993 524.61 37.1704 524.662 37.1266 524.79 37.1854 524.872 37.2232 524.893 37.2567 525.203 37.8626L525.528 38.4996 525.483 38.6474C525.447 38.768 525.109 39.3712 524.216 40.9141L524.151 41.0244 524.571 41.8447C524.9 42.4882 524.997 42.6593 525.018 42.6401 525.033 42.6267 525.74 41.3582 526.59 39.8217ZM526.686 36.9593C526.638 36.941 526.583 36.879 526.515 36.7648 526.346 36.4811 526.361 36.4025 526.695 35.8145 527.068 35.1563 527.17 35.11 527.372 35.5059 527.497 35.7497 527.487 35.8753 527.321 36.1746 526.895 36.9384 526.833 37.0149 526.686 36.9592ZM527.029 36.3127C527.306 35.8172 527.317 35.7746 527.223 35.5893 527.147 35.4414 527.123 35.4381 527.057 35.566 527.033 35.6124 526.917 35.811 526.802 36.0081 526.686 36.205 526.591 36.3931 526.59 36.4265 526.588 36.5082 526.727 36.7758 526.762 36.7579 526.776 36.7507 526.897 36.5498 527.03 36.3125ZM526.109 35.1231C525.928 35.0879 525.822 34.849 525.896 34.6436 525.99 34.3824 526.713 33.1903 526.806 33.1429 526.923 33.0828 527.029 33.1365 527.111 33.2974 527.197 33.4656 527.169 33.6167 526.999 33.8958 526.947 33.9828 526.776 34.2746 526.621 34.5444 526.306 35.0913 526.253 35.1513 526.109 35.1232ZM526.472 34.4416C526.798 33.8887 526.973 33.5716 526.978 33.5251 526.984 33.4819 526.893 33.2919 526.872 33.3027 526.864 33.3064 526.804 33.4085 526.738 33.5288 526.672 33.6493 526.513 33.923 526.384 34.1371 526.073 34.651 526.026 34.7584 526.072 34.8473 526.147 34.9937 526.147 34.9935 526.472 34.4415ZM528.016 32.0291C527.838 32.0464 527.675 31.805 527.729 31.6058 527.754 31.515 528.291 30.53 528.448 30.2836 528.585 30.0717 528.786 30.1167 528.891 30.3818 528.957 30.5485 528.95 30.5733 528.73 30.9626 528.141 32.0014 528.13 32.0175 528.015 32.0287ZM528.346 31.2704C528.777 30.5166 528.776 30.5184 528.722 30.4134 528.65 30.2724 528.687 30.2211 528.054 31.3547 527.977 31.4914 527.915 31.6301 527.914 31.663 527.914 31.7381 527.973 31.8578 528.004 31.8419 528.016 31.8355 528.17 31.5782 528.346 31.2705ZM523.094 42.5188C523.175 42.3585 523.338 42.0713 524.556 39.959 525.277 38.7072 525.309 38.649 525.321 38.5608 525.33 38.4955 525.108 38.0035 525.077 38.0196 525.066 38.0252 524.549 38.9104 524.253 39.4299 524.16 39.5934 523.956 39.945 523.801 40.2113 523.306 41.0587 522.82 41.9004 522.757 42.0196L522.695 42.135 522.839 42.4167C522.918 42.5716 522.99 42.695 522.997 42.6912 523.005 42.6875 523.048 42.6098 523.094 42.5187ZM522.948 41.3079C523.279 40.7378 523.586 40.2089 524.016 39.4701 524.158 39.2278 524.374 38.855 524.497 38.6414 524.621 38.4282 524.78 38.1533 524.852 38.0309L524.983 37.8084 524.873 37.5931C524.812 37.4747 524.75 37.3771 524.736 37.3758 524.722 37.3733 524.653 37.473 524.583 37.5942 524.513 37.7155 524.22 38.2178 523.933 38.7103 522.535 41.1078 522.419 41.3166 522.409 41.4501 522.4 41.582 522.561 41.9335 522.607 41.8815 522.62 41.8648 522.774 41.6072 522.948 41.3078ZM520.695 41.7432C520.817 41.5336 520.914 41.3561 520.91 41.3488 520.905 41.3416 520.638 41.3206 520.316 41.3029 519.994 41.2852 519.373 41.2494 518.935 41.2231 518.497 41.1968 517.916 41.163 517.643 41.148 517.37 41.1331 517.079 41.1161 516.997 41.1101 516.705 41.0893 514.714 40.9712 513.947 40.9291 513.52 40.9056 513.08 40.879 512.969 40.8699 512.707 40.8483 511.457 40.7815 511.281 40.7797 511.224 40.7791 511.183 40.8297 510.999 41.1274L510.783 41.476 511.262 41.5107C511.524 41.5299 511.948 41.5576 512.203 41.5722 512.458 41.5869 513.819 41.675 515.228 41.7678 516.637 41.8607 518.327 41.9702 518.984 42.0111 519.642 42.052 520.237 42.0981 520.306 42.1134 520.376 42.1285 520.442 42.1372 520.452 42.1326 520.463 42.1276 520.573 41.9528 520.695 41.7434ZM521.301 40.6471C521.644 40.0469 522.092 39.2719 522.341 38.8508 522.451 38.6629 522.539 38.5022 522.536 38.4938 522.532 38.4856 522.453 38.4769 522.359 38.4752 522.265 38.4734 521.906 38.4564 521.56 38.4368 521.214 38.4174 520.686 38.3892 520.387 38.3744 520.088 38.3596 519.524 38.3314 519.133 38.3116 518.743 38.2919 517.958 38.2549 517.388 38.2295 516.818 38.204 516.063 38.1691 515.709 38.152 515.356 38.1349 514.688 38.1029 514.226 38.0809 513.764 38.059 513.273 38.0324 513.135 38.0218 512.896 38.0035 512.883 38.006 512.844 38.0742 512.822 38.1137 512.578 38.514 512.303 38.964 511.595 40.1194 511.352 40.5295 511.358 40.5593 511.361 40.5736 511.552 40.5954 511.783 40.6083 512.015 40.6211 512.428 40.6454 512.702 40.6623 512.976 40.6793 513.408 40.7045 513.663 40.7183 514.873 40.784 515.529 40.822 516.478 40.8816 519.757 41.0876 520.963 41.1532 521.001 41.1277 521.025 41.1119 521.16 40.8958 521.302 40.6474ZM522.999 37.7C523.154 37.4329 523.401 37.0101 523.547 36.76 523.978 36.0217 524.057 35.8863 524.317 35.4369 524.453 35.2018 524.622 34.91 524.692 34.789 524.763 34.668 524.997 34.262 525.211 33.8869 525.426 33.5118 525.714 33.0142 525.851 32.7809 526.7 31.336 527.962 29.1629 528.782 27.7333 528.997 27.3584 529.286 26.8624 529.424 26.6311 529.562 26.3997 529.732 26.1107 529.803 25.989 530.092 25.4887 530.872 24.187 530.978 24.0284 531.04 23.9347 531.081 23.8519 531.069 23.8443 531.056 23.8371 530.823 23.8255 530.55 23.8195 529.887 23.805 529.828 23.804 529.1 23.7969 528.753 23.7938 528.353 23.7897 528.211 23.7873 528.069 23.7854 527.727 23.7808 527.451 23.7777 527.175 23.7746 526.526 23.7647 526.009 23.7561 525.492 23.7476 524.676 23.7342 524.194 23.7263 523.713 23.7181 523.303 23.709 523.284 23.7055 523.199 23.6903 521.771 23.6804 521.712 23.6947 521.639 23.7125 521.611 23.7528 520.961 24.8204 520.73 25.1988 520.197 26.0656 519.776 26.7466 519.356 27.4275 518.787 28.3524 518.513 28.8017 518.239 29.2511 517.971 29.6884 517.917 29.7737 517.779 29.9926 515.164 34.258 514.701 35.0184 514.159 35.91 513.833 36.4454 513.394 37.1616 513.185 37.5041 513.023 37.7938 513.035 37.8053 513.047 37.8166 513.195 37.8325 513.366 37.8403 514.387 37.8861 515.276 37.9297 516.726 38.0045 517.099 38.0237 517.788 38.0559 518.258 38.0759 518.727 38.096 519.647 38.1411 520.302 38.1761 520.956 38.2111 521.602 38.2445 521.737 38.25 521.873 38.2555 522.133 38.2696 522.315 38.2816 522.606 38.3006 522.65 38.2961 522.681 38.2442 522.701 38.212 522.844 37.9669 522.999 37.6999ZM522.247 37.7941C522.039 37.8183 521.892 37.6773 521.94 37.4996 521.972 37.3823 523.1 35.4861 523.187 35.4038 523.341 35.2578 523.629 35.2859 523.715 35.4557 523.768 35.558 523.662 35.7764 523.108 36.7132 522.511 37.7205 522.474 37.768 522.247 37.7942ZM522.501 37.3688C522.577 37.2511 522.793 36.8897 522.981 36.5656 523.169 36.2415 523.346 35.9408 523.374 35.8974 523.559 35.6103 523.58 35.4544 523.427 35.4903 523.312 35.5175 523.285 35.5536 522.888 36.2317 522.681 36.5854 522.431 37.0083 522.334 37.1714 522.092 37.5774 522.086 37.596 522.186 37.617 522.302 37.6413 522.348 37.6053 522.501 37.3688ZM524.849 33.7123C524.649 33.7148 524.518 33.5435 524.584 33.3633 524.599 33.3186 524.686 33.1576 524.777 33.0053 524.867 32.8531 525.122 32.4188 525.344 32.0406 525.613 31.5821 525.776 31.3329 525.833 31.2925 526.103 31.103 526.402 31.2809 526.298 31.5693 526.231 31.7531 525.179 33.5262 525.081 33.6188 524.988 33.7066 524.978 33.7107 524.849 33.7123ZM525.56 32.4999C526.128 31.5327 526.175 31.4341 526.089 31.4061 525.976 31.3701 525.898 31.4707 525.454 32.2246 524.679 33.5395 524.707 33.4819 524.82 33.5183 524.925 33.5523 525.01 33.4362 525.56 32.4999ZM522.823 33.6227C522.739 33.6299 522.585 33.5595 522.554 33.4994 522.491 33.3764 522.534 33.2851 523.078 32.3654 523.709 31.3002 523.718 31.2864 523.857 31.1879 524.078 31.0323 524.36 31.2154 524.287 31.4664 524.257 31.5708 523.356 33.1114 523.16 33.3943 523.067 33.5285 522.944 33.6116 522.823 33.6228ZM523.257 32.8842C524.069 31.5505 524.165 31.3693 524.079 31.3327 523.958 31.2808 523.856 31.4008 523.509 32.0035 523.424 32.1498 523.223 32.4916 523.061 32.7631 522.722 33.3321 522.688 33.4147 522.791 33.431 522.905 33.4489 522.935 33.4129 523.257 32.8842ZM514.351 37.3504C514.117 37.3523 514.005 37.2141 514.076 37.0125 514.1 36.9445 514.234 36.7044 514.373 36.4788 514.513 36.2533 514.757 35.8556 514.915 35.5951 515.329 34.9151 515.352 34.8889 515.553 34.866 515.637 34.8567 515.803 34.9437 515.841 35.0162 515.896 35.1234 515.756 35.3917 514.98 36.6632 514.588 37.3059 514.548 37.3489 514.351 37.35ZM514.843 36.5218C515.342 35.7137 515.661 35.1592 515.656 35.1083 515.651 35.0647 515.545 35.033 515.493 35.0599 515.44 35.0875 514.227 37.0776 514.244 37.1102 514.271 37.1624 514.348 37.1753 514.418 37.1388 514.455 37.1194 514.634 36.8601 514.843 36.5218ZM520.753 33.5071C520.658 33.4999 520.563 33.4387 520.523 33.3608 520.466 33.2488 520.538 33.1034 521.196 32.0053 521.339 31.7665 521.513 31.4751 521.583 31.3578 521.757 31.0682 521.914 30.9626 522.088 31.0188 522.238 31.0671 522.323 31.2122 522.277 31.3386 522.261 31.384 521.983 31.8653 521.661 32.4081 521.024 33.4818 520.987 33.5259 520.753 33.5071ZM521.078 33.0259C521.641 32.1056 522.122 31.2717 522.107 31.2414 522.1 31.2283 522.055 31.2133 522.006 31.2081 521.898 31.1967 521.921 31.1654 521.33 32.1501 520.637 33.3058 520.648 33.2839 520.767 33.3222 520.851 33.3494 520.92 33.2831 521.078 33.0259ZM526.879 30.1993C526.831 30.1894 526.774 30.146 526.735 30.0878 526.645 29.9573 526.667 29.8668 526.882 29.5001 526.978 29.3351 527.189 28.9757 527.349 28.7011 527.935 27.6962 527.956 27.6685 528.148 27.6688 528.345 27.6691 528.455 27.779 528.423 27.9443 528.405 28.0384 528.014 28.7334 527.486 29.6099 527.169 30.1357 527.063 30.238 526.879 30.1993ZM527.384 29.4231C527.981 28.3982 528.251 27.92 528.242 27.9021 528.224 27.8672 528.14 27.8546 528.091 27.88 528.064 27.8941 527.948 28.0657 527.834 28.2611 527.72 28.4567 527.529 28.7794 527.41 28.9785 526.877 29.8698 526.857 29.9075 526.889 29.9704 526.955 30.1005 527.052 29.994 527.384 29.4231ZM518.789 33.4032C518.596 33.4131 518.463 33.2786 518.496 33.1074 518.515 33.0084 518.552 32.9417 519.124 31.9771 519.655 31.0807 519.732 30.9731 519.872 30.9266 520.027 30.8755 520.177 30.9248 520.241 31.0489 520.315 31.1947 520.281 31.2613 519.311 32.8676 519.046 33.3069 518.961 33.3943 518.789 33.4032ZM519.162 32.7478C519.296 32.5239 519.508 32.1719 519.633 31.9656 519.849 31.607 520.101 31.1523 520.092 31.1359 520.076 31.1051 519.957 31.0946 519.908 31.1196 519.826 31.1623 518.704 33.0106 518.681 33.1403 518.673 33.1908 518.681 33.2023 518.732 33.2103 518.848 33.2286 518.919 33.1518 519.162 32.7477ZM524.94 30.0969C524.764 30.1133 524.622 29.9258 524.679 29.7502 524.708 29.6607 525.532 28.2466 525.799 27.8287 525.975 27.5537 526.3 27.4991 526.416 27.7249 526.475 27.8418 526.414 27.997 526.078 28.573 525.264 29.9701 525.186 30.074 524.94 30.0969ZM525.124 29.7925C525.183 29.7079 525.614 28.9855 526.012 28.3025 526.277 27.847 526.296 27.7938 526.204 27.7644 526.085 27.7257 526.038 27.7852 525.586 28.5537 525.496 28.7064 525.292 29.0502 525.133 29.3177 524.862 29.7719 524.818 29.8841 524.89 29.9279 524.933 29.954 525.063 29.8781 525.124 29.7925ZM516.857 33.2706C516.672 33.2827 516.528 33.1443 516.564 32.9891 516.585 32.9023 517.637 31.1532 517.765 30.9932 517.91 30.811 518.156 30.7896 518.28 30.9482 518.386 31.0849 518.32 31.2223 517.484 32.6046 517.122 33.2043 517.073 33.2565 516.857 33.2706ZM517.298 32.5439C518.155 31.1362 518.173 31.1013 518.103 31.0379 518.02 30.9636 517.911 31.0822 517.617 31.5684 517.458 31.8316 517.209 32.2393 517.064 32.4743 516.717 33.0364 516.694 33.105 516.857 33.0897 516.971 33.0788 516.975 33.0742 517.298 32.5439ZM522.916 29.9948C522.781 29.9776 522.73 29.945 522.679 29.845 522.616 29.7221 522.633 29.6728 522.891 29.2336 523.01 29.0288 523.252 28.6152 523.428 28.3142 523.827 27.6293 523.824 27.6327 523.981 27.5512 524.173 27.4517 524.347 27.5161 524.418 27.7131 524.453 27.8076 524.193 28.2857 523.419 29.5512 523.207 29.8984 523.075 30.015 522.916 29.9948ZM523.33 29.3393C523.545 28.9873 523.893 28.3999 524.139 27.9711 524.258 27.7629 524.257 27.6871 524.134 27.693 524.031 27.698 523.958 27.791 523.666 28.2895 523.553 28.4827 523.383 28.7715 523.287 28.9308 522.761 29.8114 522.78 29.7688 522.901 29.7941 523.016 29.8182 523.071 29.7594 523.329 29.3393ZM520.85 29.9134C520.708 29.896 520.615 29.8184 520.6 29.7055 520.587 29.6044 520.658 29.4732 521.291 28.4251 521.783 27.6104 521.82 27.5581 521.953 27.4759 522.123 27.3716 522.296 27.3989 522.369 27.5417 522.439 27.6786 522.404 27.7531 521.775 28.8011 521.118 29.8977 521.081 29.9417 520.85 29.9133ZM521.147 29.4721C521.219 29.3626 521.339 29.1684 521.415 29.0407 522.184 27.7511 522.21 27.7031 522.191 27.6455 522.176 27.6022 522.152 27.5906 522.101 27.6022 522.01 27.6236 521.926 27.7281 521.731 28.0614 521.642 28.2124 521.391 28.6303 521.173 28.9894 520.893 29.4499 520.782 29.6558 520.799 29.6884 520.854 29.7962 520.991 29.7112 521.148 29.4719ZM528.92 24.6397C528.145 24.6249 528.016 24.6142 527.938 24.5582 527.812 24.4667 527.783 24.3914 527.824 24.2614 527.871 24.1155 527.994 24.0481 528.244 24.033 528.607 24.0104 529.877 24.0522 529.958 24.0894 530.102 24.156 530.152 24.351 530.057 24.4844 529.942 24.6473 529.864 24.6579 528.92 24.6401ZM529.888 24.3905C529.954 24.2929 529.886 24.2452 529.672 24.2407 529.561 24.2382 529.456 24.2382 529.439 24.24 529.422 24.2419 529.283 24.2394 529.131 24.2344 528.348 24.208 528.086 24.2192 528.037 24.2809 527.961 24.3782 528.035 24.42 528.297 24.4255 528.43 24.428 528.81 24.4366 529.141 24.4437 529.661 24.4551 529.798 24.4553 529.843 24.4444 529.848 24.4425 529.868 24.4191 529.887 24.3902ZM519.01 29.7726C518.829 29.8176 518.635 29.6778 518.666 29.5254 518.686 29.4289 518.776 29.2672 519.231 28.508 519.911 27.3727 519.868 27.4354 520.002 27.3657 520.205 27.2594 520.446 27.3928 520.424 27.5995 520.415 27.6938 520.403 27.716 520.029 28.3396 519.886 28.5782 519.652 28.9692 519.509 29.2084 519.239 29.6609 519.176 29.7315 519.01 29.7727ZM519.65 28.6067C520.248 27.6123 520.279 27.5518 520.203 27.5192 520.08 27.4665 520.008 27.5647 519.341 28.6933 519.18 28.966 519.012 29.2467 518.967 29.3172 518.867 29.4737 518.848 29.5474 518.898 29.592 518.985 29.67 519.104 29.5141 519.65 28.6067ZM523.189 24.4794C521.865 24.4729 521.866 24.4729 521.785 24.2427 521.738 24.1093 521.776 24.0014 521.892 23.9412 522.016 23.8775 523.59 23.887 523.683 23.9522 523.811 24.0409 523.833 24.2123 523.732 24.3334 523.623 24.463 523.555 24.4812 523.189 24.4794ZM523.598 24.1629C523.573 24.1141 523.535 24.1112 522.595 24.088 522 24.0733 521.993 24.0739 521.978 24.1396 521.952 24.2582 522.032 24.2723 522.756 24.2761 523.474 24.2798 523.646 24.257 523.598 24.163ZM532.733 28.8761 532.884 28.6205 532.736 28.3305C532.654 28.171 532.583 28.0429 532.576 28.0464 532.57 28.0501 532.465 28.2288 532.344 28.4444 532.09 28.8945 532.091 28.8919 532.264 29.2309L532.388 29.473 532.485 29.3025C532.54 29.2089 532.65 29.0165 532.734 28.8762ZM529.803 28.666C529.829 28.6113 529.975 28.3531 530.127 28.0924 530.443 27.5476 530.465 27.4936 530.384 27.4378 530.3 27.3795 530.289 27.3932 529.967 27.9454 529.603 28.5703 529.607 28.5606 529.67 28.6843 529.729 28.7993 529.738 28.7981 529.803 28.666ZM531.412 25.7262C531.593 25.4133 531.765 25.1172 531.796 25.0685 531.845 24.9908 531.845 24.9637 531.797 24.8494 531.766 24.7777 531.728 24.7109 531.712 24.7018 531.674 24.6785 530.941 25.8938 530.918 26.0183 530.905 26.0866 531.022 26.3277 531.058 26.3087 531.072 26.3015 531.231 26.0395 531.411 25.7264Z" stroke="#000000" stroke-width="0.175748" stroke-miterlimit="8" fill-rule="evenodd"/><path d="M170 128.028 75 128.028" stroke="#000000" stroke-width="1.52252" stroke-miterlimit="8" fill="none" fill-rule="evenodd"/><path d="M482.831 82.4579 559.831 82.4579 559.831 117.458 482.831 117.458Z" stroke="#000000" stroke-width="1.24483" stroke-miterlimit="8" fill="#84E291" fill-rule="evenodd"/><text font-family="Arial,Arial_MSFontService,sans-serif" font-weight="700" font-size="8.74667" transform="translate(509.198 98)">SFP+</text><text font-family="Arial,Arial_MSFontService,sans-serif" font-weight="700" font-size="8.74667" transform="translate(509.611 108)">Cage</text><path d="M223.656 193.986 88 193.983 89.0001 192.983 89.0001 341.633 87.0001 341.633 87.0001 191.983 223.656 191.986ZM222.332 188.983 230.323 193 222.314 196.983ZM92.0001 340.3 88.0001 348.3 84.0001 340.3Z"/><path d="M530.762 378.466 591.762 378.466 591.762 406.466 530.762 406.466Z" stroke="#000000" stroke-width="1.24483" stroke-miterlimit="8" fill="#FFFFFF" fill-rule="evenodd"/><text font-family="Arial,Arial_MSFontService,sans-serif" font-weight="400" font-size="8.74667" transform="translate(545.727 391)">FSYNC</text><text font-family="Arial,Arial_MSFontService,sans-serif" font-weight="400" font-size="8.74667" transform="translate(537.227 401)">MFPs</text><text font-family="Arial,Arial_MSFontService,sans-serif" font-weight="400" font-size="8.74667" transform="translate(562.56 401)">+ I2C</text><path d="M381.667 337 453.898 337 453.898 343.748 452.898 342.748 524.129 342.748 524.129 344.748 451.898 344.748 451.898 338 452.898 339 381.667 339ZM383 342 375 338 383 334ZM522.796 339.748 530.796 343.748 522.796 347.748Z"/><path d="M530.762 338.466 591.762 338.466 591.762 366.466 530.762 366.466Z" stroke="#000000" stroke-width="1.24483" stroke-miterlimit="8" fill="#FFFFFF" fill-rule="evenodd"/><text font-family="Arial,Arial_MSFontService,sans-serif" font-weight="400" font-size="8.74667" transform="translate(545.727 351)">FSYNC</text><text font-family="Arial,Arial_MSFontService,sans-serif" font-weight="400" font-size="8.74667" transform="translate(537.227 361)">MFPs</text><text font-family="Arial,Arial_MSFontService,sans-serif" font-weight="400" font-size="8.74667" transform="translate(562.56 361)">+ I2C</text><path d="M381.667 352 452.597 352 452.597 383.196 451.597 382.196 523.715 382.196 523.715 384.196 450.597 384.196 450.597 353 451.597 354 381.667 354ZM383 357 375 353 383 349ZM522.382 379.196 530.382 383.196 522.382 387.196Z"/><path d="M291.869 379.461 377.869 379.461 377.869 411.461 291.869 411.461Z" stroke="#000000" stroke-width="1.24483" stroke-miterlimit="8" fill="#FFFFFF" fill-rule="evenodd"/><text font-family="Arial,Arial_MSFontService,sans-serif" font-weight="400" font-size="8.74667" transform="translate(305.447 394)">AXI PWMGEN</text><text font-family="Arial,Arial_MSFontService,sans-serif" font-weight="400" font-size="8.74667" transform="translate(329.867 404)">IP</text><path d="M0-1 85.9146-1 85.9146 23.1748 84.9146 22.1748 147.578 22.1748 147.578 24.1748 83.9146 24.1748 83.9146 0 84.9146 1 0 1ZM146.245 19.1748 154.245 23.1748 146.245 27.1748Z" transform="matrix(1 0 0 -1 377 385.175)"/><path d="M0-1 77.2253-1 77.2253 2.39968 76.2253 1.39969 145.784 1.39969 145.784 3.39968 75.2253 3.39968 75.2253 0 76.2253 1 0 1ZM144.451-1.60031 152.451 2.39968 144.451 6.39968Z" transform="matrix(1 0 0 -1 378 404.4)"/><text font-family="Arial,Arial_MSFontService,sans-serif" font-weight="400" font-size="17.5067" transform="translate(647.691 394)">MAX96724</text><text font-family="Arial,Arial_MSFontService,sans-serif" font-weight="400" font-size="8.74667" transform="translate(183.764 228)">AXIS</text><text font-family="Arial,Arial_MSFontService,sans-serif" font-weight="400" font-size="8.74667" transform="translate(185.055 464)">AXIS</text><rect x="213.5" y="542.5" width="338" height="31" stroke="#000000" stroke-linejoin="round" stroke-miterlimit="10" fill="none"/><text font-family="Arial,Arial_MSFontService,sans-serif" font-weight="400" font-size="8.74667" transform="translate(222.925 556)">Notes</text><text font-family="Arial,Arial_MSFontService,sans-serif" font-weight="400" font-size="8.74667" transform="translate(245.758 556)">:</text><text font-family="Arial,Arial_MSFontService,sans-serif" font-weight="400" font-size="8.74667" transform="translate(251.665 556)">*</text><text font-family="Arial,Arial_MSFontService,sans-serif" font-weight="700" font-size="8.74667" transform="translate(258.405 556)">ppc</text><text font-family="Arial,Arial_MSFontService,sans-serif" font-weight="400" font-size="8.74667" transform="translate(277.312 556)">–</text><text font-family="Arial,Arial_MSFontService,sans-serif" font-weight="400" font-size="8.74667" transform="translate(285.552 556)">pixels</text><text font-family="Arial,Arial_MSFontService,sans-serif" font-weight="400" font-size="8.74667" transform="translate(311.292 556)">per</text><text font-family="Arial,Arial_MSFontService,sans-serif" font-weight="400" font-size="8.74667" transform="translate(327.205 556)">clock,</text><text font-family="Arial,Arial_MSFontService,sans-serif" font-weight="400" font-size="8.74667" transform="translate(352.952 556)">AXIS</text><text font-family="Arial,Arial_MSFontService,sans-serif" font-weight="400" font-size="8.74667" transform="translate(376.365 556)">Switch</text><text font-family="Arial,Arial_MSFontService,sans-serif" font-weight="400" font-size="8.74667" transform="translate(405.612 556)">–</text><text font-family="Arial,Arial_MSFontService,sans-serif" font-weight="400" font-size="8.74667" transform="translate(413.858 556)">switch</text><text font-family="Arial,Arial_MSFontService,sans-serif" font-weight="400" font-size="8.74667" transform="translate(441.605 556)">logic</text><text font-family="Arial,Arial_MSFontService,sans-serif" font-weight="400" font-size="8.74667" transform="translate(463.018 556)">to</text><text font-family="Arial,Arial_MSFontService,sans-serif" font-weight="400" font-size="8.74667" transform="translate(473.765 556)">divide</text><text font-family="Arial,Arial_MSFontService,sans-serif" font-weight="400" font-size="8.74667" transform="translate(500.012 556)">single</text><text font-family="Arial,Arial_MSFontService,sans-serif" font-weight="400" font-size="8.74667" transform="translate(526.258 556)">port</text><text font-family="Arial,Arial_MSFontService,sans-serif" font-weight="400" font-size="8.74667" transform="translate(222.925 566)">AXIS</text><text font-family="Arial,Arial_MSFontService,sans-serif" font-weight="400" font-size="8.74667" transform="translate(245.425 566)">output</text><text font-family="Arial,Arial_MSFontService,sans-serif" font-weight="400" font-size="8.74667" transform="translate(272.258 566)">to</text><text font-family="Arial,Arial_MSFontService,sans-serif" font-weight="400" font-size="8.74667" transform="translate(282.092 566)">four</text><text font-family="Arial,Arial_MSFontService,sans-serif" font-weight="400" font-size="8.74667" transform="translate(299.592 566)">AXIS</text><text font-family="Arial,Arial_MSFontService,sans-serif" font-weight="400" font-size="8.74667" transform="translate(322.092 566)">ports</text><text font-family="Arial,Arial_MSFontService,sans-serif" font-weight="400" font-size="8.74667" transform="translate(343.925 566)">according</text><text font-family="Arial,Arial_MSFontService,sans-serif" font-weight="400" font-size="8.74667" transform="translate(384.092 566)">to</text><text font-family="Arial,Arial_MSFontService,sans-serif" font-weight="400" font-size="8.74667" transform="translate(393.925 566)">TDEST</text><text font-family="Arial,Arial_MSFontService,sans-serif" font-weight="400" font-size="8.74667" transform="translate(425.092 566)">field</text><path d="M1.11586 6.66529 1.13903 73.9 0.139032 72.9004 221.167 72.9004 221.167 74.9004-0.860623 74.9004-0.88414 6.66598ZM-3.86036 8.06831 0 0 4.13843 7.92928ZM219.833 69.9004 227.833 73.9004 219.833 77.9004Z" transform="matrix(-1 1.22465e-16 1.22465e-16 1 521.833 118)"/><path d="M265 162 265 172.157 263 172.157 263 162ZM261.333 163.333 264 158 266.667 163.333ZM266.667 170.824 264 176.157 261.333 170.824Z"/><path d="M383.194 74.3649 383.194 58.6982 385.031 58.6982 385.031 74.3649ZM388.112 73.0316 384.112 81.0316 380.112 73.0316ZM380.112 60.0316 384.112 52.0316 388.112 60.0316Z"/><path d="M445.171 74.3649 445.171 58.6982 447.008 58.6982 447.008 74.3649ZM450.09 73.0316 446.09 81.0316 442.09 73.0316ZM442.09 60.0316 446.09 52.0316 450.09 60.0316Z"/><path d="M519.194 74.3649 519.194 58.6982 521.031 58.6982 521.031 74.3649ZM524.112 73.0316 520.112 81.0316 516.112 73.0316ZM516.112 60.0316 520.112 52.0316 524.112 60.0316Z"/><text font-family="Arial,Arial_MSFontService,sans-serif" font-weight="400" font-size="8.74667" transform="translate(346.79 271)">64b</text><text font-family="Arial,Arial_MSFontService,sans-serif" font-weight="400" font-size="8.74667" transform="translate(186.104 269)">64b</text><text font-family="Arial,Arial_MSFontService,sans-serif" font-weight="400" font-size="8.74667" transform="translate(188.023 507)">64b</text><text font-family="Arial,Arial_MSFontService,sans-serif" font-weight="400" font-size="8.74667" transform="translate(349.908 511)">64b</text></g></svg>