<svg width="1152" height="720" xmlns="http://www.w3.org/2000/svg" xmlns:xlink="http://www.w3.org/1999/xlink" overflow="hidden"><g><rect x="0" y="0" width="1152" height="720" fill="#FFFFFF"/><text font-family="Arial,Arial_MSFontService,sans-serif" font-weight="400" font-size="25" transform="translate(68.848 638)">RTP Networking Stack</text><path d="M97.4014 91.453 307.401 91.453 307.401 130.453 97.4014 130.453Z" stroke="#000000" stroke-width="1.24483" stroke-miterlimit="8" fill="#FFFFFF" fill-rule="evenodd"/><text font-family="Arial,Arial_MSFontService,sans-serif" font-weight="400" font-size="21.3333" transform="translate(143.768 117)">RTP Engine</text><path d="M46 111 94.9575 111" stroke="#000000" stroke-width="2" stroke-miterlimit="8" fill="none" fill-rule="evenodd"/><path d="M0 0 15.6014 20" stroke="#000000" stroke-width="2" stroke-miterlimit="8" fill="none" fill-rule="evenodd" transform="matrix(1 0 0 -1 64 121)"/><text font-family="Arial,Arial_MSFontService,sans-serif" font-weight="400" font-size="13.3333" transform="translate(48.0468 133)">64b</text><path d="M46 179 94.9575 179" stroke="#000000" stroke-width="2" stroke-miterlimit="8" fill="none" fill-rule="evenodd"/><path d="M0 0 15.6014 20" stroke="#000000" stroke-width="2" stroke-miterlimit="8" fill="none" fill-rule="evenodd" transform="matrix(1 0 0 -1 64 188)"/><path d="M47 246 95.9575 246" stroke="#000000" stroke-width="2" stroke-miterlimit="8" fill="none" fill-rule="evenodd"/><path d="M0 0 15.6014 20" stroke="#000000" stroke-width="2" stroke-miterlimit="8" fill="none" fill-rule="evenodd" transform="matrix(1 0 0 -1 65 256)"/><path d="M47 304 95.9575 304" stroke="#000000" stroke-width="2" stroke-miterlimit="8" fill="none" fill-rule="evenodd"/><path d="M0 0 15.6014 20" stroke="#000000" stroke-width="2" stroke-miterlimit="8" fill="none" fill-rule="evenodd" transform="matrix(1 0 0 -1 65 313)"/><path d="M47 365 95.9575 365" stroke="#000000" stroke-width="2" stroke-miterlimit="8" fill="none" fill-rule="evenodd"/><path d="M0 0 15.6014 20" stroke="#000000" stroke-width="2" stroke-miterlimit="8" fill="none" fill-rule="evenodd" transform="matrix(1 0 0 -1 65 375)"/><path d="M47 427 95.9575 427" stroke="#000000" stroke-width="2" stroke-miterlimit="8" fill="none" fill-rule="evenodd"/><path d="M0 0 15.6014 20" stroke="#000000" stroke-width="2" stroke-miterlimit="8" fill="none" fill-rule="evenodd" transform="matrix(1 0 0 -1 65 437)"/><path d="M47 489 95.9575 489" stroke="#000000" stroke-width="2" stroke-miterlimit="8" fill="none" fill-rule="evenodd"/><path d="M0 0 15.6014 20" stroke="#000000" stroke-width="2" stroke-miterlimit="8" fill="none" fill-rule="evenodd" transform="matrix(1 0 0 -1 65 498)"/><path d="M47 550 95.9575 550" stroke="#000000" stroke-width="2" stroke-miterlimit="8" fill="none" fill-rule="evenodd"/><path d="M0 0 15.6014 20" stroke="#000000" stroke-width="2" stroke-miterlimit="8" fill="none" fill-rule="evenodd" transform="matrix(1 0 0 -1 65 560)"/><path d="M97.4014 159.453 307.401 159.453 307.401 198.453 97.4014 198.453Z" stroke="#000000" stroke-width="1.24483" stroke-miterlimit="8" fill="#FFFFFF" fill-rule="evenodd"/><text font-family="Arial,Arial_MSFontService,sans-serif" font-weight="400" font-size="21.3333" transform="translate(143.769 185)">RTP Engine</text><path d="M97.4014 226.453 307.401 226.453 307.401 265.453 97.4014 265.453Z" stroke="#000000" stroke-width="1.24483" stroke-miterlimit="8" fill="#FFFFFF" fill-rule="evenodd"/><text font-family="Arial,Arial_MSFontService,sans-serif" font-weight="400" font-size="21.3333" transform="translate(143.769 252)">RTP Engine</text><path d="M97.4014 287.453 307.401 287.453 307.401 326.453 97.4014 326.453Z" stroke="#000000" stroke-width="1.24483" stroke-miterlimit="8" fill="#FFFFFF" fill-rule="evenodd"/><text font-family="Arial,Arial_MSFontService,sans-serif" font-weight="400" font-size="21.3333" transform="translate(143.769 312)">RTP Engine</text><path d="M97.4014 347.453 307.401 347.453 307.401 386.453 97.4014 386.453Z" stroke="#000000" stroke-width="1.24483" stroke-miterlimit="8" fill="#FFFFFF" fill-rule="evenodd"/><text font-family="Arial,Arial_MSFontService,sans-serif" font-weight="400" font-size="21.3333" transform="translate(143.769 373)">RTP Engine</text><path d="M97.4014 406.453 307.401 406.453 307.401 445.453 97.4014 445.453Z" stroke="#000000" stroke-width="1.24483" stroke-miterlimit="8" fill="#FFFFFF" fill-rule="evenodd"/><text font-family="Arial,Arial_MSFontService,sans-serif" font-weight="400" font-size="21.3333" transform="translate(143.769 432)">RTP Engine</text><path d="M97.4014 467.453 307.401 467.453 307.401 506.453 97.4014 506.453Z" stroke="#000000" stroke-width="1.24483" stroke-miterlimit="8" fill="#FFFFFF" fill-rule="evenodd"/><text font-family="Arial,Arial_MSFontService,sans-serif" font-weight="400" font-size="21.3333" transform="translate(143.769 493)">RTP Engine</text><path d="M97.4014 531.453 307.401 531.453 307.401 570.453 97.4014 570.453Z" stroke="#000000" stroke-width="1.24483" stroke-miterlimit="8" fill="#FFFFFF" fill-rule="evenodd"/><text font-family="Arial,Arial_MSFontService,sans-serif" font-weight="400" font-size="21.3333" transform="translate(143.769 557)">RTP Engine</text><text font-family="Arial,Arial_MSFontService,sans-serif" font-weight="400" font-size="13.3333" transform="translate(48.2691 200)">64b</text><text font-family="Arial,Arial_MSFontService,sans-serif" font-weight="400" font-size="13.3333" transform="translate(46.4717 268)">64b</text><text font-family="Arial,Arial_MSFontService,sans-serif" font-weight="400" font-size="13.3333" transform="translate(48.2691 329)">64b</text><text font-family="Arial,Arial_MSFontService,sans-serif" font-weight="400" font-size="13.3333" transform="translate(48.2691 391)">64b</text><text font-family="Arial,Arial_MSFontService,sans-serif" font-weight="400" font-size="13.3333" transform="translate(48.2691 454)">64b</text><text font-family="Arial,Arial_MSFontService,sans-serif" font-weight="400" font-size="13.3333" transform="translate(48.2691 516)">64b</text><text font-family="Arial,Arial_MSFontService,sans-serif" font-weight="400" font-size="13.3333" transform="translate(48.2691 578)">64b</text><path d="M307 111 355.957 111" stroke="#000000" stroke-width="2" stroke-miterlimit="8" fill="none" fill-rule="evenodd"/><path d="M0 0 15.6014 20" stroke="#000000" stroke-width="2" stroke-miterlimit="8" fill="none" fill-rule="evenodd" transform="matrix(1 0 0 -1 325 121)"/><path d="M307 245 355.957 245" stroke="#000000" stroke-width="2" stroke-miterlimit="8" fill="none" fill-rule="evenodd"/><path d="M0 0 15.6014 20" stroke="#000000" stroke-width="2" stroke-miterlimit="8" fill="none" fill-rule="evenodd" transform="matrix(1 0 0 -1 325 255)"/><path d="M307 178 355.957 178" stroke="#000000" stroke-width="2" stroke-miterlimit="8" fill="none" fill-rule="evenodd"/><path d="M0 0 15.6014 20" stroke="#000000" stroke-width="2" stroke-miterlimit="8" fill="none" fill-rule="evenodd" transform="matrix(1 0 0 -1 325 188)"/><path d="M307 307 355.957 307" stroke="#000000" stroke-width="2" stroke-miterlimit="8" fill="none" fill-rule="evenodd"/><path d="M0 0 15.6014 20" stroke="#000000" stroke-width="2" stroke-miterlimit="8" fill="none" fill-rule="evenodd" transform="matrix(1 0 0 -1 325 316)"/><path d="M307 367 355.957 367" stroke="#000000" stroke-width="2" stroke-miterlimit="8" fill="none" fill-rule="evenodd"/><path d="M0 0 15.6014 20" stroke="#000000" stroke-width="2" stroke-miterlimit="8" fill="none" fill-rule="evenodd" transform="matrix(1 0 0 -1 325 377)"/><path d="M307 428 355.957 428" stroke="#000000" stroke-width="2" stroke-miterlimit="8" fill="none" fill-rule="evenodd"/><path d="M0 0 15.6014 20" stroke="#000000" stroke-width="2" stroke-miterlimit="8" fill="none" fill-rule="evenodd" transform="matrix(1 0 0 -1 325 437)"/><path d="M307 487 355.957 487" stroke="#000000" stroke-width="2" stroke-miterlimit="8" fill="none" fill-rule="evenodd"/><path d="M0 0 15.6014 20" stroke="#000000" stroke-width="2" stroke-miterlimit="8" fill="none" fill-rule="evenodd" transform="matrix(1 0 0 -1 325 496)"/><path d="M307 550 355.957 550" stroke="#000000" stroke-width="2" stroke-miterlimit="8" fill="none" fill-rule="evenodd"/><path d="M0 0 15.6014 20" stroke="#000000" stroke-width="2" stroke-miterlimit="8" fill="none" fill-rule="evenodd" transform="matrix(1 0 0 -1 325 560)"/><path d="M356.406 90.9225 567.406 90.9225 567.406 569.922 356.406 569.922Z" stroke="#000000" stroke-width="1.24483" stroke-miterlimit="8" fill="#FFFFFF" fill-rule="evenodd"/><text font-family="Arial,Arial_MSFontService,sans-serif" font-weight="400" font-size="21.3333" transform="translate(372.198 339)">RTP Session MUX</text><text font-family="Arial,Arial_MSFontService,sans-serif" font-weight="400" font-size="13.3333" transform="translate(315.403 136)">64b</text><text font-family="Arial,Arial_MSFontService,sans-serif" font-weight="400" font-size="13.3333" transform="translate(313.315 202)">64b</text><text font-family="Arial,Arial_MSFontService,sans-serif" font-weight="400" font-size="13.3333" transform="translate(311.756 271)">64b</text><text font-family="Arial,Arial_MSFontService,sans-serif" font-weight="400" font-size="13.3333" transform="translate(309.914 331)">64b</text><text font-family="Arial,Arial_MSFontService,sans-serif" font-weight="400" font-size="13.3333" transform="translate(309.773 392)">64b</text><text font-family="Arial,Arial_MSFontService,sans-serif" font-weight="400" font-size="13.3333" transform="translate(311.148 453)">64b</text><text font-family="Arial,Arial_MSFontService,sans-serif" font-weight="400" font-size="13.3333" transform="translate(312.338 512)">64b</text><text font-family="Arial,Arial_MSFontService,sans-serif" font-weight="400" font-size="13.3333" transform="translate(312.149 575)">64b</text><path d="M567 330 612.71 330" stroke="#000000" stroke-width="2" stroke-miterlimit="8" fill="none" fill-rule="evenodd"/><path d="M0 0 14.5664 20" stroke="#000000" stroke-width="2" stroke-miterlimit="8" fill="none" fill-rule="evenodd" transform="matrix(1 0 0 -1 583 339)"/><text font-family="Arial,Arial_MSFontService,sans-serif" font-weight="400" font-size="13.3333" transform="translate(575.25 355)">64b</text><path d="M608.401 90.9225 818.401 90.9225 818.401 569.922 608.401 569.922Z" stroke="#000000" stroke-width="1.24483" stroke-miterlimit="8" fill="#FFFFFF" fill-rule="evenodd"/><text font-family="Arial,Arial_MSFontService,sans-serif" font-weight="400" font-size="21.3333" transform="translate(661.504 313)">RTP Video</text><text font-family="Arial,Arial_MSFontService,sans-serif" font-weight="400" font-size="21.3333" transform="translate(649.404 338)">Transmission</text><text font-family="Arial,Arial_MSFontService,sans-serif" font-weight="400" font-size="21.3333" transform="translate(675.09 364)">Handler</text><path d="M927 61.0049 1114 61.0049 1114 598.005 927 598.005Z" stroke="#000000" stroke-width="1.74457" stroke-miterlimit="8" stroke-dasharray="3.42403 10.2721" fill="none" fill-rule="evenodd"/><text font-family="Arial,Arial_MSFontService,sans-serif" font-weight="400" font-size="25" transform="translate(925.509 633)">Corundum NIC</text><text font-family="Arial,Arial_MSFontService,sans-serif" font-weight="400" font-size="25" transform="translate(925.509 663)">Application Core</text><text font-family="Arial,Arial_MSFontService,sans-serif" font-weight="400" font-size="25" transform="translate(925.509 693)">Implementation</text><path d="M955.024 130.435 1077.02 130.435 1077.02 184.435 955.024 184.435Z" stroke="#000000" stroke-width="1.24483" stroke-miterlimit="8" fill="#FFFFFF" fill-rule="evenodd"/><text font-family="Arial,Arial_MSFontService,sans-serif" font-weight="400" font-size="21.3333" transform="translate(971.267 165)">NIC Data</text><path d="M819 159 833 145 833 152 954 152 954 166 833 166 833 173Z" stroke="#000000" stroke-width="2" stroke-miterlimit="8" fill="#FFFFFF" fill-rule="evenodd"/><path d="M954 229 940 243 940 236 820 236 820 222 940 222 940 215Z" stroke="#000000" stroke-width="2" stroke-miterlimit="8" fill="#FFFFFF" fill-rule="evenodd"/><text font-family="Arial,Arial_MSFontService,sans-serif" font-weight="400" font-size="24" transform="translate(865.575 142)">AXIS</text><text font-family="Arial,Arial_MSFontService,sans-serif" font-weight="400" font-size="24" transform="translate(866.581 213)">AXIS</text><text font-family="Arial,Arial_MSFontService,sans-serif" font-weight="400" font-size="13.3333" transform="translate(878.634 183)">64b</text><text font-family="Arial,Arial_MSFontService,sans-serif" font-weight="400" font-size="13.3333" transform="translate(879.627 254)">64b</text><path d="M955.105 207.434 1096.11 207.434 1096.11 262.434 955.105 262.434Z" stroke="#000000" stroke-width="1.24483" stroke-miterlimit="8" fill="#FFFFFF" fill-rule="evenodd"/><text font-family="Arial,Arial_MSFontService,sans-serif" font-weight="400" font-size="21.3333" transform="translate(971.837 230)">Wrapper to</text><text font-family="Arial,Arial_MSFontService,sans-serif" font-weight="400" font-size="21.3333" transform="translate(976.757 255)">PHY layer</text><path d="M54 16 99.7097 16.0001" stroke="#000000" stroke-width="2" stroke-miterlimit="8" fill="none" fill-rule="evenodd"/><path d="M0 0 14.5664 20" stroke="#000000" stroke-width="2" stroke-miterlimit="8" fill="none" fill-rule="evenodd" transform="matrix(1 0 0 -1 71 26)"/><text font-family="Arial,Arial_MSFontService,sans-serif" font-weight="400" font-size="25" transform="translate(56.0478 59)">AXIS with TDATA on x b,</text><text font-family="Arial,Arial_MSFontService,sans-serif" font-weight="400" font-size="25" transform="translate(336.841 59)">e.g.</text><text font-family="Arial,Arial_MSFontService,sans-serif" font-weight="400" font-size="25" transform="translate(385.508 59)">64b = 64 bits</text><path d="M89 77.0049 875 77.0049 875 615.005 89 615.005Z" stroke="#000000" stroke-width="1.74457" stroke-miterlimit="8" stroke-dasharray="3.42403 10.2721" fill="none" fill-rule="evenodd"/></g></svg>