<svg width="2399" height="905" xmlns="http://www.w3.org/2000/svg" xmlns:xlink="http://www.w3.org/1999/xlink" xml:space="preserve" overflow="hidden"><defs><clipPath id="clip0"><rect x="1540" y="1324" width="171" height="227"/></clipPath><clipPath id="clip1"><rect x="1540" y="1324" width="171" height="227"/></clipPath></defs><g transform="translate(-139 -1324)"><rect x="1890.5" y="1656.5" width="101" height="299" stroke="#000000" stroke-width="6.875" stroke-miterlimit="8" fill="#E7E6E6"/><text font-family="Arial,Arial_MSFontService,sans-serif" font-weight="700" font-size="41" transform="matrix(-1.83697e-16 -1 1 -1.83697e-16 1955.7 1834)">I</text><text fill="#111111" font-family="Arial,Arial_MSFontService,sans-serif" font-weight="700" font-size="28" transform="matrix(-1.83697e-16 -1 1 -1.83697e-16 1943.69 1822)">2</text><text font-family="Arial,Arial_MSFontService,sans-serif" font-weight="700" font-size="41" transform="matrix(-1.83697e-16 -1 1 -1.83697e-16 1955.7 1807)">C</text><rect x="1787.5" y="1656.5" width="101" height="299" stroke="#000000" stroke-width="6.875" stroke-miterlimit="8" fill="#E7E6E6"/><text font-family="Arial,Arial_MSFontService,sans-serif" font-weight="700" font-size="41" transform="matrix(-1.83697e-16 -1 1 -1.83697e-16 1852.55 1863)">UART</text><rect x="1684.5" y="1654.5" width="100" height="299" stroke="#000000" stroke-width="6.875" stroke-miterlimit="8" fill="#E7E6E6"/><text font-family="Arial,Arial_MSFontService,sans-serif" font-weight="700" font-size="41" transform="matrix(-1.83697e-16 -1 1 -1.83697e-16 1749.18 1887)">Ethernet</text><rect x="1995.5" y="1654.5" width="100" height="299" stroke="#000000" stroke-width="6.875" stroke-miterlimit="8" fill="#E7E6E6"/><text font-family="Arial,Arial_MSFontService,sans-serif" font-weight="700" font-size="41" transform="matrix(-1.83697e-16 -1 1 -1.83697e-16 2060.28 1836)">SPI</text><rect x="1583.5" y="1654.5" width="101" height="299" stroke="#000000" stroke-width="6.875" stroke-miterlimit="8" fill="#E7E6E6"/><text font-family="Arial,Arial_MSFontService,sans-serif" font-weight="700" font-size="41" transform="matrix(-1.83697e-16 -1 1 -1.83697e-16 1648.41 1859)">DDRx</text><rect x="1480.5" y="1654.5" width="101" height="299" stroke="#000000" stroke-width="6.875" stroke-miterlimit="8" fill="#E7E6E6"/><text font-family="Arial,Arial_MSFontService,sans-serif" font-weight="700" font-size="41" transform="matrix(-1.83697e-16 -1 1 -1.83697e-16 1545.71 1899)">Interrupts</text><rect x="233.5" y="1654.5" width="1144" height="299" stroke="#000000" stroke-width="6.875" stroke-miterlimit="8" fill="#E7E6E6"/><text font-family="Arial,Arial_MSFontService,sans-serif" font-weight="700" font-size="64" transform="matrix(1 0 0 1 499.335 1827)">ARM SoC / Zynq MP</text><rect x="1377.5" y="1654.5" width="101" height="299" stroke="#000000" stroke-width="6.875" stroke-miterlimit="8" fill="#E7E6E6"/><text font-family="Arial,Arial_MSFontService,sans-serif" font-weight="700" font-size="41" transform="matrix(-1.83697e-16 -1 1 -1.83697e-16 1443.09 1859)">Timer</text><rect x="144" y="1594" width="2291" height="630" stroke="#000000" stroke-width="10.3125" stroke-miterlimit="8" fill="none"/><g clip-path="url(#clip0)"><g clip-path="url(#clip1)"><g><path d="M-2659.81 2297.68-2487.64 2297.68-2487.64 2363.65-2659.81 2363.65Z" stroke="#000000" stroke-width="4.6915" stroke-linecap="round" stroke-linejoin="round" fill="#FFFFFF" transform="matrix(0 -1 1.0044 0 -726.174 -1126.33)"/><path d="M-2647.66 2310.6-2620.6 2310.6-2620.6 2350.72-2647.66 2350.72Z" stroke="#000000" stroke-width="3.95851" stroke-linecap="round" stroke-linejoin="round" stroke-opacity="0.673913" transform="matrix(0 -1 1.0044 0 -726.174 -1126.33)"/><path d="M-2607.88 2310.6-2580.82 2310.6-2580.82 2350.72-2607.88 2350.72Z" stroke="#000000" stroke-width="3.95851" stroke-linecap="round" stroke-linejoin="round" stroke-opacity="0.673913" transform="matrix(0 -1 1.0044 0 -726.174 -1126.33)"/><path d="M-2528.33 2310.6-2501.27 2310.6-2501.27 2350.72-2528.33 2350.72Z" stroke="#000000" stroke-width="3.95851" stroke-linecap="round" stroke-linejoin="round" stroke-opacity="0.673913" transform="matrix(0 -1 1.0044 0 -726.174 -1126.33)"/><path d="M-2568.1 2310.6-2541.04 2310.6-2541.04 2350.72-2568.1 2350.72Z" stroke="#000000" stroke-width="3.95851" stroke-linecap="round" stroke-linejoin="round" stroke-opacity="0.673913" transform="matrix(0 -1 1.0044 0 -726.174 -1126.33)"/><path d="M2363.05 2646.88 2383.39 2646.88 2383.39 2501.8 2362.09 2501.8" stroke="#000000" stroke-width="3.22893" fill="none" fill-rule="evenodd" transform="matrix(1.0044 0 0 1 -726.174 -1126.33)"/><path d="M2381.23 2633.13 2372.78 2633.13" stroke="#000000" stroke-width="6.25729" stroke-linecap="round" fill="none" fill-rule="evenodd" transform="matrix(1.0044 0 0 1 -726.174 -1126.33)"/><path d="M2381.23 2527.13 2372.78 2527.13" stroke="#000000" stroke-width="6.25729" stroke-linecap="round" fill="none" fill-rule="evenodd" transform="matrix(1.0044 0 0 1 -726.174 -1126.33)"/><path d="M2381.23 2541.21 2372.78 2541.21" stroke="#000000" stroke-width="6.25729" stroke-linecap="round" fill="none" fill-rule="evenodd" transform="matrix(1.0044 0 0 1 -726.174 -1126.33)"/><path d="M2381.23 2553.7 2372.78 2553.7" stroke="#000000" stroke-width="6.25729" stroke-linecap="round" fill="none" fill-rule="evenodd" transform="matrix(1.0044 0 0 1 -726.174 -1126.33)"/><path d="M2381.23 2567.78 2372.78 2567.78" stroke="#000000" stroke-width="6.25729" stroke-linecap="round" fill="none" fill-rule="evenodd" transform="matrix(1.0044 0 0 1 -726.174 -1126.33)"/><path d="M2381.23 2580.26 2372.78 2580.26" stroke="#000000" stroke-width="6.25729" stroke-linecap="round" fill="none" fill-rule="evenodd" transform="matrix(1.0044 0 0 1 -726.174 -1126.33)"/><path d="M2381.23 2594.08 2372.78 2594.08" stroke="#000000" stroke-width="6.25729" stroke-linecap="round" fill="none" fill-rule="evenodd" transform="matrix(1.0044 0 0 1 -726.174 -1126.33)"/><path d="M2381.23 2606.83 2372.78 2606.83" stroke="#000000" stroke-width="6.25729" stroke-linecap="round" fill="none" fill-rule="evenodd" transform="matrix(1.0044 0 0 1 -726.174 -1126.33)"/><path d="M2381.23 2620.37 2372.78 2620.37" stroke="#000000" stroke-width="6.25729" stroke-linecap="round" fill="none" fill-rule="evenodd" transform="matrix(1.0044 0 0 1 -726.174 -1126.33)"/><path d="M2381.23 2527.13 2372.78 2527.13" stroke="#000000" stroke-width="6.25729" stroke-linecap="round" fill="none" fill-rule="evenodd" transform="matrix(1.0044 0 0 1 -726.174 -1126.33)"/><path d="M2381.23 2514.65 2372.78 2514.65" stroke="#000000" stroke-width="6.25729" stroke-linecap="round" fill="none" fill-rule="evenodd" transform="matrix(1.0044 0 0 1 -726.174 -1126.33)"/><path d="M-2798.52 2306.12-2535.99 2306.12-2535.99 2374.81-2798.52 2374.81Z" stroke="#000000" stroke-width="4.16375" stroke-linecap="round" stroke-linejoin="round" fill="#FFFFFF" transform="matrix(0 -1 1.0044 0 -581.482 -1186.98)"/><path d="M-2786.08 2319.37-2757.62 2319.37-2757.62 2361.57-2786.08 2361.57Z" stroke="#000000" stroke-width="4.16375" stroke-linecap="round" stroke-linejoin="round" stroke-opacity="0.673913" transform="matrix(0 -1 1.0044 0 -581.482 -1186.98)"/><path d="M-2744.24 2319.37-2715.78 2319.37-2715.78 2361.57-2744.24 2361.57Z" stroke="#000000" stroke-width="4.16375" stroke-linecap="round" stroke-linejoin="round" stroke-opacity="0.673913" transform="matrix(0 -1 1.0044 0 -581.482 -1186.98)"/><path d="M-2618.73 2319.37-2590.27 2319.37-2590.27 2361.57-2618.73 2361.57Z" stroke="#000000" stroke-width="4.16375" stroke-linecap="round" stroke-linejoin="round" stroke-opacity="0.673913" transform="matrix(0 -1 1.0044 0 -581.482 -1186.98)"/><path d="M-2660.57 2319.37-2632.1 2319.37-2632.1 2361.57-2660.57 2361.57Z" stroke="#000000" stroke-width="4.16375" stroke-linecap="round" stroke-linejoin="round" stroke-opacity="0.673913" transform="matrix(0 -1 1.0044 0 -581.482 -1186.98)"/><path d="M-2702.41 2319.37-2673.95 2319.37-2673.95 2361.57-2702.41 2361.57Z" stroke="#000000" stroke-width="4.16375" stroke-linecap="round" stroke-linejoin="round" stroke-opacity="0.673913" transform="matrix(0 -1 1.0044 0 -581.482 -1186.98)"/><path d="M-2576.89 2319.37-2548.43 2319.37-2548.43 2361.57-2576.89 2361.57Z" stroke="#000000" stroke-width="4.16375" stroke-linecap="round" stroke-linejoin="round" stroke-opacity="0.673913" transform="matrix(0 -1 1.0044 0 -581.482 -1186.98)"/><path d="M2374.82 2784.78 2395.67 2784.78 2395.67 2549.48 2373.83 2549.48" stroke="#000000" stroke-width="4.16375" fill="none" fill-rule="evenodd" transform="matrix(1.0044 0 0 1 -581.482 -1186.98)"/><path d="M2393.66 2770.8 2384.77 2770.8" stroke="#000000" stroke-width="4.72924" stroke-linecap="round" fill="none" fill-rule="evenodd" transform="matrix(1.0044 0 0 1 -581.482 -1186.98)"/><path d="M2393.66 2659.31 2384.77 2659.31" stroke="#000000" stroke-width="4.72924" stroke-linecap="round" fill="none" fill-rule="evenodd" transform="matrix(1.0044 0 0 1 -581.482 -1186.98)"/><path d="M2393.66 2674.12 2384.77 2674.12" stroke="#000000" stroke-width="4.72924" stroke-linecap="round" fill="none" fill-rule="evenodd" transform="matrix(1.0044 0 0 1 -581.482 -1186.98)"/><path d="M2393.66 2687.26 2384.77 2687.26" stroke="#000000" stroke-width="4.72924" stroke-linecap="round" fill="none" fill-rule="evenodd" transform="matrix(1.0044 0 0 1 -581.482 -1186.98)"/><path d="M2393.66 2702.07 2384.77 2702.07" stroke="#000000" stroke-width="4.72924" stroke-linecap="round" fill="none" fill-rule="evenodd" transform="matrix(1.0044 0 0 1 -581.482 -1186.98)"/><path d="M2393.66 2715.2 2384.77 2715.2" stroke="#000000" stroke-width="4.72924" stroke-linecap="round" fill="none" fill-rule="evenodd" transform="matrix(1.0044 0 0 1 -581.482 -1186.98)"/><path d="M2393.66 2729.73 2384.77 2729.73" stroke="#000000" stroke-width="4.72924" stroke-linecap="round" fill="none" fill-rule="evenodd" transform="matrix(1.0044 0 0 1 -581.482 -1186.98)"/><path d="M2393.66 2743.14 2384.77 2743.14" stroke="#000000" stroke-width="4.72924" stroke-linecap="round" fill="none" fill-rule="evenodd" transform="matrix(1.0044 0 0 1 -581.482 -1186.98)"/><path d="M2393.66 2757.39 2384.77 2757.39" stroke="#000000" stroke-width="4.72924" stroke-linecap="round" fill="none" fill-rule="evenodd" transform="matrix(1.0044 0 0 1 -581.482 -1186.98)"/><path d="M2393.66 2659.31 2384.77 2659.31" stroke="#000000" stroke-width="4.72924" stroke-linecap="round" fill="none" fill-rule="evenodd" transform="matrix(1.0044 0 0 1 -581.482 -1186.98)"/><path d="M2393.66 2590.3 2384.77 2590.3" stroke="#000000" stroke-width="4.72924" stroke-linecap="round" fill="none" fill-rule="evenodd" transform="matrix(1.0044 0 0 1 -581.482 -1186.98)"/><path d="M2393.66 2603.43 2384.77 2603.43" stroke="#000000" stroke-width="4.72924" stroke-linecap="round" fill="none" fill-rule="evenodd" transform="matrix(1.0044 0 0 1 -581.482 -1186.98)"/><path d="M2393.66 2618.24 2384.77 2618.24" stroke="#000000" stroke-width="4.72924" stroke-linecap="round" fill="none" fill-rule="evenodd" transform="matrix(1.0044 0 0 1 -581.482 -1186.98)"/><path d="M2393.66 2631.37 2384.77 2631.37" stroke="#000000" stroke-width="4.72924" stroke-linecap="round" fill="none" fill-rule="evenodd" transform="matrix(1.0044 0 0 1 -581.482 -1186.98)"/><path d="M2393.66 2646.18 2384.77 2646.18" stroke="#000000" stroke-width="4.72924" stroke-linecap="round" fill="none" fill-rule="evenodd" transform="matrix(1.0044 0 0 1 -581.482 -1186.98)"/><path d="M2393.66 2562.35 2384.77 2562.35" stroke="#000000" stroke-width="4.72924" stroke-linecap="round" fill="none" fill-rule="evenodd" transform="matrix(1.0044 0 0 1 -581.482 -1186.98)"/><path d="M2393.66 2575.48 2384.77 2575.48" stroke="#000000" stroke-width="4.72924" stroke-linecap="round" fill="none" fill-rule="evenodd" transform="matrix(1.0044 0 0 1 -581.482 -1186.98)"/></g></g></g><g><g><g><path d="M1471.38 1729.86 1579.05 1729.86 1579.05 1822.41 1471.38 1822.41Z" stroke="#000000" stroke-width="5.37105" stroke-linecap="round" stroke-linejoin="round" fill="none" transform="matrix(1 0 0 1.00461 213.044 -335.725)"/><path d="M1492.09 1739.42 1557.57 1739.42C1562.71 1739.42 1566.86 1743.56 1566.86 1748.71L1566.86 1801.8C1566.86 1806.94 1562.71 1811.09 1557.57 1811.09L1492.09 1811.09C1486.95 1811.09 1482.81 1806.94 1482.81 1801.8L1482.81 1748.71C1482.81 1743.56 1486.95 1739.42 1492.09 1739.42Z" stroke="#000000" stroke-width="4.81525" stroke-linecap="round" stroke-linejoin="round" fill="none" transform="matrix(1 0 0 1.00461 213.044 -335.725)"/><path d="M1857.66 1971.29 1891.59 1971.29 1891.59 1997.56 1857.66 1997.56Z" stroke="#FFFFFF" stroke-width="2.39864" fill="#FFFFFF" transform="matrix(1 0 0 1.00461 -167.159 -519.806)"/><path d="M1918.49 1971.29 1952.41 1971.29 1952.41 1997.56 1918.49 1997.56Z" stroke="#FFFFFF" stroke-width="2.39864" fill="#FFFFFF" transform="matrix(1 0 0 1.00461 -167.159 -519.806)"/><path d="M1482.81 1786.7 1506.21 1786.7 1506.21 1798.04 1512.42 1798.04 1512.42 1811.07" stroke="#000000" stroke-width="4.81525" stroke-linecap="round" fill="none" fill-rule="evenodd" transform="matrix(1 0 0 1.00461 213.044 -335.725)"/><path d="M1566.86 1786.82 1543.21 1786.82 1543.21 1798.09 1536.94 1798.09 1536.94 1811.03" stroke="#000000" stroke-width="4.81525" stroke-linecap="round" fill="none" fill-rule="evenodd" transform="matrix(1 0 0 1.00461 213.044 -335.725)"/><path d="M1481.25 1794.12 1499.38 1794.12 1499.38 1809.74 1481.25 1809.74Z" stroke="#000000" stroke-width="3.90437" stroke-linecap="round" fill="#FFFFFF" transform="matrix(1 0 0 1.00461 213.044 -335.725)"/><path d="M1550.01 1794.12 1568.14 1794.12 1568.14 1809.74 1550.01 1809.74Z" stroke="#000000" stroke-width="3.90437" stroke-linecap="round" fill="#FFFFFF" transform="matrix(1 0 0 1.00461 213.044 -335.725)"/><path d="M1492.13 1739.91 1497.12 1739.91 1497.12 1760.63 1492.13 1760.63Z" stroke="#000000" stroke-width="1.23831" stroke-linecap="round" fill="#FFFFFF" transform="matrix(1 0 0 1.00461 213.044 -335.725)"/><path d="M1542.47 1739.91 1547.46 1739.91 1547.46 1760.63 1542.47 1760.63Z" stroke="#000000" stroke-width="1.23831" stroke-linecap="round" fill="#FFFFFF" transform="matrix(1 0 0 1.00461 213.044 -335.725)"/><path d="M1532.4 1739.91 1537.39 1739.91 1537.39 1760.63 1532.4 1760.63Z" stroke="#000000" stroke-width="1.23831" stroke-linecap="round" fill="#FFFFFF" transform="matrix(1 0 0 1.00461 213.044 -335.725)"/><path d="M1522.33 1739.91 1527.33 1739.91 1527.33 1760.63 1522.33 1760.63Z" stroke="#000000" stroke-width="1.23831" stroke-linecap="round" fill="#FFFFFF" transform="matrix(1 0 0 1.00461 213.044 -335.725)"/><path d="M1512.27 1739.91 1517.26 1739.91 1517.26 1760.63 1512.27 1760.63Z" stroke="#000000" stroke-width="1.23831" stroke-linecap="round" fill="#FFFFFF" transform="matrix(1 0 0 1.00461 213.044 -335.725)"/><path d="M1502.2 1739.91 1507.19 1739.91 1507.19 1760.63 1502.2 1760.63Z" stroke="#000000" stroke-width="1.23831" stroke-linecap="round" fill="#FFFFFF" transform="matrix(1 0 0 1.00461 213.044 -335.725)"/><path d="M1552.54 1739.91 1557.53 1739.91 1557.53 1760.63 1552.54 1760.63Z" stroke="#000000" stroke-width="1.23831" stroke-linecap="round" fill="#FFFFFF" transform="matrix(1 0 0 1.00461 213.044 -335.725)"/></g></g></g><g><g><g><path d="M906.684 632.62C910.734 632.62 914.018 635.904 914.018 639.955L914.018 672.147C914.018 676.198 910.734 679.482 906.684 679.482L807.254 679.482C803.203 679.482 799.919 676.198 799.919 672.147L799.919 639.955C799.919 635.904 803.203 632.62 807.254 632.62Z" stroke="#000000" stroke-width="3.92996" stroke-linecap="round" fill="#FFFFFF" transform="matrix(0 -1 1.00011 0 1182.62 2304.72)"/><path d="M826.814 642.4 887.124 642.4C891.187 642.4 896.051 645.995 894.459 649.735L889.08 662.367C887.487 666.106 883.363 669.702 879.3 669.702L833.986 669.702C829.922 669.702 826.856 666.07 825.184 662.367L819.479 649.735C817.807 646.031 822.75 642.4 826.814 642.4Z" stroke="#000000" stroke-width="3.92996" stroke-linecap="round" fill="#FFFFFF" transform="matrix(0 -1 1.00011 0 1182.62 2304.72)"/><path d="M816.138 656.051C816.138 658.92 813.812 661.247 810.943 661.247 808.073 661.247 805.747 658.92 805.747 656.051 805.747 653.181 808.073 650.855 810.943 650.855 813.812 650.855 816.138 653.181 816.138 656.051Z" stroke="#000000" stroke-width="3.92996" stroke-linecap="round" fill="#FFFFFF" transform="matrix(0 -1 1.00011 0 1182.62 2304.72)"/><path d="M908.437 656.051C908.437 658.92 906.11 661.247 903.241 661.247 900.371 661.247 898.045 658.92 898.045 656.051 898.045 653.181 900.371 650.855 903.241 650.855 906.11 650.855 908.437 653.181 908.437 656.051Z" stroke="#000000" stroke-width="3.92996" stroke-linecap="round" fill="#FFFFFF" transform="matrix(0 -1 1.00011 0 1182.62 2304.72)"/><path d="M839.023 651.671C839.023 652.628 838.293 653.403 837.393 653.403 836.492 653.403 835.763 652.628 835.763 651.671 835.763 650.715 836.492 649.939 837.393 649.939 838.293 649.939 839.023 650.715 839.023 651.671Z" stroke="#000000" stroke-width="3.92996" stroke-linecap="round" fill="#FFFFFF" transform="matrix(0 -1 1.00011 0 1182.62 2304.72)"/><path d="M878.142 651.671C878.142 652.628 877.413 653.403 876.512 653.403 875.612 653.403 874.882 652.628 874.882 651.671 874.882 650.715 875.612 649.939 876.512 649.939 877.413 649.939 878.142 650.715 878.142 651.671Z" stroke="#000000" stroke-width="3.92996" stroke-linecap="round" fill="#FFFFFF" transform="matrix(0 -1 1.00011 0 1182.62 2304.72)"/><path d="M868.362 651.671C868.362 652.628 867.633 653.403 866.732 653.403 865.832 653.403 865.102 652.628 865.102 651.671 865.102 650.715 865.832 649.939 866.732 649.939 867.633 649.939 868.362 650.715 868.362 651.671Z" stroke="#000000" stroke-width="3.92996" stroke-linecap="round" fill="#FFFFFF" transform="matrix(0 -1 1.00011 0 1182.62 2304.72)"/><path d="M858.582 651.671C858.582 652.628 857.853 653.403 856.952 653.403 856.052 653.403 855.322 652.628 855.322 651.671 855.322 650.715 856.052 649.939 856.952 649.939 857.853 649.939 858.582 650.715 858.582 651.671Z" stroke="#000000" stroke-width="3.92996" stroke-linecap="round" fill="#FFFFFF" transform="matrix(0 -1 1.00011 0 1182.62 2304.72)"/><path d="M848.802 651.671C848.802 652.628 848.073 653.403 847.172 653.403 846.272 653.403 845.542 652.628 845.542 651.671 845.542 650.715 846.272 649.939 847.172 649.939 848.073 649.939 848.802 650.715 848.802 651.671Z" stroke="#000000" stroke-width="3.92996" stroke-linecap="round" fill="#FFFFFF" transform="matrix(0 -1 1.00011 0 1182.62 2304.72)"/><path d="M843.912 661.451C843.912 662.408 843.183 663.183 842.282 663.183 841.382 663.183 840.652 662.408 840.652 661.451 840.652 660.495 841.382 659.719 842.282 659.719 843.183 659.719 843.912 660.495 843.912 661.451Z" stroke="#000000" stroke-width="3.92996" stroke-linecap="round" fill="#FFFFFF" transform="matrix(0 -1 1.00011 0 1182.62 2304.72)"/><path d="M873.252 661.451C873.252 662.408 872.523 663.183 871.622 663.183 870.722 663.183 869.992 662.408 869.992 661.451 869.992 660.495 870.722 659.719 871.622 659.719 872.523 659.719 873.252 660.495 873.252 661.451Z" stroke="#000000" stroke-width="3.92996" stroke-linecap="round" fill="#FFFFFF" transform="matrix(0 -1 1.00011 0 1182.62 2304.72)"/><path d="M863.472 661.451C863.472 662.408 862.743 663.183 861.842 663.183 860.942 663.183 860.212 662.408 860.212 661.451 860.212 660.495 860.942 659.719 861.842 659.719 862.743 659.719 863.472 660.495 863.472 661.451Z" stroke="#000000" stroke-width="3.92996" stroke-linecap="round" fill="#FFFFFF" transform="matrix(0 -1 1.00011 0 1182.62 2304.72)"/><path d="M853.692 661.451C853.692 662.408 852.963 663.183 852.062 663.183 851.162 663.183 850.432 662.408 850.432 661.451 850.432 660.495 851.162 659.719 852.062 659.719 852.963 659.719 853.692 660.495 853.692 661.451Z" stroke="#000000" stroke-width="3.92996" stroke-linecap="round" fill="#FFFFFF" transform="matrix(0 -1 1.00011 0 1182.62 2304.72)"/></g></g></g><path d="M3.43757 22.9167 3.43779 91.4858-3.43721 91.4859-3.43743 22.9167ZM-13.7499 27.5 0 0 13.7501 27.5ZM13.7503 86.9025 0.000360892 114.403-13.7497 86.9026Z" transform="matrix(1 0 0 -1 1626.5 1647.9)"/><path d="M3.43757 22.9167 3.43779 91.4858-3.43721 91.4859-3.43743 22.9167ZM-13.7499 27.5 0 0 13.7501 27.5ZM13.7503 86.9025 0.000360892 114.403-13.7497 86.9026Z" transform="matrix(1 0 0 -1 1731.5 1651.9)"/><path d="M3.43757 22.9167 3.43779 91.4858-3.43721 91.4859-3.43743 22.9167ZM-13.7499 27.5 0 0 13.7501 27.5ZM13.7503 86.9025 0.000360892 114.403-13.7497 86.9026Z" transform="matrix(1 0 0 -1 1834.5 1650.9)"/><text font-family="Arial,Arial_MSFontService,sans-serif" font-weight="700" font-size="73" transform="matrix(1 0 0 1 588.928 2100)">FPGA Board</text><path d="M0-5.15625 69.5629-5.15625 69.5629 317.686 59.2504 317.686 59.2504 0 64.4067 5.15625 0 5.15625ZM79.8754 312.529 64.4067 343.467 48.9379 312.529Z" transform="matrix(1.83697e-16 1 1 -1.83697e-16 2045 1953)"/><rect x="2389.5" y="1750.5" width="100" height="444" stroke="#000000" stroke-width="6.875" stroke-miterlimit="8" fill="#FFFFFF"/><text font-family="Calibri,Calibri_MSFontService,sans-serif" font-weight="700" font-size="83" transform="matrix(-1.83697e-16 -1 1 -1.83697e-16 2466.4 2154)">GPIO</text><text font-family="Calibri,Calibri_MSFontService,sans-serif" font-weight="700" font-size="83" transform="matrix(-1.83697e-16 -1 1 -1.83697e-16 2466.4 1980)">/</text><text font-family="Calibri,Calibri_MSFontService,sans-serif" font-weight="700" font-size="83" transform="matrix(-1.83697e-16 -1 1 -1.83697e-16 2466.4 1944)">FMC</text><rect x="2099.5" y="1655.5" width="101" height="299" stroke="#000000" stroke-width="6.875" stroke-miterlimit="8" fill="#E7E6E6"/><text font-family="Arial,Arial_MSFontService,sans-serif" font-weight="700" font-size="41" transform="matrix(-1.83697e-16 -1 1 -1.83697e-16 2164.53 1856)">GPIO</text></g></svg>