<?xml version="1.0" encoding="UTF-8" standalone="no"?>
<!-- Created by Symbolator http://kevinpt.github.io/symbolator -->
<svg xmlns="http://www.w3.org/2000/svg"
xmlns:xlink="http://www.w3.org/1999/xlink"
xml:space="preserve"
width="656" height="719" viewBox="-313 -20 875.0 959.0" version="1.1">
<style type="text/css">
<![CDATA[
.fnt1 {fill:#000000;
    font-family:Helvetica; font-size:12pt; font-weight:normal; font-style:normal;}
.label {fill:#000;
  text-anchor:middle;
  font-size:16pt; font-weight:bold; font-family:Sans;}
.link {fill: #0D47A1;}
.link:hover {fill: #0D47A1; text-decoration:underline;}
.link:visited {fill: #4A148C;}
]]>
</style>
<defs>
<marker id="clock" markerWidth="8.0" markerHeight="15.0" viewBox="0 0 8.0 15.0" refX="0.5" refY="7.5" orient="auto" markerUnits="userSpaceOnUse">
<g transform="translate(0.5,7.5)"><path d="M 0 -7 L 0 7 L 7 0 z" stroke="#000000" fill="#FFFFFF" stroke-width="1"/>
</g>
</marker>
</defs>
<g transform="translate(0,0)">
<rect x="0" y="-15.0" width="360" height="330.0" stroke="#646464" fill="#C8C8C8" stroke-width="1"/>
<g transform="translate(0,0)">
<line x1="-20" y1="0" x2="0" y2="0" stroke="#000000" fill="none" stroke-width="1"/>
<text class="fnt1" x="10" y="0" text-anchor="normal" dy="5.5">CMD_FIFO_ADDRESS_WIDTH</text>
</g>
<g transform="translate(0,20)">
<line x1="-20" y1="0" x2="0" y2="0" stroke="#000000" fill="none" stroke-width="1"/>
<text class="fnt1" x="10" y="0" text-anchor="normal" dy="5.5">SYNC_FIFO_ADDRESS_WIDTH</text>
</g>
<g transform="translate(0,40)">
<line x1="-20" y1="0" x2="0" y2="0" stroke="#000000" fill="none" stroke-width="1"/>
<text class="fnt1" x="10" y="0" text-anchor="normal" dy="5.5">SDO_FIFO_ADDRESS_WIDTH</text>
</g>
<g transform="translate(0,60)">
<line x1="-20" y1="0" x2="0" y2="0" stroke="#000000" fill="none" stroke-width="1"/>
<text class="fnt1" x="10" y="0" text-anchor="normal" dy="5.5">SDI_FIFO_ADDRESS_WIDTH</text>
</g>
<g transform="translate(0,80)">
<line x1="-20" y1="0" x2="0" y2="0" stroke="#000000" fill="none" stroke-width="1"/>
<text class="fnt1" x="10" y="0" text-anchor="normal" dy="5.5">MM_IF_TYPE</text>
</g>
<g transform="translate(0,100)">
<line x1="-20" y1="0" x2="0" y2="0" stroke="#000000" fill="none" stroke-width="1" marker-end="url(#clock)"/>
<text class="fnt1" x="10" y="0" text-anchor="normal" dy="5.5">ASYNC_SPI_CLK</text>
</g>
<g transform="translate(0,120)">
<line x1="-20" y1="0" x2="0" y2="0" stroke="#000000" fill="none" stroke-width="1"/>
<text class="fnt1" x="10" y="0" text-anchor="normal" dy="5.5">NUM_OFFLOAD</text>
</g>
<g transform="translate(0,140)">
<line x1="-20" y1="0" x2="0" y2="0" stroke="#000000" fill="none" stroke-width="1"/>
<text class="fnt1" x="10" y="0" text-anchor="normal" dy="5.5">OFFLOAD0_CMD_MEM_ADDRESS_WIDTH</text>
</g>
<g transform="translate(0,160)">
<line x1="-20" y1="0" x2="0" y2="0" stroke="#000000" fill="none" stroke-width="1"/>
<text class="fnt1" x="10" y="0" text-anchor="normal" dy="5.5">OFFLOAD0_SDO_MEM_ADDRESS_WIDTH</text>
</g>
<g transform="translate(0,180)">
<line x1="-20" y1="0" x2="0" y2="0" stroke="#000000" fill="none" stroke-width="1"/>
<text class="fnt1" x="10" y="0" text-anchor="normal" dy="5.5">ID</text>
</g>
<g transform="translate(0,200)">
<line x1="-20" y1="0" x2="0" y2="0" stroke="#000000" fill="none" stroke-width="3"/>
<text class="fnt1" x="10" y="0" text-anchor="normal" dy="5.5">DATA_WIDTH</text>
<text class="fnt1" x="-30" y="0" text-anchor="end" dy="5.5" style="fill:#969696"> <tspan fill="#039BE5">[15:0]</tspan></text>
</g>
<g transform="translate(0,220)">
<line x1="-20" y1="0" x2="0" y2="0" stroke="#000000" fill="none" stroke-width="3"/>
<text class="fnt1" x="10" y="0" text-anchor="normal" dy="5.5">NUM_OF_SDI</text>
<text class="fnt1" x="-30" y="0" text-anchor="end" dy="5.5" style="fill:#969696"> <tspan fill="#039BE5">[ 7:0]</tspan></text>
</g>
<g transform="translate(0,240)">
<line x1="-20" y1="0" x2="0" y2="0" stroke="#000000" fill="none" stroke-width="1"/>
<text class="fnt1" x="10" y="0" text-anchor="normal" dy="5.5">CFG_INFO_0</text>
</g>
<g transform="translate(0,260)">
<line x1="-20" y1="0" x2="0" y2="0" stroke="#000000" fill="none" stroke-width="1"/>
<text class="fnt1" x="10" y="0" text-anchor="normal" dy="5.5">CFG_INFO_1</text>
</g>
<g transform="translate(0,280)">
<line x1="-20" y1="0" x2="0" y2="0" stroke="#000000" fill="none" stroke-width="1"/>
<text class="fnt1" x="10" y="0" text-anchor="normal" dy="5.5">CFG_INFO_2</text>
</g>
<g transform="translate(0,300)">
<line x1="-20" y1="0" x2="0" y2="0" stroke="#000000" fill="none" stroke-width="1"/>
<text class="fnt1" x="10" y="0" text-anchor="normal" dy="5.5">CFG_INFO_3</text>
</g>
</g>
<rect x="1.0" y="-14.0" width="358.0" height="328.0" stroke="#646464" fill="none" stroke-width="3"/>
<g transform="translate(0,338.0)">
<rect x="0" y="-15.0" width="360" height="610.0" stroke="#000000" fill="#C5DBFB" stroke-width="1"/>
<g transform="translate(0,0)">
<line x1="-20" y1="0" x2="0" y2="0" stroke="#000000" fill="none" stroke-width="1" marker-end="url(#clock)"/>
<text class="fnt1" x="10" y="0" text-anchor="normal" dy="5.5">s_axi_aclk</text>
</g>
<g transform="translate(0,20)">
<line x1="-20" y1="0" x2="0" y2="0" stroke="#000000" fill="none" stroke-width="1"/>
<text class="fnt1" x="10" y="0" text-anchor="normal" dy="5.5">s_axi_aresetn</text>
</g>
<g transform="translate(0,40)">
<line x1="-20" y1="0" x2="0" y2="0" stroke="#000000" fill="none" stroke-width="1"/>
<text class="fnt1" x="10" y="0" text-anchor="normal" dy="5.5">s_axi_awvalid</text>
</g>
<g transform="translate(0,60)">
<line x1="-20" y1="0" x2="0" y2="0" stroke="#000000" fill="none" stroke-width="3"/>
<text class="fnt1" x="10" y="0" text-anchor="normal" dy="5.5">s_axi_awaddr</text>
<text class="fnt1" x="-30" y="0" text-anchor="end" dy="5.5" style="fill:#969696"> <tspan fill="#039BE5">[15:0]</tspan></text>
</g>
<g transform="translate(0,80)">
<line x1="-20" y1="0" x2="0" y2="0" stroke="#000000" fill="none" stroke-width="3"/>
<text class="fnt1" x="10" y="0" text-anchor="normal" dy="5.5">s_axi_awprot</text>
<text class="fnt1" x="-30" y="0" text-anchor="end" dy="5.5" style="fill:#969696"> <tspan fill="#039BE5">[2:0]</tspan></text>
</g>
<g transform="translate(0,100)">
<line x1="-20" y1="0" x2="0" y2="0" stroke="#000000" fill="none" stroke-width="1"/>
<text class="fnt1" x="10" y="0" text-anchor="normal" dy="5.5">s_axi_wvalid</text>
</g>
<g transform="translate(0,120)">
<line x1="-20" y1="0" x2="0" y2="0" stroke="#000000" fill="none" stroke-width="3"/>
<text class="fnt1" x="10" y="0" text-anchor="normal" dy="5.5">s_axi_wdata</text>
<text class="fnt1" x="-30" y="0" text-anchor="end" dy="5.5" style="fill:#969696"> <tspan fill="#039BE5">[31:0]</tspan></text>
</g>
<g transform="translate(0,140)">
<line x1="-20" y1="0" x2="0" y2="0" stroke="#000000" fill="none" stroke-width="3"/>
<text class="fnt1" x="10" y="0" text-anchor="normal" dy="5.5">s_axi_wstrb</text>
<text class="fnt1" x="-30" y="0" text-anchor="end" dy="5.5" style="fill:#969696"> <tspan fill="#039BE5">[3:0]</tspan></text>
</g>
<g transform="translate(0,160)">
<line x1="-20" y1="0" x2="0" y2="0" stroke="#000000" fill="none" stroke-width="1"/>
<text class="fnt1" x="10" y="0" text-anchor="normal" dy="5.5">s_axi_bready</text>
</g>
<g transform="translate(0,180)">
<line x1="-20" y1="0" x2="0" y2="0" stroke="#000000" fill="none" stroke-width="1"/>
<text class="fnt1" x="10" y="0" text-anchor="normal" dy="5.5">s_axi_arvalid</text>
</g>
<g transform="translate(0,200)">
<line x1="-20" y1="0" x2="0" y2="0" stroke="#000000" fill="none" stroke-width="3"/>
<text class="fnt1" x="10" y="0" text-anchor="normal" dy="5.5">s_axi_araddr</text>
<text class="fnt1" x="-30" y="0" text-anchor="end" dy="5.5" style="fill:#969696"> <tspan fill="#039BE5">[15:0]</tspan></text>
</g>
<g transform="translate(0,220)">
<line x1="-20" y1="0" x2="0" y2="0" stroke="#000000" fill="none" stroke-width="3"/>
<text class="fnt1" x="10" y="0" text-anchor="normal" dy="5.5">s_axi_arprot</text>
<text class="fnt1" x="-30" y="0" text-anchor="end" dy="5.5" style="fill:#969696"> <tspan fill="#039BE5">[2:0]</tspan></text>
</g>
<g transform="translate(0,240)">
<line x1="-20" y1="0" x2="0" y2="0" stroke="#000000" fill="none" stroke-width="1"/>
<text class="fnt1" x="10" y="0" text-anchor="normal" dy="5.5">s_axi_rready</text>
</g>
<g transform="translate(0,260)">
<line x1="-20" y1="0" x2="0" y2="0" stroke="#000000" fill="none" stroke-width="1" marker-end="url(#clock)"/>
<text class="fnt1" x="10" y="0" text-anchor="normal" dy="5.5">up_clk</text>
</g>
<g transform="translate(0,280)">
<line x1="-20" y1="0" x2="0" y2="0" stroke="#000000" fill="none" stroke-width="1"/>
<text class="fnt1" x="10" y="0" text-anchor="normal" dy="5.5">up_rstn</text>
</g>
<g transform="translate(0,300)">
<line x1="-20" y1="0" x2="0" y2="0" stroke="#000000" fill="none" stroke-width="1"/>
<text class="fnt1" x="10" y="0" text-anchor="normal" dy="5.5">up_wreq</text>
</g>
<g transform="translate(0,320)">
<line x1="-20" y1="0" x2="0" y2="0" stroke="#000000" fill="none" stroke-width="3"/>
<text class="fnt1" x="10" y="0" text-anchor="normal" dy="5.5">up_waddr</text>
<text class="fnt1" x="-30" y="0" text-anchor="end" dy="5.5" style="fill:#969696"> <tspan fill="#039BE5">[13:0]</tspan></text>
</g>
<g transform="translate(0,340)">
<line x1="-20" y1="0" x2="0" y2="0" stroke="#000000" fill="none" stroke-width="3"/>
<text class="fnt1" x="10" y="0" text-anchor="normal" dy="5.5">up_wdata</text>
<text class="fnt1" x="-30" y="0" text-anchor="end" dy="5.5" style="fill:#969696"> <tspan fill="#039BE5">[31:0]</tspan></text>
</g>
<g transform="translate(0,360)">
<line x1="-20" y1="0" x2="0" y2="0" stroke="#000000" fill="none" stroke-width="1"/>
<text class="fnt1" x="10" y="0" text-anchor="normal" dy="5.5">up_rreq</text>
</g>
<g transform="translate(0,380)">
<line x1="-20" y1="0" x2="0" y2="0" stroke="#000000" fill="none" stroke-width="3"/>
<text class="fnt1" x="10" y="0" text-anchor="normal" dy="5.5">up_raddr</text>
<text class="fnt1" x="-30" y="0" text-anchor="end" dy="5.5" style="fill:#969696"> <tspan fill="#039BE5">[13:0]</tspan></text>
</g>
<g transform="translate(0,400)">
<line x1="-20" y1="0" x2="0" y2="0" stroke="#000000" fill="none" stroke-width="1" marker-end="url(#clock)"/>
<text class="fnt1" x="10" y="0" text-anchor="normal" dy="5.5">spi_clk</text>
</g>
<g transform="translate(0,420)">
<line x1="-20" y1="0" x2="0" y2="0" stroke="#000000" fill="none" stroke-width="1"/>
<text class="fnt1" x="10" y="0" text-anchor="normal" dy="5.5">cmd_ready</text>
</g>
<g transform="translate(0,440)">
<line x1="-20" y1="0" x2="0" y2="0" stroke="#000000" fill="none" stroke-width="1"/>
<text class="fnt1" x="10" y="0" text-anchor="normal" dy="5.5">sdo_data_ready</text>
</g>
<g transform="translate(0,460)">
<line x1="-20" y1="0" x2="0" y2="0" stroke="#000000" fill="none" stroke-width="1"/>
<text class="fnt1" x="10" y="0" text-anchor="normal" dy="5.5">sdi_data_valid</text>
</g>
<g transform="translate(0,480)">
<line x1="-20" y1="0" x2="0" y2="0" stroke="#000000" fill="none" stroke-width="3"/>
<text class="fnt1" x="10" y="0" text-anchor="normal" dy="5.5">sdi_data</text>
<text class="fnt1" x="-30" y="0" text-anchor="end" dy="5.5" style="fill:#969696"> <tspan fill="#039BE5">[(NUM_OF_SDI*DATA_WIDTH-1):0]</tspan></text>
</g>
<g transform="translate(0,500)">
<line x1="-20" y1="0" x2="0" y2="0" stroke="#000000" fill="none" stroke-width="1"/>
<text class="fnt1" x="10" y="0" text-anchor="normal" dy="5.5">sync_valid</text>
</g>
<g transform="translate(0,520)">
<line x1="-20" y1="0" x2="0" y2="0" stroke="#000000" fill="none" stroke-width="3"/>
<text class="fnt1" x="10" y="0" text-anchor="normal" dy="5.5">sync_data</text>
<text class="fnt1" x="-30" y="0" text-anchor="end" dy="5.5" style="fill:#969696"> <tspan fill="#039BE5">[7:0]</tspan></text>
</g>
<g transform="translate(0,540)">
<line x1="-20" y1="0" x2="0" y2="0" stroke="#000000" fill="none" stroke-width="1"/>
<text class="fnt1" x="10" y="0" text-anchor="normal" dy="5.5">offload0_enabled</text>
</g>
<g transform="translate(0,560)">
<line x1="-20" y1="0" x2="0" y2="0" stroke="#000000" fill="none" stroke-width="1"/>
<text class="fnt1" x="10" y="0" text-anchor="normal" dy="5.5">offload_sync_valid</text>
</g>
<g transform="translate(0,580)">
<line x1="-20" y1="0" x2="0" y2="0" stroke="#000000" fill="none" stroke-width="3"/>
<text class="fnt1" x="10" y="0" text-anchor="normal" dy="5.5">offload_sync_data</text>
<text class="fnt1" x="-30" y="0" text-anchor="end" dy="5.5" style="fill:#969696"> <tspan fill="#039BE5">[7:0]</tspan></text>
</g>
<g transform="translate(360,0)">
<line x1="20" y1="0" x2="0" y2="0" stroke="#000000" fill="none" stroke-width="1"/>
<text class="fnt1" x="-10" y="0" text-anchor="end" dy="5.5">s_axi_awready</text>
</g>
<g transform="translate(360,20)">
<line x1="20" y1="0" x2="0" y2="0" stroke="#000000" fill="none" stroke-width="1"/>
<text class="fnt1" x="-10" y="0" text-anchor="end" dy="5.5">s_axi_wready</text>
</g>
<g transform="translate(360,40)">
<line x1="20" y1="0" x2="0" y2="0" stroke="#000000" fill="none" stroke-width="1"/>
<text class="fnt1" x="-10" y="0" text-anchor="end" dy="5.5">s_axi_bvalid</text>
</g>
<g transform="translate(360,60)">
<line x1="20" y1="0" x2="0" y2="0" stroke="#000000" fill="none" stroke-width="3"/>
<text class="fnt1" x="-10" y="0" text-anchor="end" dy="5.5">s_axi_bresp</text>
<text class="fnt1" x="30" y="0" text-anchor="normal" dy="5.5" style="fill:#969696"> <tspan fill="#039BE5">[1:0]</tspan></text>
</g>
<g transform="translate(360,80)">
<line x1="20" y1="0" x2="0" y2="0" stroke="#000000" fill="none" stroke-width="1"/>
<text class="fnt1" x="-10" y="0" text-anchor="end" dy="5.5">s_axi_arready</text>
</g>
<g transform="translate(360,100)">
<line x1="20" y1="0" x2="0" y2="0" stroke="#000000" fill="none" stroke-width="1"/>
<text class="fnt1" x="-10" y="0" text-anchor="end" dy="5.5">s_axi_rvalid</text>
</g>
<g transform="translate(360,120)">
<line x1="20" y1="0" x2="0" y2="0" stroke="#000000" fill="none" stroke-width="3"/>
<text class="fnt1" x="-10" y="0" text-anchor="end" dy="5.5">s_axi_rresp</text>
<text class="fnt1" x="30" y="0" text-anchor="normal" dy="5.5" style="fill:#969696"> <tspan fill="#039BE5">[1:0]</tspan></text>
</g>
<g transform="translate(360,140)">
<line x1="20" y1="0" x2="0" y2="0" stroke="#000000" fill="none" stroke-width="3"/>
<text class="fnt1" x="-10" y="0" text-anchor="end" dy="5.5">s_axi_rdata</text>
<text class="fnt1" x="30" y="0" text-anchor="normal" dy="5.5" style="fill:#969696"> <tspan fill="#039BE5">[31:0]</tspan></text>
</g>
<g transform="translate(360,160)">
<line x1="20" y1="0" x2="0" y2="0" stroke="#000000" fill="none" stroke-width="1"/>
<text class="fnt1" x="-10" y="0" text-anchor="end" dy="5.5">up_wack</text>
</g>
<g transform="translate(360,180)">
<line x1="20" y1="0" x2="0" y2="0" stroke="#000000" fill="none" stroke-width="3"/>
<text class="fnt1" x="-10" y="0" text-anchor="end" dy="5.5">up_rdata</text>
<text class="fnt1" x="30" y="0" text-anchor="normal" dy="5.5" style="fill:#969696"> <tspan fill="#039BE5">[31:0]</tspan></text>
</g>
<g transform="translate(360,200)">
<line x1="20" y1="0" x2="0" y2="0" stroke="#000000" fill="none" stroke-width="1"/>
<text class="fnt1" x="-10" y="0" text-anchor="end" dy="5.5">up_rack</text>
</g>
<g transform="translate(360,220)">
<line x1="20" y1="0" x2="0" y2="0" stroke="#000000" fill="none" stroke-width="1"/>
<text class="fnt1" x="-10" y="0" text-anchor="end" dy="5.5">irq</text>
<text class="fnt1" x="30" y="0" text-anchor="normal" dy="5.5" style="fill:#969696">reg</text>
</g>
<g transform="translate(360,240)">
<line x1="20" y1="0" x2="0" y2="0" stroke="#000000" fill="none" stroke-width="1"/>
<text class="fnt1" x="-10" y="0" text-anchor="end" dy="5.5">spi_resetn</text>
</g>
<g transform="translate(360,260)">
<line x1="20" y1="0" x2="0" y2="0" stroke="#000000" fill="none" stroke-width="1"/>
<text class="fnt1" x="-10" y="0" text-anchor="end" dy="5.5">cmd_valid</text>
</g>
<g transform="translate(360,280)">
<line x1="20" y1="0" x2="0" y2="0" stroke="#000000" fill="none" stroke-width="3"/>
<text class="fnt1" x="-10" y="0" text-anchor="end" dy="5.5">cmd_data</text>
<text class="fnt1" x="30" y="0" text-anchor="normal" dy="5.5" style="fill:#969696"> <tspan fill="#039BE5">[15:0]</tspan></text>
</g>
<g transform="translate(360,300)">
<line x1="20" y1="0" x2="0" y2="0" stroke="#000000" fill="none" stroke-width="1"/>
<text class="fnt1" x="-10" y="0" text-anchor="end" dy="5.5">sdo_data_valid</text>
</g>
<g transform="translate(360,320)">
<line x1="20" y1="0" x2="0" y2="0" stroke="#000000" fill="none" stroke-width="3"/>
<text class="fnt1" x="-10" y="0" text-anchor="end" dy="5.5">sdo_data</text>
<text class="fnt1" x="30" y="0" text-anchor="normal" dy="5.5" style="fill:#969696"> <tspan fill="#039BE5">[(DATA_WIDTH-1):0]</tspan></text>
</g>
<g transform="translate(360,340)">
<line x1="20" y1="0" x2="0" y2="0" stroke="#000000" fill="none" stroke-width="1"/>
<text class="fnt1" x="-10" y="0" text-anchor="end" dy="5.5">sdi_data_ready</text>
</g>
<g transform="translate(360,360)">
<line x1="20" y1="0" x2="0" y2="0" stroke="#000000" fill="none" stroke-width="1"/>
<text class="fnt1" x="-10" y="0" text-anchor="end" dy="5.5">sync_ready</text>
</g>
<g transform="translate(360,380)">
<line x1="20" y1="0" x2="0" y2="0" stroke="#000000" fill="none" stroke-width="1"/>
<text class="fnt1" x="-10" y="0" text-anchor="end" dy="5.5">offload0_cmd_wr_en</text>
</g>
<g transform="translate(360,400)">
<line x1="20" y1="0" x2="0" y2="0" stroke="#000000" fill="none" stroke-width="3"/>
<text class="fnt1" x="-10" y="0" text-anchor="end" dy="5.5">offload0_cmd_wr_data</text>
<text class="fnt1" x="30" y="0" text-anchor="normal" dy="5.5" style="fill:#969696"> <tspan fill="#039BE5">[15:0]</tspan></text>
</g>
<g transform="translate(360,420)">
<line x1="20" y1="0" x2="0" y2="0" stroke="#000000" fill="none" stroke-width="1"/>
<text class="fnt1" x="-10" y="0" text-anchor="end" dy="5.5">offload0_sdo_wr_en</text>
</g>
<g transform="translate(360,440)">
<line x1="20" y1="0" x2="0" y2="0" stroke="#000000" fill="none" stroke-width="3"/>
<text class="fnt1" x="-10" y="0" text-anchor="end" dy="5.5">offload0_sdo_wr_data</text>
<text class="fnt1" x="30" y="0" text-anchor="normal" dy="5.5" style="fill:#969696"> <tspan fill="#039BE5">[(DATA_WIDTH-1):0]</tspan></text>
</g>
<g transform="translate(360,460)">
<line x1="20" y1="0" x2="0" y2="0" stroke="#000000" fill="none" stroke-width="1"/>
<text class="fnt1" x="-10" y="0" text-anchor="end" dy="5.5">offload0_mem_reset</text>
</g>
<g transform="translate(360,480)">
<line x1="20" y1="0" x2="0" y2="0" stroke="#000000" fill="none" stroke-width="1"/>
<text class="fnt1" x="-10" y="0" text-anchor="end" dy="5.5">offload0_enable</text>
</g>
<g transform="translate(360,500)">
<line x1="20" y1="0" x2="0" y2="0" stroke="#000000" fill="none" stroke-width="1"/>
<text class="fnt1" x="-10" y="0" text-anchor="end" dy="5.5">offload_sync_ready</text>
</g>
</g>
<rect x="1.0" y="324.0" width="358.0" height="608.0" stroke="#000000" fill="none" stroke-width="3"/>
</svg>