<svg width="3046" height="1115" xmlns="http://www.w3.org/2000/svg" xmlns:xlink="http://www.w3.org/1999/xlink" xml:space="preserve" overflow="hidden"><defs><clipPath id="clip0"><rect x="751" y="648" width="3046" height="1115"/></clipPath></defs><g clip-path="url(#clip0)" transform="translate(-751 -648)"><rect x="1150.5" y="652.5" width="2172" height="1108" stroke="#000000" stroke-width="4.58333" stroke-miterlimit="8" fill="none"/><text font-family="Arial,Arial_MSFontService,sans-serif" font-weight="700" font-size="64" transform="matrix(1 0 0 1 1800.05 730)">AXI_LTC235x IP architecture</text><rect x="1999.5" y="783.5" width="541" height="268" stroke="#000000" stroke-width="4.58333" stroke-miterlimit="8" fill="#FFFFFF"/><text font-family="Arial,Arial_MSFontService,sans-serif" font-weight="400" font-size="48" transform="matrix(1 0 0 1 2033.95 906)">AXI_LTC235x_<tspan font-size="48" x="327.136" y="0">CMOS </tspan><tspan font-size="48" x="146.094" y="58">/ _LVDS</tspan></text><rect x="1190.5" y="1081.5" width="623" height="269" stroke="#000000" stroke-width="4.58333" stroke-miterlimit="8" fill="#FFFFFF"/><text font-family="Arial,Arial_MSFontService,sans-serif" font-weight="400" font-size="48" transform="matrix(1 0 0 1 1274.72 1234)">UP_ADC_CHANNEL</text><rect x="2641.5" y="1103.5" width="623" height="269" stroke="#000000" stroke-width="4.58333" stroke-miterlimit="8" fill="#FFFFFF"/><text font-family="Arial,Arial_MSFontService,sans-serif" font-weight="400" font-size="48" transform="matrix(1 0 0 1 2729.01 1256)">UP_ADC_COMMON</text><rect x="1999.5" y="1459.5" width="541" height="269" stroke="#000000" stroke-width="4.58333" stroke-miterlimit="8" fill="#FFFFFF"/><text font-family="Arial,Arial_MSFontService,sans-serif" font-weight="400" font-size="48" transform="matrix(1 0 0 1 2184.06 1612)">UP_AXI</text><rect x="1200.5" y="1090.5" width="623" height="269" stroke="#000000" stroke-width="4.58333" stroke-miterlimit="8" fill="#FFFFFF"/><text font-family="Arial,Arial_MSFontService,sans-serif" font-weight="400" font-size="48" transform="matrix(1 0 0 1 1284.81 1243)">UP_ADC_CHANNEL</text><rect x="1210.5" y="1098.5" width="623" height="268" stroke="#000000" stroke-width="4.58333" stroke-miterlimit="8" fill="#FFFFFF"/><text font-family="Arial,Arial_MSFontService,sans-serif" font-weight="400" font-size="48" transform="matrix(1 0 0 1 1294.9 1250)">UP_ADC_CHANNEL</text><rect x="1219.5" y="1105.5" width="623" height="269" stroke="#000000" stroke-width="4.58333" stroke-miterlimit="8" fill="#FFFFFF"/><text font-family="Arial,Arial_MSFontService,sans-serif" font-weight="400" font-size="48" transform="matrix(1 0 0 1 1303.29 1258)">UP_ADC_CHANNEL</text><rect x="1229.5" y="1113.5" width="623" height="269" stroke="#000000" stroke-width="4.58333" stroke-miterlimit="8" fill="#FFFFFF"/><text font-family="Arial,Arial_MSFontService,sans-serif" font-weight="400" font-size="48" transform="matrix(1 0 0 1 1313.38 1265)">UP_ADC_CHANNEL</text><rect x="1237.5" y="1122.5" width="623" height="269" stroke="#000000" stroke-width="4.58333" stroke-miterlimit="8" fill="#FFFFFF"/><text font-family="Arial,Arial_MSFontService,sans-serif" font-weight="400" font-size="48" transform="matrix(1 0 0 1 1321.63 1274)">UP_ADC_CHANNEL</text><rect x="1248.5" y="1132.5" width="623" height="268" stroke="#000000" stroke-width="4.58333" stroke-miterlimit="8" fill="#FFFFFF"/><text font-family="Arial,Arial_MSFontService,sans-serif" font-weight="400" font-size="48" transform="matrix(1 0 0 1 1332.57 1284)">UP_ADC_CHANNEL</text><rect x="1259.5" y="1142.5" width="623" height="269" stroke="#000000" stroke-width="4.58333" stroke-miterlimit="8" fill="#FFFFFF"/><text font-family="Arial,Arial_MSFontService,sans-serif" font-weight="400" font-size="48" transform="matrix(1 0 0 1 1343.51 1295)">UP_ADC_CHANNEL</text><path d="M1520.21 1075.29 1520.21 915.208 1977 915.208 1977 919.792 1522.5 919.792 1524.79 917.5 1524.79 1075.29ZM1536.25 1070.71 1522.5 1098.21 1508.75 1070.71ZM1972.41 903.75 1999.91 917.5 1972.41 931.25Z"/><path d="M2563.42 915.208 2955.29 915.208 2955.29 1080.69 2950.71 1080.69 2950.71 917.5 2953 919.792 2563.42 919.792ZM2568 931.25 2540.5 917.5 2568 903.75ZM2966.75 1076.1 2953 1103.6 2939.25 1076.1Z"/><path d="M2955.29 1395.42 2955.29 1596.71 2563.42 1596.71 2563.42 1592.13 2953 1592.13 2950.71 1594.42 2950.71 1395.42ZM2939.25 1400 2953 1372.5 2966.75 1400ZM2568 1608.17 2540.5 1594.42 2568 1580.67Z"/><path d="M1976.38 1596.8 1568.21 1596.8 1568.21 1434.42 1572.79 1434.42 1572.79 1594.51 1570.5 1592.22 1976.38 1592.22ZM1971.8 1580.76 1999.3 1594.51 1971.8 1608.26ZM1556.75 1439 1570.5 1411.5 1584.25 1439Z"/><path d="M0 49 38.3333 0 191.667 0C212.838-1.45069e-14 230 21.938 230 49 230 76.0619 212.838 98 191.667 98L38.3333 98Z" stroke="#8FAADC" stroke-width="4.58333" stroke-miterlimit="8" fill="#DAE3F3" fill-rule="evenodd" transform="matrix(-1 0 0 1 1150.5 1630.5)"/><text font-family="Arial,Arial_MSFontService,sans-serif" font-weight="400" font-size="28" transform="matrix(1 0 0 1 958.023 1690)">S_AXI_MM<tspan font-size="37" x="-23.4369" y="-987">scki</tspan><tspan font-size="37" x="-36.0411" y="-943">scko</tspan><tspan font-size="37" x="-7.3952" y="-899">sdi</tspan><tspan font-size="37" x="-19.9994" y="-855">s</tspan><tspan font-size="37" x="-1.66608" y="-855">do</tspan><tspan font-size="37" x="-64.6869" y="-811">scki_p</tspan><tspan font-size="37" x="-64.6869" y="-767">scki_n</tspan><tspan font-size="37" x="-77.2911" y="-723">scko_p</tspan><tspan font-size="37" x="-77.2911" y="-679">scko_n</tspan><tspan font-size="37" x="-48.6452" y="-635">sdi_p</tspan><tspan font-size="37" x="-48.6452" y="-591">sdi_n</tspan><tspan font-size="37" x="-61.2494" y="-547">sdo_p</tspan><tspan font-size="37" x="-61.2494" y="-503">sdo_n</tspan><tspan font-size="37" x="2511.86" y="-945">adc_dovf</tspan><tspan font-size="37" x="2511.86" y="-901">adc_enable</tspan><tspan font-size="37" x="2703.22" y="-901">_*</tspan><tspan font-size="37" x="2511.86" y="-857">adc_valid</tspan><tspan font-size="37" x="2667.7" y="-857">_*</tspan><tspan font-size="37" x="2511.86" y="-813">adc_data</tspan><tspan font-size="37" x="2664.26" y="-813">_* [31:0]</tspan></text><path d="M1031.5 692.5 1150.33 692.501" stroke="#000000" stroke-width="3.4375" stroke-miterlimit="8" fill="none" fill-rule="evenodd"/><path d="M1031.5 737.5 1150.33 737.5" stroke="#000000" stroke-width="3.4375" stroke-miterlimit="8" fill="none" fill-rule="evenodd"/><path d="M1035.5 780.5 1154.33 780.501" stroke="#000000" stroke-width="3.4375" stroke-miterlimit="8" fill="none" fill-rule="evenodd"/><path d="M1031.5 1003.5 1150.33 1003.5" stroke="#000000" stroke-width="3.4375" stroke-miterlimit="8" fill="none" fill-rule="evenodd"/><path d="M1031.5 872.5 1150.33 872.5" stroke="#000000" stroke-width="3.4375" stroke-miterlimit="8" fill="none" fill-rule="evenodd"/><path d="M1031.5 917.5 1150.33 917.5" stroke="#000000" stroke-width="3.4375" stroke-miterlimit="8" fill="none" fill-rule="evenodd"/><path d="M1031.5 963.5 1150.33 963.5" stroke="#000000" stroke-width="3.4375" stroke-miterlimit="8" fill="none" fill-rule="evenodd"/><path d="M1035.5 825.5 1154.33 825.5" stroke="#000000" stroke-width="6.875" stroke-miterlimit="8" fill="none" fill-rule="evenodd"/><path d="M3322.5 737.5 3441.33 737.5" stroke="#000000" stroke-width="3.4375" stroke-miterlimit="8" fill="none" fill-rule="evenodd"/><path d="M3322.5 782.5 3441.33 782.5" stroke="#000000" stroke-width="3.4375" stroke-miterlimit="8" fill="none" fill-rule="evenodd"/><path d="M3326.5 825.5 3445.33 825.5" stroke="#000000" stroke-width="3.4375" stroke-miterlimit="8" fill="none" fill-rule="evenodd"/><path d="M3326 869 3444.83 869" stroke="#000000" stroke-width="10.3125" stroke-miterlimit="8" fill="none" fill-rule="evenodd"/><path d="M1031.5 1570.5 1150.33 1570.5" stroke="#000000" stroke-width="3.4375" stroke-miterlimit="8" fill="none" fill-rule="evenodd"/><text font-family="Arial,Arial_MSFontService,sans-serif" font-weight="400" font-size="37" transform="matrix(1 0 0 1 923.246 1494)">busy<tspan font-size="37" x="-136.927" y="44">lvds_cmos_n</tspan><tspan font-size="37" x="-118.594" y="88">external</tspan><tspan font-size="37" x="12.6042" y="88">_clk</tspan></text><path d="M1031.5 1525.5 1150.33 1525.5" stroke="#000000" stroke-width="3.4375" stroke-miterlimit="8" fill="none" fill-rule="evenodd"/><path d="M1035.5 1483.5 1154.33 1483.5" stroke="#000000" stroke-width="3.4375" stroke-miterlimit="8" fill="none" fill-rule="evenodd"/><path d="M1031.5 1048.5 1150.33 1048.5" stroke="#000000" stroke-width="3.4375" stroke-miterlimit="8" fill="none" fill-rule="evenodd"/><path d="M1031.5 1089.5 1150.33 1089.5" stroke="#000000" stroke-width="3.4375" stroke-miterlimit="8" fill="none" fill-rule="evenodd"/><path d="M1031.5 1140.5 1150.33 1140.5" stroke="#000000" stroke-width="3.4375" stroke-miterlimit="8" fill="none" fill-rule="evenodd"/><path d="M1031.5 1181.5 1150.33 1181.5" stroke="#000000" stroke-width="3.4375" stroke-miterlimit="8" fill="none" fill-rule="evenodd"/></g></svg>