<?xml version="1.0" encoding="UTF-8" standalone="no"?>
<!-- Created with Inkscape (http://www.inkscape.org/) -->
<svg width="150" height="150" id="svg2" sodipodi:version="0.32" inkscape:version="1.1.2 (0a00cf5339, 2022-02-04)" version="1.0" sodipodi:docname="esd_warning.svg" inkscape:output_extension="org.inkscape.output.svg.inkscape" xmlns:inkscape="http://www.inkscape.org/namespaces/inkscape" xmlns:sodipodi="http://sodipodi.sourceforge.net/DTD/sodipodi-0.dtd" xmlns="http://www.w3.org/2000/svg" xmlns:svg="http://www.w3.org/2000/svg" xmlns:rdf="http://www.w3.org/1999/02/22-rdf-syntax-ns#" xmlns:cc="http://creativecommons.org/ns#" xmlns:dc="http://purl.org/dc/elements/1.1/">
  <defs id="defs4"/>
  <sodipodi:namedview id="base" pagecolor="#ffffff" bordercolor="#666666" borderopacity="1.0" gridtolerance="10000" guidetolerance="10" objecttolerance="10" inkscape:pageopacity="0.0" inkscape:pageshadow="2" inkscape:zoom="1" inkscape:cx="-252.99999" inkscape:cy="231.49999" inkscape:document-units="px" inkscape:current-layer="g12074" width="325px" height="300px" showgrid="false" inkscape:grid-points="true" inkscape:window-width="2560" inkscape:window-height="1014" inkscape:window-x="0" inkscape:window-y="0" inkscape:pagecheckerboard="0" inkscape:window-maximized="1">
    <inkscape:grid id="GridFromPre046Settings" type="xygrid" originx="0" originy="0" spacingx="5" spacingy="5" color="#3f3fff" empcolor="#3f3fff" opacity="0.15" empopacity="0.38" empspacing="5"/>
  </sodipodi:namedview>
  <metadata id="metadata7">
    <rdf:RDF>
      <cc:Work rdf:about="">
        <dc:format>image/svg+xml</dc:format>
        <dc:type rdf:resource="http://purl.org/dc/dcmitype/StillImage"/>
      </cc:Work>
    </rdf:RDF>
  </metadata>
  <g inkscape:label="Layer 1" inkscape:groupmode="layer" id="layer1">
    <path style="fill:none;stroke:#000000;stroke-width:0.2;stroke-linecap:round;stroke-linejoin:miter;stroke-miterlimit:4;stroke-dasharray:none;stroke-opacity:1" d="m 361.97272,202.72644 c 0,0 2.10198,-0.43832 2.61108,0.15433 0.50909,0.59265 0.0352,1.82629 0.0352,1.82629" id="path9107"/>
    <g id="g12074" transform="translate(-87.500013,-284.7024)">
      <rect style="fill:#ffff00;fill-opacity:1;stroke:none;stroke-width:0.2;stroke-linecap:round;stroke-linejoin:round;stroke-miterlimit:4;stroke-dasharray:none" id="rect12202" width="150" height="150" x="87.500015" y="284.70239"/>
      <text xml:space="preserve" style="font-size:21.3333px;line-height:1.25;font-family:sans-serif;text-align:center;text-anchor:middle" x="163.42709" y="365.07608" id="text1080"><tspan sodipodi:role="line" id="tspan1078" x="163.42709" y="365.07608" style="font-weight:bold;font-size:21.3333px">ATTENTION</tspan></text>
      <text xml:space="preserve" style="font-size:10.6667px;line-height:1.25;font-family:sans-serif;text-align:center;text-anchor:middle" x="162.62502" y="381.61426" id="text1080-3"><tspan sodipodi:role="line" id="tspan1078-6" x="162.62502" y="381.61426" style="font-weight:bold">OBSERVE PRECAUTIONS</tspan><tspan sodipodi:role="line" x="162.62502" y="394.94763" id="tspan1987" style="font-weight:bold">FOR HANDLING</tspan></text>
      <text xml:space="preserve" style="font-size:10.6667px;line-height:1.25;font-family:sans-serif;text-align:center;text-anchor:middle" x="162.44531" y="411.09079" id="text2783"><tspan sodipodi:role="line" id="tspan2781" x="162.44531" y="411.09079">ELECTROSTATIC</tspan><tspan sodipodi:role="line" x="162.44531" y="424.42416" id="tspan2785">SENSITIVE DEVICES</tspan></text>
      <g id="g11942" transform="translate(-337.5,129.7024)">
        <path id="path7806" style="fill:#000000;fill-opacity:1;stroke:none;stroke-width:1px;stroke-linecap:butt;stroke-linejoin:miter;stroke-opacity:1" d="m 500,160 -13.88867,15.43164 7.41406,6.5918 c 0.73078,-0.50761 0.9953,-0.99749 1.58789,-1.36719 1.70718,-1.06506 3.62325,-1.79303 5.54883,-2.37695 2.3994,-0.7276 4.94281,-0.85316 7.39471,-1.37725 1.97075,-0.42125 4.085,-0.41509 5.87677,-1.41963 z M 481.38867,180.67969 455,210 h 59.375 l -10.07031,-8.95117 c -1.653,1.51323 -3.29828,2.91254 -3.83399,2.97461 -1.07886,0.12523 -2.70775,-0.0334 -3.23314,0.1268 -0.52539,0.16016 -1.54127,1.0551 -2.18092,0.9689 -0.63965,-0.0862 -1.88525,-1.25343 -1.21484,-2.97266 0.42241,-1.08325 1.26634,-1.7491 2.15039,-2.18945 -0.20247,-1.1875 -0.57197,-3.0816 -0.96289,-3.63476 -0.38595,-0.54613 -0.43621,-2.56923 -0.42969,-3.90039 l -0.0703,-0.0625 c -1.29565,1.21372 -2.33194,2.21905 -2.39453,2.38476 -0.18178,0.48147 -0.28473,7.82278 -0.29493,8.55664 -0.0102,0.73387 -1.08078,2.99901 -2.56836,3.13867 -1.48758,0.13966 -1.38018,-2.12747 -1.36328,-2.76172 0.0169,-0.63426 0.52083,-4.05808 0.13672,-4.58789 -0.38407,-0.52981 -0.45143,-6.5066 0.075,-7.05551 1.19416,-1.24512 2.23138,-1.83196 3.26485,-2.46988 l -0.31641,-0.28125 c -2.37985,1.22663 -4.50134,2.40868 -4.81445,2.64063 -0.6453,0.47803 -0.47736,4.51722 -0.53516,5.41992 -0.0578,0.9027 -0.0319,1.68608 -1.20508,3.16797 -1.17321,1.48192 -2.12506,0.2073 -2.28906,-0.0449 -0.164,-0.25221 0.0985,-1.45018 -0.0703,-2.08789 -0.16884,-0.63771 0.035,-7.49518 0.7832,-8.78907 0.74819,-1.29389 2.88147,-2.18365 4.32227,-3.01367 0.13783,-0.0827 0.28483,-0.18556 0.43359,-0.29297 z m 40.67774,3.83789 c -0.87675,0.62504 -1.8488,1.35316 -2.33399,1.84765 -1.00512,1.02441 -3.15429,6.32423 -5.18945,7.43946 -1.4284,0.78275 -3.41848,1.73613 -4.86328,2.57617 L 525,210 h 20 z m -22.58743,12.24219 -0.82468,-0.45898 c 0,0 0.48921,0.92059 0.88086,1.60352 0.19546,-0.1724 0.40325,-0.37063 0.60546,-0.55664 z" sodipodi:nodetypes="cccaaacccccccssscsccssssssccssssssccccssccccccccc"/>
        <g id="g11933">
          <path id="path6728-6" style="fill:#000000;stroke:none;stroke-width:1px;stroke-linecap:butt;stroke-linejoin:miter;stroke-opacity:1" d="m 493.52539,182.02344 c -1.07116,0.74404 -2.27148,1.44922 -2.27148,1.44922 -0.75538,0.27614 -2.31468,1.91101 -3.56055,2.81054 l 3.375,3 0.31641,0.28125 3.14453,2.79493 c 0.0271,-0.0254 0.043,-0.0409 0.0703,-0.0664 -2.9e-4,0.0385 1.9e-4,0.0891 0,0.12891 l 4.29687,3.82031 1.24414,1.10547 4.16407,3.70117 c 1.67595,-1.53424 3.35988,-3.18558 3.91015,-3.67969 0.32587,-0.2926 0.85113,-0.63146 1.46485,-0.98828 z" sodipodi:nodetypes="cccccccccccscc"/>
          <path style="fill:none;stroke:#000000;stroke-width:0.2;stroke-linecap:round;stroke-linejoin:miter;stroke-miterlimit:4;stroke-dasharray:none;stroke-opacity:1" d="m 494.42784,203.1704 c 0,0 2.10198,-0.43832 2.61108,0.15433 0.50909,0.59265 0.0352,1.82629 0.0352,1.82629" id="path9107-2"/>
          <path style="fill:none;stroke:#000000;stroke-width:0.2;stroke-linecap:round;stroke-linejoin:miter;stroke-miterlimit:4;stroke-dasharray:none;stroke-opacity:1" d="m 486.98998,192.0672 c 0,0 -1.27374,0.0561 -1.75397,-0.67975" id="path9841"/>
          <path style="fill:none;stroke:#000000;stroke-width:0.2;stroke-linecap:round;stroke-linejoin:miter;stroke-miterlimit:4;stroke-dasharray:none;stroke-opacity:1" d="m 492.77461,194.78275 c 0,0 -0.97405,0.1668 -1.87385,-0.85531" id="path9876" sodipodi:nodetypes="cc"/>
          <path style="fill:#000000;stroke:none;stroke-width:1px;stroke-linecap:butt;stroke-linejoin:miter;stroke-opacity:1" d="m 503.85124,191.71183 2.99232,-0.92551 c 0,0 -0.17597,1.44666 -1.89728,3.08301 0,0 0.031,-1.77991 0.27069,-1.97675 0.0493,-0.21954 -1.36573,-0.18075 -1.36573,-0.18075 z" id="path11231-9" sodipodi:nodetypes="ccccc"/>
        </g>
      </g>
    </g>
  </g>
</svg>