<?xml version="1.0" encoding="UTF-8"?>
<!-- Created with Inkscape (http://www.inkscape.org/) -->
<svg width="300" height="100" version="1.1" viewBox="0 0 79.376 26.458" xmlns="http://www.w3.org/2000/svg" xmlns:cc="http://creativecommons.org/ns#" xmlns:dc="http://purl.org/dc/elements/1.1/" xmlns:rdf="http://www.w3.org/1999/02/22-rdf-syntax-ns#">
 <metadata>
  <rdf:RDF>
   <cc:Work rdf:about="">
    <dc:format>image/svg+xml</dc:format>
    <dc:type rdf:resource="http://purl.org/dc/dcmitype/StillImage"/>
   </cc:Work>
  </rdf:RDF>
 </metadata>
 <text x="77.054207" y="25.533411" fill="#000000" font-family="Barlow" font-size="4.4431px" letter-spacing="0px" stroke-width=".11108" word-spacing="0px" style="line-height:1.25" xml:space="preserve"><tspan x="39.59914" y="25.533411" font-family="Barlow" font-size="4.4431px" font-weight="bold" letter-spacing=".36777px" stroke-width=".11108" text-align="center" text-anchor="middle" style="font-feature-settings:normal;font-variant-caps:normal;font-variant-ligatures:normal;font-variant-numeric:normal">IP CORES &amp; REFERENCE DESIGNS</tspan></text>
 <g transform="translate(1.4218)">
  <g transform="matrix(.20143 0 0 .20143 -56.41 34.62)" fill="#646464" stroke="#fff" stroke-width="3.9716">
   <rect x="295.42" y="-162.3" width="41.057" height="41.057"/>
   <path d="m298.67-166.73v4.3944"/>
   <path d="m304.41-166.73v4.3944"/>
   <path d="m310.14-166.73v4.3944"/>
   <path d="m315.88-166.73v4.3944"/>
   <path d="m321.62-166.73v4.3944"/>
   <path d="m327.36-166.73v4.3944"/>
   <path d="m333.09-166.73v4.3944"/>
   <path d="m340.88-159.12h-4.3944"/>
   <path d="m340.88-153.42h-4.3944"/>
   <path d="m340.88-147.71h-4.3944"/>
   <path d="m340.88-142.01h-4.3944"/>
   <path d="m340.88-136.31h-4.3944"/>
   <path d="m340.88-130.6h-4.3944"/>
   <path d="m340.88-124.9h-4.3944"/>
   <path d="m291.13-159.19h4.3944"/>
   <path d="m291.13-153.48h4.3944"/>
   <path d="m291.13-147.78h4.3944"/>
   <path d="m291.13-142.08h4.3944"/>
   <path d="m291.13-136.37h4.3944"/>
   <path d="m291.13-130.67h4.3944"/>
   <path d="m291.13-124.97h4.3944"/>
   <path d="m298.75-116.8v-4.3944"/>
   <path d="m304.49-116.8v-4.3944"/>
   <path d="m310.22-116.8v-4.3944"/>
   <path d="m315.96-116.8v-4.3944"/>
   <path d="m321.7-116.8v-4.3944"/>
   <path d="m327.43-116.8v-4.3944"/>
   <path d="m333.17-116.8v-4.3944"/>
  </g>
  <path d="m0.841 17.54 0.04656-16.669 14.412 8.3747-7.2294 4.147z" fill="#ff8d34"/>
  <path d="m19.98 5.43-4.084 12.053h1.9844l0.92552-2.8934h0.0227l0.51367-1.5792h-7e-3l1.6619-5.1253 1.5208 5.1253h-1.2619l-0.51366 1.5792h2.2304l0.86817 2.8934h2.0087l-3.8442-12.053zm7.0187 0v12.053h4.7945c0.33618 0 0.64221-0.0221 0.91777-0.0661 0.28107-0.0496 0.53471-0.11577 0.76068-0.19844 0.23147-0.0882 0.44048-0.19294 0.62787-0.31419 0.18738-0.12676 0.36107-0.26737 0.52089-0.42168 0.19841-0.18738 0.36383-0.42448 0.4961-0.71107 0.13778-0.28658 0.2453-0.63069 0.32246-1.033 0.0827-0.40783 0.14056-0.88203 0.17363-1.4221 0.0386-0.5401 0.0579-1.1599 0.0579-1.8598s-0.0193-1.3202-0.0579-1.8604c-0.0331-0.54011-0.091-1.011-0.17363-1.4134-0.0772-0.40784-0.18468-0.75246-0.32246-1.0335-0.13227-0.28659-0.29769-0.52644-0.4961-0.71934-0.15982-0.15431-0.33351-0.29164-0.52089-0.41289-0.18739-0.12125-0.3964-0.22601-0.62787-0.31419-0.22597-0.0882-0.47961-0.15435-0.76068-0.19844-0.27556-0.0496-0.58159-0.0744-0.91777-0.0744zm10.78 0v12.053h1.8686v-12.053zm10.425 0v12.053h0.9095v-5.6214h6.3159v5.6214h0.91726v-12.053h-0.91726v5.6214h-6.3159v-5.6214zm10.648 0v12.053h4.4638c0.33618 0 0.64221-0.0221 0.91777-0.0661 0.28107-0.0496 0.53472-0.11577 0.76068-0.19844 0.23147-0.0882 0.44049-0.19294 0.62787-0.31419 0.18738-0.12676 0.36107-0.26737 0.5209-0.42168 0.1984-0.18738 0.36382-0.42448 0.49609-0.71107 0.13778-0.28658 0.2453-0.63069 0.32246-1.033 0.08267-0.40783 0.14056-0.88203 0.17363-1.4221 0.03858-0.5401 0.05788-1.1599 0.05788-1.8598s-0.01929-1.3202-0.05788-1.8604c-0.03307-0.5401-0.09097-1.011-0.17363-1.4134-0.07716-0.40783-0.18468-0.75246-0.32246-1.0335-0.13227-0.28659-0.29769-0.52644-0.49609-0.71934-0.15983-0.15431-0.33352-0.29164-0.5209-0.41289s-0.3964-0.22601-0.62787-0.31419c-0.22596-0.0882-0.4796-0.15435-0.76068-0.19844-0.27556-0.0496-0.58159-0.0744-0.91777-0.0744zm10.747 0v12.053h6.0927v-0.81028h-5.1831v-11.243zm-9.8376 0.81029h3.6044c0.21494 0 0.42723 0.0165 0.63665 0.0496s0.40242 0.0794 0.57878 0.14004c0.18187 0.0606 0.34453 0.13507 0.48783 0.22325 0.1488 0.0882 0.26959 0.18743 0.36329 0.29765 0.07715 0.0937 0.1516 0.1957 0.22324 0.30593 0.07715 0.11022 0.14608 0.24256 0.20671 0.39687 0.06614 0.15432 0.12403 0.33903 0.17363 0.55397 0.05511 0.20943 0.09922 0.46583 0.13229 0.76895 0.03858 0.30312 0.06615 0.65825 0.08268 1.0661 0.02204 0.40232 0.03307 0.87377 0.03307 1.4139 0 0.81015-0.02207 1.4741-0.06615 1.9921-0.04409 0.51254-0.10474 0.93436-0.1819 1.265-0.07716 0.32516-0.16814 0.58156-0.27285 0.76894-0.0992 0.18187-0.20948 0.34126-0.33073 0.47904-0.09369 0.11023-0.21448 0.20948-0.36329 0.29766-0.14329 0.0882-0.30595 0.16262-0.48783 0.22324-0.17636 0.0606-0.36935 0.10749-0.57878 0.14056-0.20943 0.0331-0.42172 0.0496-0.63665 0.0496h-3.6044zm-30.901 0.76016h2.9678c0.37477 0 0.67803 0.0524 0.9095 0.1571 0.23148 0.0992 0.41895 0.25083 0.56224 0.45475 0.0827 0.11023 0.1516 0.24256 0.20671 0.39687 0.0551 0.15432 0.10198 0.37212 0.14056 0.6532 0.0386 0.28107 0.0661 0.64447 0.0827 1.0909 0.0165 0.44642 0.0248 1.0144 0.0248 1.7033s-8e-3 1.2563-0.0248 1.7027c-0.0165 0.44641-0.0441 0.81033-0.0827 1.0914-0.0386 0.28108-0.0855 0.49888-0.14056 0.65319-0.0551 0.15432-0.12404 0.28665-0.20671 0.39688-0.14329 0.20392-0.33076 0.35779-0.56224 0.4625-0.23147 0.0992-0.53473 0.14883-0.9095 0.14883h-2.9678zm12.797 5.6875v0.83509h4.4395v-0.83509z"/>
  <g transform="matrix(.20143 0 0 .20143 -56.41 34.62)" fill="#646464" stroke="#000">
   <rect x="295.42" y="-162.3" width="41.057" height="41.057" stroke-width="1.895"/>
   <g stroke-width="1.6049">
    <path d="m298.67-166.73v4.3944"/>
    <path d="m304.41-166.73v4.3944"/>
    <path d="m310.14-166.73v4.3944"/>
    <path d="m315.88-166.73v4.3944"/>
    <path d="m321.62-166.73v4.3944"/>
    <path d="m327.36-166.73v4.3944"/>
    <path d="m333.09-166.73v4.3944"/>
    <path d="m340.88-159.12h-4.3944"/>
    <path d="m340.88-153.42h-4.3944"/>
    <path d="m340.88-147.71h-4.3944"/>
    <path d="m340.88-142.01h-4.3944"/>
    <path d="m340.88-136.31h-4.3944"/>
    <path d="m340.88-130.6h-4.3944"/>
    <path d="m340.88-124.9h-4.3944"/>
    <path d="m291.13-159.19h4.3944"/>
    <path d="m291.13-153.48h4.3944"/>
    <path d="m291.13-147.78h4.3944"/>
    <path d="m291.13-142.08h4.3944"/>
    <path d="m291.13-136.37h4.3944"/>
    <path d="m291.13-130.67h4.3944"/>
    <path d="m291.13-124.97h4.3944"/>
    <path d="m298.75-116.8v-4.3944"/>
    <path d="m304.49-116.8v-4.3944"/>
    <path d="m310.22-116.8v-4.3944"/>
    <path d="m315.96-116.8v-4.3944"/>
    <path d="m321.7-116.8v-4.3944"/>
    <path d="m327.43-116.8v-4.3944"/>
    <path d="m333.17-116.8v-4.3944"/>
   </g>
  </g>
  <text x="4.3827868" y="6.5586338" fill="#ffffff" font-family="sans-serif" font-size="2.4206px" letter-spacing="0px" stroke-width=".060516" word-spacing="0px" style="line-height:1.25" xml:space="preserve"><tspan x="4.3827868" y="6.5586338" fill="#ffffff" font-family="AzbukaW01-Medium" font-size="2.4206px" font-weight="500" letter-spacing="-.051893px" stroke-width=".060516" style="font-feature-settings:normal;font-variant-caps:normal;font-variant-ligatures:normal;font-variant-numeric:normal">FPGA</tspan></text>
 </g>
</svg>
